SplineFontDB: 3.0
FontName: WebAtlas
FullName: WebAtlas
FamilyName: WebAtlas
Weight: Book
Copyright: Copyright (c) 2017, Louis MORAES.
Version: 
ItalicAngle: 0
UnderlinePosition: -170
UnderlineWidth: 50
Ascent: 800
Descent: 200
InvalidEm: 0
sfntRevision: 0x00010000
LayerCount: 2
Layer: 0 1 "Arri+AOgA-re" 1
Layer: 1 1 "Avant" 0
XUID: [1021 206 1625637039 14079]
StyleMap: 0x0040
FSType: 8
OS2Version: 3
OS2_WeightWidthSlopeOnly: 0
OS2_UseTypoMetrics: 0
CreationTime: 1375896762
ModificationTime: 1521383993
PfmFamily: 81
TTFWeight: 400
TTFWidth: 5
LineGap: 0
VLineGap: 0
Panose: 0 0 5 0 0 0 0 0 0 0
OS2TypoAscent: 700
OS2TypoAOffset: 0
OS2TypoDescent: -201
OS2TypoDOffset: 0
OS2TypoLinegap: 299
OS2WinAscent: 999
OS2WinAOffset: 0
OS2WinDescent: 201
OS2WinDOffset: 0
HheadAscent: 999
HheadAOffset: 0
HheadDescent: -201
HheadDOffset: 0
OS2SubXSize: 650
OS2SubYSize: 600
OS2SubXOff: 0
OS2SubYOff: 75
OS2SupXSize: 650
OS2SupYSize: 600
OS2SupXOff: 0
OS2SupYOff: 350
OS2StrikeYSize: 50
OS2StrikeYPos: 292
OS2CapHeight: 690
OS2XHeight: 487
OS2Vendor: 'UKWN'
OS2CodePages: 20000097.00000000
OS2UnicodeRanges: 00000207.00000000.00000000.00000000
MarkAttachClasses: 1
DEI: 91125
TtTable: prep
MPPEM
PUSHW_1
 200
GT
IF
PUSHB_2
 1
 1
INSTCTRL
EIF
PUSHW_2
 2048
 2048
MUL
DUP
PUSHB_1
 1
SWAP
WCVTP
DUP
PUSHB_1
 3
SWAP
WCVTF
PUSHB_1
 20
RCVT
DUP
DUP
MPPEM
PUSHB_1
 14
LTEQ
MPPEM
PUSHB_1
 6
GTEQ
AND
IF
PUSHB_1
 52
ELSE
PUSHB_1
 40
EIF
ADD
FLOOR
DUP
ROLL
NEQ
IF
PUSHB_1
 2
CINDEX
SUB
PUSHB_1
 1
RCVT
MUL
SWAP
DIV
PUSHB_1
 2
SWAP
WCVTP
PUSHB_4
 10
 10
 5
 4
CALL
PUSHB_4
 11
 16
 5
 4
CALL
PUSHB_4
 17
 22
 5
 4
CALL
EIF
PUSHB_3
 4
 40
 8
RCVT
GT
WCVTP
PUSHB_4
 11
 16
 6
 4
CALL
PUSHB_2
 6
 1
WCVTP
PUSHB_2
 36
 1
GETINFO
LTEQ
IF
PUSHB_1
 64
GETINFO
IF
PUSHB_2
 6
 3
WCVTP
PUSHB_2
 38
 1
GETINFO
LTEQ
IF
PUSHW_1
 1024
GETINFO
IF
PUSHB_2
 6
 1
WCVTP
EIF
EIF
EIF
EIF
PUSHW_1
 511
SCANCTRL
PUSHB_1
 4
SCANTYPE
PUSHB_2
 5
 0
WCVTP
EndTTInstrs
TtTable: fpgm
PUSHB_1
 0
FDEF
PUSHB_1
 32
ADD
FLOOR
ENDF
PUSHB_1
 1
FDEF

StartChar: asterisk
Encoding: 42 42 3
Width: 620
VWidth: 0
GlyphClass: 2
Flags: W
LayerCount: 2
Fore
SplineSet
322 800 m 0,0,1
 363.51953125 801.76953125 363.51953125 801.76953125 364.140625 760.2265625 c 0,2,3
 364.140625 760.12109375 364.140625 760.12109375 364.45703125 680.4453125 c 1,4,5
 429.77734375 701.3984375 429.77734375 701.3984375 440.37109375 704.83203125 c 0,6,7
 482.21875 718.44921875 482.21875 718.44921875 492.34375 675.21875 c 0,8,9
 500.72265625 639.46484375 500.72265625 639.46484375 465.37890625 627.96875 c 0,10,11
 451.08203125 623.29296875 451.08203125 623.29296875 424.9140625 614.65625 c 128,-1,12
 398.74609375 606.01953125 398.74609375 606.01953125 389.62890625 603.03125 c 1,13,14
 428.5703125 548.984375 428.5703125 548.984375 436.26953125 538.390625 c 0,15,16
 467 496 467 496 412.8671875 474.98046875 c 0,17,18
 388.79674004 466.172589615 388.79674004 466.172589615 370.84375 490.89453125 c 0,19,20
 362.06640625 502.91796875 362.06640625 502.91796875 345.90625 524.94921875 c 128,-1,21
 329.74609375 546.9921875 329.74609375 546.9921875 323.734375 555.20703125 c 1,22,23
 285.63671875 503.1640625 285.63671875 503.1640625 276.625 490.89453125 c 0,24,25
 252.63671875 459.74609375 252.63671875 459.74609375 220.84375 482.85546875 c 128,-1,26
 189.0390625 505.9765625 189.0390625 505.9765625 211.28125 538.390625 c 0,27,28
 219.296875 549.5234375 219.296875 549.5234375 236.16015625 572.87890625 c 128,-1,29
 253.01171875 596.22265625 253.01171875 596.22265625 257.921875 603.03125 c 1,30,31
 193.83203125 624.13671875 193.83203125 624.13671875 182.16015625 627.96875 c 0,32,33
 144.51953125 640.8359375 144.51953125 640.8359375 156.7890625 678.67578125 c 128,-1,34
 169.0703125 716.515625 169.0703125 716.515625 207.09765625 704.83203125 c 0,35,36
 218.67578125 701.05859375 218.67578125 701.05859375 244.38671875 692.84375 c 128,-1,37
 270.09765625 684.62890625 270.09765625 684.62890625 283.01171875 680.4453125 c 1,38,39
 283.05859375 693.734375 283.05859375 693.734375 283.1640625 720.3359375 c 128,-1,40
 283.26953125 746.92578125 283.26953125 746.92578125 283.328125 760.2265625 c 0,41,42
 283.890625 798.34765625 283.890625 798.34765625 322 800 c 0,0,1
EndSplineSet
Validated: 33
EndChar

StartChar: plus
Encoding: 43 43 4
Width: 700
VWidth: 77
GlyphClass: 2
Flags: W
LayerCount: 2
Fore
SplineSet
349.321289062 631.790039062 m 0,0,1
 395.87890625 631.790039062 395.87890625 631.790039062 395.87890625 585.858398438 c 0,2,-1
 395.87890625 430.946289062 l 1,3,-1
 550.178710938 430.946289062 l 2,4,5
 596.122070312 430.946289062 596.122070312 430.946289062 596.122070312 385.014648438 c 128,-1,6
 596.122070312 339.0703125 596.122070312 339.0703125 550.178710938 339.0703125 c 2,7,-1
 395.87890625 339.0703125 l 1,8,-1
 395.87890625 184.796875 l 2,9,10
 395.87890625 137.959960938 395.87890625 137.959960938 349.946289062 137.959960938 c 128,-1,11
 304.014648438 137.959960938 304.014648438 137.959960938 304.014648438 183.891601562 c 0,12,-1
 304.029296875 339.0703125 l 1,13,-1
 149.821289062 339.0703125 l 2,14,15
 103.877929688 339.0703125 103.877929688 339.0703125 103.877929688 385.014648438 c 128,-1,16
 103.877929688 430.946289062 103.877929688 430.946289062 149.821289062 430.946289062 c 2,17,-1
 304.029296875 430.946289062 l 1,18,-1
 304.029296875 585.153320312 l 2,19,20
 304.014648438 631.163085938 304.014648438 631.163085938 349.321289062 631.790039062 c 0,0,1
EndSplineSet
Validated: 33
EndChar

StartChar: hyphen
Encoding: 45 45 5
Width: 700
VWidth: 77
GlyphClass: 2
Flags: W
LayerCount: 2
Fore
SplineSet
148.563476562 434.049804688 m 2,0,-1
 548.747070312 434.049804688 l 2,1,2
 595.310546875 434.049804688 595.310546875 434.049804688 595.310546875 388.138671875 c 128,-1,3
 595.310546875 342.227539062 595.310546875 342.227539062 549.3984375 342.227539062 c 0,4,-1
 148.563476562 342.227539062 l 2,5,6
 102 342.227539062 102 342.227539062 102 388.138671875 c 128,-1,7
 102 434.049804688 102 434.049804688 148.563476562 434.049804688 c 2,0,-1
EndSplineSet
Validated: 1
EndChar

StartChar: less
Encoding: 60 60 6
Width: 722
GlyphClass: 2
Flags: W
LayerCount: 2
Fore
SplineSet
578 898 m 2,0,1
 604 898 604 898 623 879 c 128,-1,2
 642 860 642 860 642 833 c 256,3,4
 642 806 642 806 623 787 c 2,5,-1
 236 400 l 1,6,-1
 623 13 l 2,7,8
 642 -6 642 -6 642 -33 c 256,9,10
 642 -60 642 -60 623 -79 c 128,-1,11
 604 -98 604 -98 577 -98 c 256,12,13
 550 -98 550 -98 531 -78 c 2,14,-1
 99 354 l 2,15,16
 80 373 80 373 80 400 c 128,-1,17
 80 427 80 427 99 446 c 2,18,-1
 531 878 l 2,19,20
 550 898 550 898 577 898 c 2,21,-1
 578 898 l 2,0,1
EndSplineSet
EndChar

StartChar: greater
Encoding: 62 62 7
Width: 722
GlyphClass: 2
Flags: W
LayerCount: 2
Fore
SplineSet
144 898 m 2,0,-1
 145 898 l 2,1,2
 172 898 172 898 191 878 c 2,3,-1
 623 446 l 2,4,5
 642 427 642 427 642 400 c 128,-1,6
 642 373 642 373 623 354 c 2,7,-1
 191 -78 l 2,8,9
 172 -98 172 -98 145 -98 c 256,10,11
 118 -98 118 -98 99 -79 c 128,-1,12
 80 -60 80 -60 80 -33 c 256,13,14
 80 -6 80 -6 99 13 c 2,15,-1
 486 400 l 1,16,-1
 99 787 l 2,17,18
 80 806 80 806 80 833 c 256,19,20
 80 860 80 860 99 879 c 128,-1,21
 118 898 118 898 144 898 c 2,0,-1
EndSplineSet
Validated: 1
EndChar

StartChar: k
Encoding: 107 107 8
Width: 386
GlyphClass: 2
Flags: W
LayerCount: 2
Fore
SplineSet
54.478515625 702.154296875 m 1,0,-1
 54.92578125 702.162109375 l 2,1,2
 67.3154296875 702.162109375 67.3154296875 702.162109375 76.0849609375 693.393554688 c 128,-1,3
 84.853515625 684.625 84.853515625 684.625 84.853515625 672.234375 c 0,4,-1
 84.8505859375 283.770507812 l 1,5,-1
 285.1171875 490.571289062 l 2,6,7
 293.428710938 499.399414062 293.428710938 499.399414062 305.540039062 499.953125 c 0,8,9
 306.209960938 499.984375 306.209960938 499.984375 306.905273438 499.984375 c 0,10,11
 319.294921875 499.984375 319.294921875 499.984375 328.064453125 491.215820312 c 128,-1,12
 336.833007812 482.447265625 336.833007812 482.447265625 336.833007812 470.056640625 c 128,-1,13
 336.833007812 457.6953125 336.833007812 457.6953125 328.109375 448.936523438 c 2,14,-1
 134.520507812 249.025390625 l 1,15,-1
 328.2421875 46.091796875 l 2,16,17
 336.845703125 37.35546875 336.845703125 37.35546875 336.845703125 25.09375 c 128,-1,18
 336.845703125 12.703125 336.845703125 12.703125 328.077148438 3.9345703125 c 128,-1,19
 319.30859375 -4.833984375 319.30859375 -4.833984375 306.91796875 -4.833984375 c 0,20,21
 293.8359375 -4.833984375 293.8359375 -4.833984375 284.952148438 4.7666015625 c 2,22,-1
 84.8525390625 214.388671875 l 1,23,-1
 84.8525390625 21.4560546875 l 2,24,25
 84.85546875 8.619140625 84.85546875 8.619140625 76.0869140625 -0.150390625 c 128,-1,26
 67.318359375 -8.9189453125 67.318359375 -8.9189453125 54.927734375 -8.9189453125 c 128,-1,27
 42.5380859375 -8.9189453125 42.5380859375 -8.9189453125 33.76953125 -0.150390625 c 128,-1,28
 25 8.619140625 25 8.619140625 25 21.0087890625 c 0,29,-1
 25.00390625 671.811523438 l 2,30,31
 25.0009765625 684.434570312 25.0009765625 684.434570312 33.6376953125 693.203125 c 128,-1,32
 42.275390625 701.970703125 42.275390625 701.970703125 54.478515625 702.154296875 c 1,0,-1
EndSplineSet
EndChar

StartChar: l
Encoding: 108 108 9
Width: 134
GlyphClass: 2
Flags: W
HStem: 682.154 20G<48.375 54.9268>
VStem: 25 59.8516<0.120714 692.928>
LayerCount: 2
Fore
SplineSet
54.4765625 702.154296875 m 0,0,-1
 54.9267578125 702.153320312 l 2,1,2
 67.3173828125 702.153320312 67.3173828125 702.153320312 76.0859375 693.384765625 c 128,-1,3
 84.8544921875 684.616210938 84.8544921875 684.616210938 84.8544921875 672.225585938 c 0,4,-1
 84.8515625 21.451171875 l 2,5,6
 84.85546875 8.6142578125 84.85546875 8.6142578125 76.0869140625 -0.154296875 c 128,-1,7
 67.3173828125 -8.9228515625 67.3173828125 -8.9228515625 54.927734375 -8.9228515625 c 128,-1,8
 42.537109375 -8.9228515625 42.537109375 -8.9228515625 33.7685546875 -0.154296875 c 128,-1,9
 25 8.6142578125 25 8.6142578125 25 21.0048828125 c 0,10,-1
 25.0029296875 671.806640625 l 2,11,12
 25 684.434570312 25 684.434570312 33.63671875 693.203125 c 128,-1,13
 42.2734375 701.970703125 42.2734375 701.970703125 54.4765625 702.154296875 c 0,0,-1
EndSplineSet
EndChar

StartChar: m
Encoding: 109 109 10
Width: 658
GlyphClass: 2
Flags: W
HStem: 441.102 59.8398<85.1123 272.484 332.838 514.972>
VStem: 25.0059 60.1064<-2.86853 441.102> 298.067 59.8496<2.26019 416.518> 548.44 59.8496<2.20748 404.637>
LayerCount: 2
Fore
SplineSet
440.55078125 501.200195312 m 0,0,1
 518.952148438 501.202148438 518.952148438 501.202148438 559.944335938 459.439453125 c 0,2,3
 608.3203125 410.15234375 608.3203125 410.15234375 608.302734375 299.861328125 c 2,4,-1
 608.290039062 23.3720703125 l 2,5,6
 608.474609375 10.8466796875 608.474609375 10.8466796875 599.682617188 1.923828125 c 128,-1,7
 590.889648438 -6.998046875 590.889648438 -6.998046875 578.36328125 -6.9970703125 c 128,-1,8
 565.836914062 -6.99609375 565.836914062 -6.99609375 557.044921875 1.927734375 c 128,-1,9
 548.25390625 10.8515625 548.25390625 10.8515625 548.440429688 23.376953125 c 2,10,-1
 548.454101562 299.866210938 l 2,11,12
 548.459960938 385.696289062 548.459960938 385.696289062 517.231445312 417.510742188 c 0,13,14
 493.833007812 441.349609375 493.833007812 441.349609375 440.541992188 441.349609375 c 0,15,16
 378.4140625 441.349609375 378.4140625 441.349609375 332.837890625 441.118164062 c 1,17,18
 348.4765625 417.038085938 348.4765625 417.038085938 353.407226562 383.741210938 c 128,-1,19
 358.336914062 350.444335938 358.336914062 350.444335938 357.9296875 298.184570312 c 0,20,-1
 357.916992188 23.4248046875 l 2,21,22
 358.037109375 15.212890625 358.037109375 15.212890625 354.061523438 8.212890625 c 128,-1,23
 350.084960938 1.212890625 350.084960938 1.212890625 343.14453125 -2.865234375 c 128,-1,24
 336.203125 -6.943359375 336.203125 -6.943359375 327.991210938 -6.943359375 c 0,25,26
 315.465820312 -6.9423828125 315.465820312 -6.9423828125 306.673828125 1.98046875 c 128,-1,27
 297.8828125 10.9033203125 297.8828125 10.9033203125 298.067382812 23.4267578125 c 2,28,-1
 298.081054688 298.538085938 l 2,29,30
 298.825195312 393.69140625 298.825195312 393.69140625 276.170898438 416.577148438 c 0,31,32
 251.89453125 441.1015625 251.89453125 441.1015625 150.50390625 441.1015625 c 2,33,-1
 85.1123046875 441.1015625 l 1,34,-1
 85.1123046875 24.0126953125 l 2,35,36
 85.41015625 4.8125 85.41015625 4.8125 70.234375 -3.119140625 c 128,-1,37
 55.0595703125 -11.0498046875 55.0595703125 -11.0498046875 39.8837890625 -3.119140625 c 128,-1,38
 24.7080078125 4.8125 24.7080078125 4.8125 25.005859375 24.0126953125 c 2,39,-1
 25.005859375 466.234375 l 2,40,41
 24.7705078125 482.857421875 24.7705078125 482.857421875 37.8359375 492.836914062 c 0,42,43
 48.677734375 501.1171875 48.677734375 501.1171875 60.8330078125 500.94140625 c 2,44,-1
 150.50390625 500.94140625 l 2,45,46
 253.809570312 500.94140625 253.809570312 500.94140625 295.348632812 476.713867188 c 1,47,48
 297.407226562 487.326171875 297.407226562 487.326171875 305.7734375 494.172851562 c 128,-1,49
 314.140625 501.01953125 314.140625 501.01953125 324.951171875 500.938476562 c 0,50,51
 371.77734375 501.200195312 371.77734375 501.200195312 440.55078125 501.200195312 c 0,0,1
EndSplineSet
EndChar

StartChar: n
Encoding: 110 110 11
Width: 407
GlyphClass: 2
Flags: W
LayerCount: 2
Fore
SplineSet
150.4765625 499.633789062 m 1,0,-1
 150.505859375 499.63671875 l 1,1,2
 216.135742188 499.63671875 216.135742188 499.63671875 254.879882812 491.322265625 c 128,-1,3
 293.623046875 483.0078125 293.623046875 483.0078125 318.583984375 458.083984375 c 0,4,5
 343.245117188 433.458984375 343.245117188 433.458984375 350.823242188 396.690429688 c 128,-1,6
 358.400390625 359.921875 358.400390625 359.921875 357.9296875 298.294921875 c 0,7,-1
 357.916015625 24.7958984375 l 2,8,9
 358.064453125 12.2958984375 358.064453125 12.2958984375 349.27734375 3.404296875 c 128,-1,10
 340.489257812 -5.4873046875 340.489257812 -5.4873046875 327.98828125 -5.486328125 c 128,-1,11
 315.487304688 -5.4853515625 315.487304688 -5.4853515625 306.701171875 3.4072265625 c 128,-1,12
 297.915039062 12.2998046875 297.915039062 12.2998046875 298.065429688 24.7998046875 c 2,13,-1
 298.080078125 298.411132812 l 1,14,-1
 298.080078125 298.525390625 l 2,15,16
 298.819335938 393.231445312 298.819335938 393.231445312 276.29296875 415.725585938 c 0,17,18
 252.205078125 439.780273438 252.205078125 439.780273438 150.50390625 439.780273438 c 2,19,-1
 85.111328125 439.659179688 l 1,20,-1
 85.111328125 24.63671875 l 2,21,22
 85.4091796875 5.4365234375 85.4091796875 5.4365234375 70.234375 -2.494140625 c 128,-1,23
 55.05859375 -10.4248046875 55.05859375 -10.4248046875 39.8828125 -2.494140625 c 128,-1,24
 24.7080078125 5.4365234375 24.7080078125 5.4365234375 25.005859375 24.63671875 c 2,25,-1
 25.005859375 466.114257812 l 2,26,27
 24.7734375 482.549804688 24.7734375 482.549804688 36.8037109375 492.772460938 c 0,28,29
 44.908203125 499.661132812 44.908203125 499.661132812 60.779296875 499.46484375 c 2,30,-1
 150.4765625 499.633789062 l 1,0,-1
EndSplineSet
EndChar

StartChar: o
Encoding: 111 111 12
Width: 413
GlyphClass: 2
Flags: W
LayerCount: 2
Fore
SplineSet
194.299804688 501.611328125 m 1,0,1
 258.836914062 501.532226562 258.836914062 501.532226562 293.208007812 478.114257812 c 0,2,3
 337.66015625 453.670898438 337.66015625 453.670898438 351.444335938 379.204101562 c 0,4,5
 372.546875 267.763671875 372.546875 267.763671875 357.934570312 162.571289062 c 0,6,7
 357.35546875 159.47265625 357.35546875 159.47265625 355.140625 147.280273438 c 128,-1,8
 352.92578125 135.086914062 352.92578125 135.086914062 352.08984375 130.858398438 c 128,-1,9
 351.25390625 126.629882812 351.25390625 126.629882812 348.869140625 115.723632812 c 128,-1,10
 346.484375 104.817382812 346.484375 104.817382812 344.78125 99.5 c 128,-1,11
 343.078125 94.1826171875 343.078125 94.1826171875 339.96484375 84.9228515625 c 128,-1,12
 336.8515625 75.6640625 336.8515625 75.6640625 333.72265625 69.6171875 c 128,-1,13
 330.59375 63.5703125 330.59375 63.5703125 326.194335938 56.318359375 c 128,-1,14
 321.794921875 49.06640625 321.794921875 49.06640625 316.735351562 42.970703125 c 0,15,16
 285.641601562 11.2451171875 285.641601562 11.2451171875 237.868164062 0.6123046875 c 128,-1,17
 190.094726562 -10.0205078125 190.094726562 -10.0205078125 147.5234375 1.1923828125 c 0,18,19
 74.1044921875 20.20703125 74.1044921875 20.20703125 53.5400390625 72.453125 c 0,20,21
 12.6494140625 180.227539062 12.6494140625 180.227539062 30.3447265625 337.930664062 c 0,22,23
 35.708984375 372.8046875 35.708984375 372.8046875 38.515625 387.385742188 c 128,-1,24
 41.322265625 401.967773438 41.322265625 401.967773438 52.4130859375 427.494140625 c 128,-1,25
 63.50390625 453.020507812 63.50390625 453.020507812 80.7548828125 467.841796875 c 0,26,27
 121.776367188 502.983398438 121.776367188 502.983398438 194.299804688 501.611328125 c 1,0,1
194.299804688 440.668945312 m 1,28,29
 127.466796875 439.965820312 127.466796875 439.965820312 112.501953125 408.875976562 c 0,30,31
 100.999023438 385.625 100.999023438 385.625 94.9189453125 353.407226562 c 128,-1,32
 88.837890625 321.189453125 88.837890625 321.189453125 87.978515625 304.82421875 c 128,-1,33
 87.1181640625 288.458984375 87.1181640625 288.458984375 85.814453125 246.309570312 c 0,34,35
 87.009765625 153.450195312 87.009765625 153.450195312 110 100.987304688 c 0,36,37
 120.71875 68.091796875 120.71875 68.091796875 161.088867188 59.203125 c 1,38,39
 210.7734375 53.5615234375 210.7734375 53.5615234375 239.495117188 62.53125 c 0,40,41
 271.645507812 74.951171875 271.645507812 74.951171875 281.62890625 107.935546875 c 0,42,43
 303.458007812 164.896484375 303.458007812 164.896484375 302.6640625 255.546875 c 0,44,45
 302.509765625 259.201171875 302.509765625 259.201171875 302.217773438 266.557617188 c 0,46,47
 300.862304688 300.744140625 300.862304688 300.744140625 299.313476562 319.598632812 c 128,-1,48
 297.764648438 338.452148438 297.764648438 338.452148438 290.989257812 366.610351562 c 128,-1,49
 284.21484375 394.767578125 284.21484375 394.767578125 272.116210938 415.724609375 c 0,50,51
 253.703125 439.944335938 253.703125 439.944335938 194.299804688 440.668945312 c 1,28,29
EndSplineSet
EndChar

StartChar: agrave
Encoding: 224 224 13
Width: 394
VWidth: 0
GlyphClass: 2
Flags: W
LayerCount: 2
Fore
SplineSet
146.288085938 499.555664062 m 0,0,1
 212.4375 499.443359375 212.4375 499.443359375 244.883789062 492.015625 c 0,2,3
 276.266601562 484.83203125 276.266601562 484.83203125 307.302734375 456.801757812 c 0,4,-1
 307.310546875 456.793945312 l 2,5,6
 344.62890625 423.069335938 344.62890625 423.069335938 344.590820312 350.701171875 c 2,7,-1
 344.421875 29.6904296875 l 1,8,-1
 344.423828125 29.2978515625 l 2,9,10
 344.423828125 22.1162109375 344.423828125 22.1162109375 340.904296875 15.6298828125 c 128,-1,11
 337.385742188 9.1435546875 337.385742188 9.1435546875 331.330078125 4.9267578125 c 128,-1,12
 325.2734375 0.708984375 325.2734375 0.708984375 318.13671875 -0.0869140625 c 0,13,14
 314.403320312 -1.08203125 314.403320312 -1.08203125 310.533203125 -1.08203125 c 0,15,16
 287.904296875 -1.080078125 287.904296875 -1.080078125 245.524414062 -1.8740234375 c 128,-1,17
 203.145507812 -2.66796875 203.145507812 -2.66796875 184.88671875 -2.4296875 c 128,-1,18
 166.626953125 -2.1923828125 166.626953125 -2.1923828125 141.573242188 0.921875 c 128,-1,19
 116.51953125 4.037109375 116.51953125 4.037109375 98.3046875 10.953125 c 0,20,21
 56.888671875 26.677734375 56.888671875 26.677734375 39.67578125 67.4521484375 c 0,22,23
 25 102.219726562 25 102.219726562 25 167.486328125 c 0,24,25
 25 227.40625 25 227.40625 68.001953125 260.305664062 c 0,26,27
 103.373046875 287.368164062 103.373046875 287.368164062 156.840820312 287.436523438 c 0,28,-1
 285.432617188 287.57421875 l 1,29,-1
 285.466796875 350.73046875 l 2,30,31
 285.4765625 368.551757812 285.4765625 368.551757812 280.997070312 384.055664062 c 128,-1,32
 276.518554688 399.559570312 276.518554688 399.559570312 272.979492188 405.440429688 c 128,-1,33
 269.440429688 411.322265625 269.440429688 411.322265625 267.668945312 412.921875 c 0,34,35
 265.614257812 414.778320312 265.614257812 414.778320312 261.353515625 418.744140625 c 128,-1,36
 257.092773438 422.7109375 257.092773438 422.7109375 255.931640625 423.645507812 c 128,-1,37
 254.770507812 424.579101562 254.770507812 424.579101562 251.705078125 426.86328125 c 128,-1,38
 248.639648438 429.147460938 248.639648438 429.147460938 246.374023438 429.94921875 c 128,-1,39
 244.108398438 430.75 244.108398438 430.75 240.412109375 431.987304688 c 128,-1,40
 236.716796875 433.224609375 236.716796875 433.224609375 231.694335938 434.374023438 c 0,41,42
 198.213867188 442.036132812 198.213867188 442.036132812 95.2607421875 439.834960938 c 0,43,44
 94.720703125 439.81640625 94.720703125 439.81640625 94.23046875 439.81640625 c 0,45,46
 81.9892578125 439.81640625 81.9892578125 439.81640625 73.326171875 448.48046875 c 128,-1,47
 64.6630859375 457.143554688 64.6630859375 457.143554688 64.6630859375 469.384765625 c 128,-1,48
 64.6630859375 481.529296875 64.6630859375 481.529296875 73.2578125 490.192382812 c 128,-1,49
 81.8525390625 498.85546875 81.8525390625 498.85546875 93.9970703125 498.951171875 c 0,50,51
 123.995117188 499.59375 123.995117188 499.59375 146.288085938 499.555664062 c 0,0,1
285.399414062 228.444335938 m 1,52,-1
 156.916015625 228.30859375 l 2,53,54
 123.434570312 228.265625 123.434570312 228.265625 103.935546875 213.346679688 c 0,55,56
 84.1357421875 198.198242188 84.1357421875 198.198242188 84.1357421875 167.490234375 c 0,57,58
 84.1357421875 114.1875 84.1357421875 114.1875 94.1552734375 90.4521484375 c 0,59,60
 98.58984375 79.947265625 98.58984375 79.947265625 103.71875 75.076171875 c 128,-1,61
 108.84765625 70.2041015625 108.84765625 70.2041015625 119.298828125 66.236328125 c 0,62,63
 142.390625 57.46875 142.390625 57.46875 265.56640625 57.9404296875 c 0,64,65
 278.543945312 57.990234375 278.543945312 57.990234375 285.309570312 58.0107421875 c 1,66,-1
 285.399414062 228.444335938 l 1,52,-1
EndSplineSet
EndChar

StartChar: Amacron
Encoding: 256 256 14
Width: 394
VWidth: 0
GlyphClass: 2
Flags: W
LayerCount: 2
Fore
SplineSet
146.288085938 499.555664062 m 0,0,1
 212.4375 499.443359375 212.4375 499.443359375 244.883789062 492.015625 c 0,2,3
 276.266601562 484.83203125 276.266601562 484.83203125 307.302734375 456.801757812 c 0,4,-1
 307.310546875 456.793945312 l 2,5,6
 344.62890625 423.069335938 344.62890625 423.069335938 344.590820312 350.701171875 c 2,7,-1
 344.421875 29.6904296875 l 1,8,-1
 344.423828125 29.2978515625 l 2,9,10
 344.423828125 22.1162109375 344.423828125 22.1162109375 340.904296875 15.6298828125 c 128,-1,11
 337.385742188 9.1435546875 337.385742188 9.1435546875 331.330078125 4.9267578125 c 128,-1,12
 325.2734375 0.708984375 325.2734375 0.708984375 318.13671875 -0.0869140625 c 0,13,14
 314.403320312 -1.08203125 314.403320312 -1.08203125 310.533203125 -1.08203125 c 0,15,16
 287.904296875 -1.080078125 287.904296875 -1.080078125 245.524414062 -1.8740234375 c 128,-1,17
 203.145507812 -2.66796875 203.145507812 -2.66796875 184.88671875 -2.4296875 c 128,-1,18
 166.626953125 -2.1923828125 166.626953125 -2.1923828125 141.573242188 0.921875 c 128,-1,19
 116.51953125 4.037109375 116.51953125 4.037109375 98.3046875 10.953125 c 0,20,21
 56.888671875 26.677734375 56.888671875 26.677734375 39.67578125 67.4521484375 c 0,22,23
 25 102.219726562 25 102.219726562 25 167.486328125 c 0,24,25
 25 227.40625 25 227.40625 68.001953125 260.305664062 c 0,26,27
 103.373046875 287.368164062 103.373046875 287.368164062 156.840820312 287.436523438 c 0,28,-1
 285.432617188 287.57421875 l 1,29,-1
 285.466796875 350.73046875 l 2,30,31
 285.4765625 368.551757812 285.4765625 368.551757812 280.997070312 384.055664062 c 128,-1,32
 276.518554688 399.559570312 276.518554688 399.559570312 272.979492188 405.440429688 c 128,-1,33
 269.440429688 411.322265625 269.440429688 411.322265625 267.668945312 412.921875 c 0,34,35
 265.614257812 414.778320312 265.614257812 414.778320312 261.353515625 418.744140625 c 128,-1,36
 257.092773438 422.7109375 257.092773438 422.7109375 255.931640625 423.645507812 c 128,-1,37
 254.770507812 424.579101562 254.770507812 424.579101562 251.705078125 426.86328125 c 128,-1,38
 248.639648438 429.147460938 248.639648438 429.147460938 246.374023438 429.94921875 c 128,-1,39
 244.108398438 430.75 244.108398438 430.75 240.412109375 431.987304688 c 128,-1,40
 236.716796875 433.224609375 236.716796875 433.224609375 231.694335938 434.374023438 c 0,41,42
 198.213867188 442.036132812 198.213867188 442.036132812 95.2607421875 439.834960938 c 0,43,44
 94.720703125 439.81640625 94.720703125 439.81640625 94.23046875 439.81640625 c 0,45,46
 81.9892578125 439.81640625 81.9892578125 439.81640625 73.326171875 448.48046875 c 128,-1,47
 64.6630859375 457.143554688 64.6630859375 457.143554688 64.6630859375 469.384765625 c 128,-1,48
 64.6630859375 481.529296875 64.6630859375 481.529296875 73.2578125 490.192382812 c 128,-1,49
 81.8525390625 498.85546875 81.8525390625 498.85546875 93.9970703125 498.951171875 c 0,50,51
 123.995117188 499.59375 123.995117188 499.59375 146.288085938 499.555664062 c 0,0,1
285.399414062 228.444335938 m 1,52,-1
 156.916015625 228.30859375 l 2,53,54
 123.434570312 228.265625 123.434570312 228.265625 103.935546875 213.346679688 c 0,55,56
 84.1357421875 198.198242188 84.1357421875 198.198242188 84.1357421875 167.490234375 c 0,57,58
 84.1357421875 114.1875 84.1357421875 114.1875 94.1552734375 90.4521484375 c 0,59,60
 98.58984375 79.947265625 98.58984375 79.947265625 103.71875 75.076171875 c 128,-1,61
 108.84765625 70.2041015625 108.84765625 70.2041015625 119.298828125 66.236328125 c 0,62,63
 142.390625 57.46875 142.390625 57.46875 265.56640625 57.9404296875 c 0,64,65
 278.543945312 57.990234375 278.543945312 57.990234375 285.309570312 58.0107421875 c 1,66,-1
 285.399414062 228.444335938 l 1,52,-1
EndSplineSet
EndChar

StartChar: amacron
Encoding: 257 257 15
Width: 394
VWidth: 0
GlyphClass: 2
Flags: W
LayerCount: 2
Fore
SplineSet
146.288085938 499.555664062 m 0,0,1
 212.4375 499.443359375 212.4375 499.443359375 244.883789062 492.015625 c 0,2,3
 276.266601562 484.83203125 276.266601562 484.83203125 307.302734375 456.801757812 c 0,4,-1
 307.310546875 456.793945312 l 2,5,6
 344.62890625 423.069335938 344.62890625 423.069335938 344.590820312 350.701171875 c 2,7,-1
 344.421875 29.6904296875 l 1,8,-1
 344.423828125 29.2978515625 l 2,9,10
 344.423828125 22.1162109375 344.423828125 22.1162109375 340.904296875 15.6298828125 c 128,-1,11
 337.385742188 9.1435546875 337.385742188 9.1435546875 331.330078125 4.9267578125 c 128,-1,12
 325.2734375 0.708984375 325.2734375 0.708984375 318.13671875 -0.0869140625 c 0,13,14
 314.403320312 -1.08203125 314.403320312 -1.08203125 310.533203125 -1.08203125 c 0,15,16
 287.904296875 -1.080078125 287.904296875 -1.080078125 245.524414062 -1.8740234375 c 128,-1,17
 203.145507812 -2.66796875 203.145507812 -2.66796875 184.88671875 -2.4296875 c 128,-1,18
 166.626953125 -2.1923828125 166.626953125 -2.1923828125 141.573242188 0.921875 c 128,-1,19
 116.51953125 4.037109375 116.51953125 4.037109375 98.3046875 10.953125 c 0,20,21
 56.888671875 26.677734375 56.888671875 26.677734375 39.67578125 67.4521484375 c 0,22,23
 25 102.219726562 25 102.219726562 25 167.486328125 c 0,24,25
 25 227.40625 25 227.40625 68.001953125 260.305664062 c 0,26,27
 103.373046875 287.368164062 103.373046875 287.368164062 156.840820312 287.436523438 c 0,28,-1
 285.432617188 287.57421875 l 1,29,-1
 285.466796875 350.73046875 l 2,30,31
 285.4765625 368.551757812 285.4765625 368.551757812 280.997070312 384.055664062 c 128,-1,32
 276.518554688 399.559570312 276.518554688 399.559570312 272.979492188 405.440429688 c 128,-1,33
 269.440429688 411.322265625 269.440429688 411.322265625 267.668945312 412.921875 c 0,34,35
 265.614257812 414.778320312 265.614257812 414.778320312 261.353515625 418.744140625 c 128,-1,36
 257.092773438 422.7109375 257.092773438 422.7109375 255.931640625 423.645507812 c 128,-1,37
 254.770507812 424.579101562 254.770507812 424.579101562 251.705078125 426.86328125 c 128,-1,38
 248.639648438 429.147460938 248.639648438 429.147460938 246.374023438 429.94921875 c 128,-1,39
 244.108398438 430.75 244.108398438 430.75 240.412109375 431.987304688 c 128,-1,40
 236.716796875 433.224609375 236.716796875 433.224609375 231.694335938 434.374023438 c 0,41,42
 198.213867188 442.036132812 198.213867188 442.036132812 95.2607421875 439.834960938 c 0,43,44
 94.720703125 439.81640625 94.720703125 439.81640625 94.23046875 439.81640625 c 0,45,46
 81.9892578125 439.81640625 81.9892578125 439.81640625 73.326171875 448.48046875 c 128,-1,47
 64.6630859375 457.143554688 64.6630859375 457.143554688 64.6630859375 469.384765625 c 128,-1,48
 64.6630859375 481.529296875 64.6630859375 481.529296875 73.2578125 490.192382812 c 128,-1,49
 81.8525390625 498.85546875 81.8525390625 498.85546875 93.9970703125 498.951171875 c 0,50,51
 123.995117188 499.59375 123.995117188 499.59375 146.288085938 499.555664062 c 0,0,1
285.399414062 228.444335938 m 1,52,-1
 156.916015625 228.30859375 l 2,53,54
 123.434570312 228.265625 123.434570312 228.265625 103.935546875 213.346679688 c 0,55,56
 84.1357421875 198.198242188 84.1357421875 198.198242188 84.1357421875 167.490234375 c 0,57,58
 84.1357421875 114.1875 84.1357421875 114.1875 94.1552734375 90.4521484375 c 0,59,60
 98.58984375 79.947265625 98.58984375 79.947265625 103.71875 75.076171875 c 128,-1,61
 108.84765625 70.2041015625 108.84765625 70.2041015625 119.298828125 66.236328125 c 0,62,63
 142.390625 57.46875 142.390625 57.46875 265.56640625 57.9404296875 c 0,64,65
 278.543945312 57.990234375 278.543945312 57.990234375 285.309570312 58.0107421875 c 1,66,-1
 285.399414062 228.444335938 l 1,52,-1
EndSplineSet
EndChar

StartChar: Abreve
Encoding: 258 258 16
Width: 394
VWidth: 0
GlyphClass: 2
Flags: W
LayerCount: 2
Fore
SplineSet
146.288085938 499.555664062 m 0,0,1
 212.4375 499.443359375 212.4375 499.443359375 244.883789062 492.015625 c 0,2,3
 276.266601562 484.83203125 276.266601562 484.83203125 307.302734375 456.801757812 c 0,4,-1
 307.310546875 456.793945312 l 2,5,6
 344.62890625 423.069335938 344.62890625 423.069335938 344.590820312 350.701171875 c 2,7,-1
 344.421875 29.6904296875 l 1,8,-1
 344.423828125 29.2978515625 l 2,9,10
 344.423828125 22.1162109375 344.423828125 22.1162109375 340.904296875 15.6298828125 c 128,-1,11
 337.385742188 9.1435546875 337.385742188 9.1435546875 331.330078125 4.9267578125 c 128,-1,12
 325.2734375 0.708984375 325.2734375 0.708984375 318.13671875 -0.0869140625 c 0,13,14
 314.403320312 -1.08203125 314.403320312 -1.08203125 310.533203125 -1.08203125 c 0,15,16
 287.904296875 -1.080078125 287.904296875 -1.080078125 245.524414062 -1.8740234375 c 128,-1,17
 203.145507812 -2.66796875 203.145507812 -2.66796875 184.88671875 -2.4296875 c 128,-1,18
 166.626953125 -2.1923828125 166.626953125 -2.1923828125 141.573242188 0.921875 c 128,-1,19
 116.51953125 4.037109375 116.51953125 4.037109375 98.3046875 10.953125 c 0,20,21
 56.888671875 26.677734375 56.888671875 26.677734375 39.67578125 67.4521484375 c 0,22,23
 25 102.219726562 25 102.219726562 25 167.486328125 c 0,24,25
 25 227.40625 25 227.40625 68.001953125 260.305664062 c 0,26,27
 103.373046875 287.368164062 103.373046875 287.368164062 156.840820312 287.436523438 c 0,28,-1
 285.432617188 287.57421875 l 1,29,-1
 285.466796875 350.73046875 l 2,30,31
 285.4765625 368.551757812 285.4765625 368.551757812 280.997070312 384.055664062 c 128,-1,32
 276.518554688 399.559570312 276.518554688 399.559570312 272.979492188 405.440429688 c 128,-1,33
 269.440429688 411.322265625 269.440429688 411.322265625 267.668945312 412.921875 c 0,34,35
 265.614257812 414.778320312 265.614257812 414.778320312 261.353515625 418.744140625 c 128,-1,36
 257.092773438 422.7109375 257.092773438 422.7109375 255.931640625 423.645507812 c 128,-1,37
 254.770507812 424.579101562 254.770507812 424.579101562 251.705078125 426.86328125 c 128,-1,38
 248.639648438 429.147460938 248.639648438 429.147460938 246.374023438 429.94921875 c 128,-1,39
 244.108398438 430.75 244.108398438 430.75 240.412109375 431.987304688 c 128,-1,40
 236.716796875 433.224609375 236.716796875 433.224609375 231.694335938 434.374023438 c 0,41,42
 198.213867188 442.036132812 198.213867188 442.036132812 95.2607421875 439.834960938 c 0,43,44
 94.720703125 439.81640625 94.720703125 439.81640625 94.23046875 439.81640625 c 0,45,46
 81.9892578125 439.81640625 81.9892578125 439.81640625 73.326171875 448.48046875 c 128,-1,47
 64.6630859375 457.143554688 64.6630859375 457.143554688 64.6630859375 469.384765625 c 128,-1,48
 64.6630859375 481.529296875 64.6630859375 481.529296875 73.2578125 490.192382812 c 128,-1,49
 81.8525390625 498.85546875 81.8525390625 498.85546875 93.9970703125 498.951171875 c 0,50,51
 123.995117188 499.59375 123.995117188 499.59375 146.288085938 499.555664062 c 0,0,1
285.399414062 228.444335938 m 1,52,-1
 156.916015625 228.30859375 l 2,53,54
 123.434570312 228.265625 123.434570312 228.265625 103.935546875 213.346679688 c 0,55,56
 84.1357421875 198.198242188 84.1357421875 198.198242188 84.1357421875 167.490234375 c 0,57,58
 84.1357421875 114.1875 84.1357421875 114.1875 94.1552734375 90.4521484375 c 0,59,60
 98.58984375 79.947265625 98.58984375 79.947265625 103.71875 75.076171875 c 128,-1,61
 108.84765625 70.2041015625 108.84765625 70.2041015625 119.298828125 66.236328125 c 0,62,63
 142.390625 57.46875 142.390625 57.46875 265.56640625 57.9404296875 c 0,64,65
 278.543945312 57.990234375 278.543945312 57.990234375 285.309570312 58.0107421875 c 1,66,-1
 285.399414062 228.444335938 l 1,52,-1
EndSplineSet
EndChar

StartChar: abreve
Encoding: 259 259 17
Width: 394
VWidth: 0
GlyphClass: 2
Flags: W
LayerCount: 2
Fore
SplineSet
146.288085938 499.555664062 m 0,0,1
 212.4375 499.443359375 212.4375 499.443359375 244.883789062 492.015625 c 0,2,3
 276.266601562 484.83203125 276.266601562 484.83203125 307.302734375 456.801757812 c 0,4,-1
 307.310546875 456.793945312 l 2,5,6
 344.62890625 423.069335938 344.62890625 423.069335938 344.590820312 350.701171875 c 2,7,-1
 344.421875 29.6904296875 l 1,8,-1
 344.423828125 29.2978515625 l 2,9,10
 344.423828125 22.1162109375 344.423828125 22.1162109375 340.904296875 15.6298828125 c 128,-1,11
 337.385742188 9.1435546875 337.385742188 9.1435546875 331.330078125 4.9267578125 c 128,-1,12
 325.2734375 0.708984375 325.2734375 0.708984375 318.13671875 -0.0869140625 c 0,13,14
 314.403320312 -1.08203125 314.403320312 -1.08203125 310.533203125 -1.08203125 c 0,15,16
 287.904296875 -1.080078125 287.904296875 -1.080078125 245.524414062 -1.8740234375 c 128,-1,17
 203.145507812 -2.66796875 203.145507812 -2.66796875 184.88671875 -2.4296875 c 128,-1,18
 166.626953125 -2.1923828125 166.626953125 -2.1923828125 141.573242188 0.921875 c 128,-1,19
 116.51953125 4.037109375 116.51953125 4.037109375 98.3046875 10.953125 c 0,20,21
 56.888671875 26.677734375 56.888671875 26.677734375 39.67578125 67.4521484375 c 0,22,23
 25 102.219726562 25 102.219726562 25 167.486328125 c 0,24,25
 25 227.40625 25 227.40625 68.001953125 260.305664062 c 0,26,27
 103.373046875 287.368164062 103.373046875 287.368164062 156.840820312 287.436523438 c 0,28,-1
 285.432617188 287.57421875 l 1,29,-1
 285.466796875 350.73046875 l 2,30,31
 285.4765625 368.551757812 285.4765625 368.551757812 280.997070312 384.055664062 c 128,-1,32
 276.518554688 399.559570312 276.518554688 399.559570312 272.979492188 405.440429688 c 128,-1,33
 269.440429688 411.322265625 269.440429688 411.322265625 267.668945312 412.921875 c 0,34,35
 265.614257812 414.778320312 265.614257812 414.778320312 261.353515625 418.744140625 c 128,-1,36
 257.092773438 422.7109375 257.092773438 422.7109375 255.931640625 423.645507812 c 128,-1,37
 254.770507812 424.579101562 254.770507812 424.579101562 251.705078125 426.86328125 c 128,-1,38
 248.639648438 429.147460938 248.639648438 429.147460938 246.374023438 429.94921875 c 128,-1,39
 244.108398438 430.75 244.108398438 430.75 240.412109375 431.987304688 c 128,-1,40
 236.716796875 433.224609375 236.716796875 433.224609375 231.694335938 434.374023438 c 0,41,42
 198.213867188 442.036132812 198.213867188 442.036132812 95.2607421875 439.834960938 c 0,43,44
 94.720703125 439.81640625 94.720703125 439.81640625 94.23046875 439.81640625 c 0,45,46
 81.9892578125 439.81640625 81.9892578125 439.81640625 73.326171875 448.48046875 c 128,-1,47
 64.6630859375 457.143554688 64.6630859375 457.143554688 64.6630859375 469.384765625 c 128,-1,48
 64.6630859375 481.529296875 64.6630859375 481.529296875 73.2578125 490.192382812 c 128,-1,49
 81.8525390625 498.85546875 81.8525390625 498.85546875 93.9970703125 498.951171875 c 0,50,51
 123.995117188 499.59375 123.995117188 499.59375 146.288085938 499.555664062 c 0,0,1
285.399414062 228.444335938 m 1,52,-1
 156.916015625 228.30859375 l 2,53,54
 123.434570312 228.265625 123.434570312 228.265625 103.935546875 213.346679688 c 0,55,56
 84.1357421875 198.198242188 84.1357421875 198.198242188 84.1357421875 167.490234375 c 0,57,58
 84.1357421875 114.1875 84.1357421875 114.1875 94.1552734375 90.4521484375 c 0,59,60
 98.58984375 79.947265625 98.58984375 79.947265625 103.71875 75.076171875 c 128,-1,61
 108.84765625 70.2041015625 108.84765625 70.2041015625 119.298828125 66.236328125 c 0,62,63
 142.390625 57.46875 142.390625 57.46875 265.56640625 57.9404296875 c 0,64,65
 278.543945312 57.990234375 278.543945312 57.990234375 285.309570312 58.0107421875 c 1,66,-1
 285.399414062 228.444335938 l 1,52,-1
EndSplineSet
EndChar

StartChar: Nacute
Encoding: 323 323 18
Width: 407
GlyphClass: 2
Flags: W
LayerCount: 2
Fore
SplineSet
150.4765625 499.633789062 m 1,0,-1
 150.505859375 499.63671875 l 1,1,2
 216.135742188 499.63671875 216.135742188 499.63671875 254.879882812 491.322265625 c 128,-1,3
 293.623046875 483.0078125 293.623046875 483.0078125 318.583984375 458.083984375 c 0,4,5
 343.245117188 433.458984375 343.245117188 433.458984375 350.823242188 396.690429688 c 128,-1,6
 358.400390625 359.921875 358.400390625 359.921875 357.9296875 298.294921875 c 0,7,-1
 357.916015625 24.7958984375 l 2,8,9
 358.064453125 12.2958984375 358.064453125 12.2958984375 349.27734375 3.404296875 c 128,-1,10
 340.489257812 -5.4873046875 340.489257812 -5.4873046875 327.98828125 -5.486328125 c 128,-1,11
 315.487304688 -5.4853515625 315.487304688 -5.4853515625 306.701171875 3.4072265625 c 128,-1,12
 297.915039062 12.2998046875 297.915039062 12.2998046875 298.065429688 24.7998046875 c 2,13,-1
 298.080078125 298.411132812 l 1,14,-1
 298.080078125 298.525390625 l 2,15,16
 298.819335938 393.231445312 298.819335938 393.231445312 276.29296875 415.725585938 c 0,17,18
 252.205078125 439.780273438 252.205078125 439.780273438 150.50390625 439.780273438 c 2,19,-1
 85.111328125 439.659179688 l 1,20,-1
 85.111328125 24.63671875 l 2,21,22
 85.4091796875 5.4365234375 85.4091796875 5.4365234375 70.234375 -2.494140625 c 128,-1,23
 55.05859375 -10.4248046875 55.05859375 -10.4248046875 39.8828125 -2.494140625 c 128,-1,24
 24.7080078125 5.4365234375 24.7080078125 5.4365234375 25.005859375 24.63671875 c 2,25,-1
 25.005859375 466.114257812 l 2,26,27
 24.7734375 482.549804688 24.7734375 482.549804688 36.8037109375 492.772460938 c 0,28,29
 44.908203125 499.661132812 44.908203125 499.661132812 60.779296875 499.46484375 c 2,30,-1
 150.4765625 499.633789062 l 1,0,-1
EndSplineSet
EndChar

StartChar: nacute
Encoding: 324 324 19
Width: 407
GlyphClass: 2
Flags: W
LayerCount: 2
Fore
SplineSet
150.4765625 499.633789062 m 1,0,-1
 150.505859375 499.63671875 l 1,1,2
 216.135742188 499.63671875 216.135742188 499.63671875 254.879882812 491.322265625 c 128,-1,3
 293.623046875 483.0078125 293.623046875 483.0078125 318.583984375 458.083984375 c 0,4,5
 343.245117188 433.458984375 343.245117188 433.458984375 350.823242188 396.690429688 c 128,-1,6
 358.400390625 359.921875 358.400390625 359.921875 357.9296875 298.294921875 c 0,7,-1
 357.916015625 24.7958984375 l 2,8,9
 358.064453125 12.2958984375 358.064453125 12.2958984375 349.27734375 3.404296875 c 128,-1,10
 340.489257812 -5.4873046875 340.489257812 -5.4873046875 327.98828125 -5.486328125 c 128,-1,11
 315.487304688 -5.4853515625 315.487304688 -5.4853515625 306.701171875 3.4072265625 c 128,-1,12
 297.915039062 12.2998046875 297.915039062 12.2998046875 298.065429688 24.7998046875 c 2,13,-1
 298.080078125 298.411132812 l 1,14,-1
 298.080078125 298.525390625 l 2,15,16
 298.819335938 393.231445312 298.819335938 393.231445312 276.29296875 415.725585938 c 0,17,18
 252.205078125 439.780273438 252.205078125 439.780273438 150.50390625 439.780273438 c 2,19,-1
 85.111328125 439.659179688 l 1,20,-1
 85.111328125 24.63671875 l 2,21,22
 85.4091796875 5.4365234375 85.4091796875 5.4365234375 70.234375 -2.494140625 c 128,-1,23
 55.05859375 -10.4248046875 55.05859375 -10.4248046875 39.8828125 -2.494140625 c 128,-1,24
 24.7080078125 5.4365234375 24.7080078125 5.4365234375 25.005859375 24.63671875 c 2,25,-1
 25.005859375 466.114257812 l 2,26,27
 24.7734375 482.549804688 24.7734375 482.549804688 36.8037109375 492.772460938 c 0,28,29
 44.908203125 499.661132812 44.908203125 499.661132812 60.779296875 499.46484375 c 2,30,-1
 150.4765625 499.633789062 l 1,0,-1
EndSplineSet
EndChar

StartChar: uni01D5
Encoding: 469 469 20
Width: 395
VWidth: 0
Flags: W
LayerCount: 2
Fore
SplineSet
54.4501953125 502.107421875 m 1,0,-1
 54.8984375 502.110351562 l 2,1,2
 67.2783203125 502.110351562 67.2783203125 502.110351562 76.041015625 493.348632812 c 128,-1,3
 84.802734375 484.5859375 84.802734375 484.5859375 84.802734375 472.206054688 c 0,4,-1
 84.7998046875 152.551757812 l 2,5,6
 85.0517578125 106.645507812 85.0517578125 106.645507812 105.793945312 84.041015625 c 0,7,8
 129.53125 58.1708984375 129.53125 58.1708984375 185.001953125 58.1708984375 c 128,-1,9
 240.650390625 58.1708984375 240.650390625 58.1708984375 264.7890625 84.353515625 c 0,10,11
 285.861328125 107.208007812 285.861328125 107.208007812 285.206054688 151.951171875 c 0,12,-1
 285.203125 471.784179688 l 2,13,14
 285.200195312 484.610351562 285.200195312 484.610351562 293.961914062 493.373046875 c 128,-1,15
 302.724609375 502.134765625 302.724609375 502.134765625 315.104492188 502.134765625 c 128,-1,16
 327.485351562 502.134765625 327.485351562 502.134765625 336.247070312 493.373046875 c 128,-1,17
 345.009765625 484.610351562 345.009765625 484.610351562 345.009765625 472.23046875 c 0,18,-1
 345.005859375 152.389648438 l 1,19,-1
 345.005859375 152.828125 l 2,20,21
 346.012695312 84.2236328125 346.012695312 84.2236328125 308.7578125 43.8154296875 c 0,22,23
 266.858398438 -1.6318359375 266.858398438 -1.6318359375 185.00390625 -1.6318359375 c 128,-1,24
 103.244140625 -1.6318359375 103.244140625 -1.6318359375 61.7314453125 43.6064453125 c 0,25,26
 25.3779296875 83.2236328125 25.3779296875 83.2236328125 25 152.224609375 c 0,27,-1
 25 471.784179688 l 2,28,29
 24.99609375 484.401367188 24.99609375 484.401367188 33.6259765625 493.162109375 c 128,-1,30
 42.2568359375 501.923828125 42.2568359375 501.923828125 54.4501953125 502.107421875 c 1,0,-1
EndSplineSet
EndChar

StartChar: two
Encoding: 50 50 22
Width: 700
VWidth: 0
Flags: W
LayerCount: 2
Fore
SplineSet
411.806640625 795.145507812 m 2,0,1
 514.626953125 795.361328125 514.626953125 795.361328125 558.171875 732.049804688 c 0,2,3
 591.572265625 683.490234375 591.572265625 683.490234375 585.619140625 595.346679688 c 2,4,-1
 585.3515625 592.87109375 l 2,5,6
 575.107421875 511.494140625 575.107421875 511.494140625 506.2734375 444.28515625 c 0,7,8
 470.814453125 409.665039062 470.814453125 409.665039062 376.412109375 346.658203125 c 0,9,10
 215.44921875 239.205078125 215.44921875 239.205078125 201.419921875 143.698242188 c 2,11,-1
 201.33203125 87.5341796875 l 1,12,-1
 542.1875 87.5341796875 l 2,13,14
 586.5703125 87.546875 586.5703125 87.546875 586.5703125 43.7607421875 c 128,-1,15
 586.5703125 -0.0126953125 586.5703125 -0.0126953125 542.796875 -0.0126953125 c 0,16,-1
 157.482421875 0 l 2,17,18
 113.708984375 0 113.708984375 0 113.708984375 43.7607421875 c 2,19,-1
 113.873046875 148.573242188 l 1,20,-1
 114.3046875 154.565429688 l 2,21,22
 133.09375 289.427734375 133.09375 289.427734375 327.865234375 419.415039062 c 0,23,24
 415.451171875 477.864257812 415.451171875 477.864257812 445.158203125 506.873046875 c 0,25,26
 491.330078125 551.966796875 491.330078125 551.966796875 498.072265625 603.040039062 c 0,27,28
 501.44921875 659.927734375 501.44921875 659.927734375 486.01171875 682.373046875 c 0,29,30
 468.60546875 707.725585938 468.60546875 707.725585938 411.984375 707.598632812 c 0,31,-1
 411.896484375 707.598632812 l 1,32,-1
 157.900390625 707.255859375 l 2,33,34
 113.4296875 707.255859375 113.4296875 707.255859375 113.4296875 751.029296875 c 128,-1,35
 113.4296875 794.802734375 113.4296875 794.802734375 157.203125 794.802734375 c 0,36,-1
 411.806640625 795.145507812 l 2,0,1
EndSplineSet
Validated: 33
EndChar

StartChar: semicolon
Encoding: 59 59 23
Width: 300
VWidth: 26
Flags: W
LayerCount: 2
Fore
SplineSet
181.15625 471.400390625 m 128,-1,1
 239.46875 471.400390625 239.46875 471.400390625 239.46875 413.112304688 c 128,-1,2
 239.444335938 354.799804688 239.444335938 354.799804688 181.181640625 354.799804688 c 128,-1,3
 122.869140625 354.825195312 122.869140625 354.825195312 122.869140625 413.087890625 c 128,-1,0
 122.869140625 471.400390625 122.869140625 471.400390625 181.15625 471.400390625 c 128,-1,1
174.962890625 98.787109375 m 128,-1,5
 198.512695312 98.849609375 198.512695312 98.849609375 217.55078125 82.7998046875 c 0,6,7
 258.788085938 41.587890625 258.788085938 41.587890625 217.55078125 0.349609375 c 2,8,-1
 102.42578125 -111.450195312 l 2,9,10
 61.2255859375 -152.674804688 61.2255859375 -152.674804688 20 -111.424804688 c 128,-1,11
 -21.2119140625 -70.212890625 -21.2119140625 -70.212890625 20 -29 c 2,12,-1
 135.125 82.7998046875 l 2,13,4
 151.5625 98.724609375 151.5625 98.724609375 174.962890625 98.787109375 c 128,-1,5
EndSplineSet
EndChar

StartChar: comma
Encoding: 44 44 24
Width: 300
VWidth: -20
Flags: W
LayerCount: 2
Fore
SplineSet
174.837890625 98.4375 m 132,-1,1
 198.387695312 98.5 198.387695312 98.5 217.424804688 82.4501953125 c 4,2,3
 258.662109375 41.2373046875 258.662109375 41.2373046875 217.424804688 0 c 6,4,-1
 102.299804688 -111.799804688 l 6,5,6
 61.099609375 -153.025390625 61.099609375 -153.025390625 19.875 -111.775390625 c 132,-1,7
 -21.337890625 -70.5625 -21.337890625 -70.5625 19.875 -29.349609375 c 6,8,-1
 135 82.4501953125 l 6,9,0
 151.4375 98.375 151.4375 98.375 174.837890625 98.4375 c 132,-1,1
EndSplineSet
EndChar

StartChar: period
Encoding: 46 46 25
Width: 300
VWidth: -4
Flags: W
LayerCount: 2
Fore
SplineSet
149.987304688 116.5625 m 128,-1,1
 208.275390625 116.587890625 208.275390625 116.587890625 208.299804688 58.287109375 c 128,-1,2
 208.275390625 -0.025390625 208.275390625 -0.025390625 149.987304688 0 c 128,-1,3
 91.7001953125 0 91.7001953125 0 91.7001953125 58.287109375 c 128,-1,0
 91.7001953125 116.5625 91.7001953125 116.5625 149.987304688 116.5625 c 128,-1,1
EndSplineSet
EndChar

StartChar: slash
Encoding: 47 47 26
Width: 700
VWidth: 79
Flags: W
LayerCount: 2
Fore
SplineSet
530.768554688 799.982421875 m 2,0,-1
 532.318359375 800.006835938 l 2,1,2
 588.700195312 800.006835938 588.700195312 800.006835938 588.700195312 743.637695312 c 0,3,4
 588.700195312 729.166992188 588.700195312 729.166992188 581.724609375 716.48828125 c 2,5,-1
 217.958984375 30.6982421875 l 2,6,7
 202.290039062 -0.1806640625 202.290039062 -0.1806640625 167.681640625 -0.1806640625 c 0,8,9
 111.299804688 -0.1806640625 111.299804688 -0.1806640625 111.299804688 56.1884765625 c 0,10,11
 111.299804688 70.79296875 111.299804688 70.79296875 118.396484375 83.5322265625 c 2,12,-1
 482.162109375 769.321289062 l 2,13,14
 497.395507812 799.0625 497.395507812 799.0625 530.768554688 799.982421875 c 2,0,-1
EndSplineSet
Validated: 1
EndChar

StartChar: zero
Encoding: 48 48 27
Width: 700
VWidth: 0
Flags: W
LayerCount: 2
Fore
SplineSet
298.494140625 795.365234375 m 2,0,-1
 401.612304688 795.365234375 l 2,1,2
 490.402613459 795.365234375 490.402613459 795.365234375 547.475585938 709.513671875 c 0,3,4
 599 630 599 630 599.049804688 492.72265625 c 2,5,-1
 599.049804688 306.9921875 l 2,6,7
 599.486328125 171.422851562 599.486328125 171.422851562 547.739257812 88.513671875 c 0,8,9
 492.494140625 0 492.494140625 0 401.612304688 0 c 2,10,-1
 298.494140625 0 l 2,11,12
 207.536314883 0 207.536314883 0 152.26171875 88.513671875 c 0,13,14
 101 171 101 171 100.951171875 306.9921875 c 2,15,-1
 100.951171875 492.72265625 l 2,16,17
 100.501953125 628.607421875 100.501953125 628.607421875 152.525390625 709.513671875 c 0,18,19
 207.728515625 795.365234375 207.728515625 795.365234375 298.494140625 795.365234375 c 2,0,-1
298.494140625 704.451171875 m 2,20,21
 261.829101562 704.451171875 261.829101562 704.451171875 229.25390625 660.603515625 c 0,22,23
 191.865234375 610.497070312 191.865234375 610.497070312 191.865234375 492.72265625 c 2,24,-1
 191.865234375 306.9921875 l 2,25,26
 191.494140625 198 191.494140625 198 229.517578125 136.541992188 c 0,27,28
 257.5546875 90.900390625 257.5546875 90.900390625 298.494140625 90.900390625 c 2,29,-1
 401.612304688 90.900390625 l 2,30,31
 443.390607749 90.900390625 443.390607749 90.900390625 470.588867188 136.541992188 c 0,32,33
 508 199 508 199 508.135742188 306.9921875 c 2,34,-1
 508.135742188 492.72265625 l 2,35,36
 508.494140625 604 508.494140625 604 470.852539062 660.603515625 c 0,37,38
 442.494140625 704 442.494140625 704 401.612304688 704.451171875 c 2,39,-1
 298.494140625 704.451171875 l 2,20,21
EndSplineSet
EndChar

StartChar: one
Encoding: 49 49 28
Width: 700
VWidth: 79
Flags: W
LayerCount: 2
Fore
SplineSet
245.205078125 799 m 2,0,-1
 390 799 l 2,1,2
 435.279296875 799 435.279296875 799 435.45703125 753.556640625 c 2,3,-1
 435.45703125 39.5986328125 l 2,4,5
 435.470703125 -6.50390625 435.470703125 -6.50390625 390 -6.50390625 c 128,-1,6
 344.54296875 -6.50390625 344.54296875 -6.50390625 344.54296875 38.953125 c 0,7,-1
 344.556640625 708.099609375 l 1,8,-1
 245.205078125 708.099609375 l 2,9,10
 199.1015625 708.0859375 199.1015625 708.0859375 199.1015625 753.556640625 c 128,-1,11
 199.279296875 799 199.279296875 799 245.205078125 799 c 2,0,-1
EndSplineSet
Validated: 33
EndChar

StartChar: three
Encoding: 51 51 29
Width: 700
VWidth: 0
Flags: W
LayerCount: 2
Fore
SplineSet
423.418945312 800 m 2,0,1
 521.240234375 800.138671875 521.240234375 800.138671875 562.295898438 737.90625 c 0,2,3
 597.959960938 683.82421875 597.959960938 683.82421875 576.203125 605.315429688 c 0,4,5
 552.796875 520.848632812 552.796875 520.848632812 461.426757812 452.3671875 c 1,6,7
 521.932617188 419.840820312 521.932617188 419.840820312 548.463867188 384.491210938 c 0,8,9
 589.771484375 329.439453125 589.771484375 329.439453125 589.771484375 249.608398438 c 128,-1,10
 589.771484375 169.663085938 589.771484375 169.663085938 543.034179688 93.0068359375 c 0,11,12
 485.928710938 -0.64453125 485.928710938 -0.64453125 403.905273438 -0.64453125 c 2,13,-1
 154.673828125 -0.64453125 l 2,14,15
 110.619140625 -0.64453125 110.619140625 -0.64453125 110.619140625 42.79296875 c 128,-1,16
 110.619140625 86.2294921875 110.619140625 86.2294921875 154.055664062 86.2294921875 c 0,17,-1
 403.905273438 86.2294921875 l 2,18,19
 437.17578125 86.2041015625 437.17578125 86.2041015625 468.883789062 138.232421875 c 0,20,21
 502.91015625 194.001953125 502.91015625 194.001953125 502.91015625 249.608398438 c 0,22,23
 502.91015625 300.439453125 502.91015625 300.439453125 478.987304688 332.32421875 c 0,24,25
 445.729492188 376.642578125 445.729492188 376.642578125 358.856445312 403.325195312 c 0,26,27
 328.143554688 412.748046875 328.143554688 412.748046875 328.143554688 444.859375 c 0,28,29
 328.143554688 477.890625 328.143554688 477.890625 359.96484375 486.721679688 c 0,30,31
 461.0859375 514.927734375 461.0859375 514.927734375 492.5546875 628.469726562 c 0,32,33
 503.766601562 668.896484375 503.766601562 668.896484375 489.758789062 690.1484375 c 0,34,35
 474.540039062 713.202148438 474.540039062 713.202148438 423.5078125 713.138671875 c 2,36,-1
 154.333007812 712.798828125 l 2,37,38
 110.228515625 712.798828125 110.228515625 712.798828125 110.228515625 756.235351562 c 128,-1,39
 110.228515625 799.671875 110.228515625 799.671875 153.677734375 799.671875 c 0,40,-1
 423.418945312 800 l 2,0,1
EndSplineSet
Validated: 33
EndChar

StartChar: four
Encoding: 52 52 30
Width: 700
VWidth: 0
Flags: W
LayerCount: 2
Fore
SplineSet
444.7109375 800.717773438 m 2,0,1
 444.98046875 800.721679688 444.98046875 800.721679688 445.203125 800.721679688 c 0,2,3
 463.197265625 800.721679688 463.197265625 800.721679688 475.93359375 787.986328125 c 128,-1,4
 488.669921875 775.251953125 488.669921875 775.251953125 488.673828125 757.256835938 c 2,5,-1
 488.673828125 336.346679688 l 1,6,-1
 544.505859375 335.825195312 l 1,7,-1
 544.7109375 335.825195312 l 2,8,9
 562.70703125 335.825195312 562.70703125 335.825195312 575.4453125 323.087890625 c 128,-1,10
 588.181640625 310.3515625 588.181640625 310.3515625 588.181640625 292.353515625 c 128,-1,11
 588.181640625 274.356445312 588.181640625 274.356445312 575.4453125 261.620117188 c 128,-1,12
 562.708984375 248.8828125 562.708984375 248.8828125 544.7109375 248.8828125 c 0,13,14
 544.16015625 248.8828125 544.16015625 248.8828125 543.693359375 248.895507812 c 2,15,-1
 488.673828125 249.41015625 l 1,16,-1
 488.673828125 39.6640625 l 2,17,18
 488.6796875 39.259765625 488.6796875 39.259765625 488.6796875 38.9306640625 c 0,19,20
 488.6796875 20.93359375 488.6796875 20.93359375 475.94140625 8.1953125 c 128,-1,21
 463.205078125 -4.5419921875 463.205078125 -4.5419921875 445.20703125 -4.5419921875 c 128,-1,22
 427.2109375 -4.5419921875 427.2109375 -4.5419921875 414.474609375 8.1953125 c 128,-1,23
 401.736328125 20.9326171875 401.736328125 20.9326171875 401.736328125 38.9306640625 c 0,24,25
 401.736328125 39.310546875 401.736328125 39.310546875 401.7421875 39.6640625 c 2,26,-1
 401.7421875 250.224609375 l 1,27,-1
 155.5 252.525390625 l 2,28,29
 137.837890625 252.693359375 137.837890625 252.693359375 125.220703125 265.310546875 c 128,-1,30
 112.60546875 277.9296875 112.60546875 277.9296875 112.44140625 295.591796875 c 2,31,-1
 111.8203125 363.216796875 l 1,32,-1
 111.818359375 363.615234375 l 2,33,34
 111.818359375 374.505859375 111.818359375 374.505859375 116.953125 384.11328125 c 2,35,-1
 326.978515625 776.844726562 l 2,36,37
 331.998046875 786.23046875 331.998046875 786.23046875 343.083984375 792.959960938 c 128,-1,38
 354.169921875 799.689453125 354.169921875 799.689453125 364.814453125 799.811523438 c 2,39,-1
 444.7109375 800.717773438 l 2,0,1
401.73828125 713.291992188 m 1,40,-1
 391.5078125 713.170898438 l 1,41,-1
 198.853515625 352.904296875 l 1,42,-1
 198.978515625 339.049804688 l 1,43,-1
 401.73828125 337.154296875 l 1,44,-1
 401.73828125 713.291992188 l 1,40,-1
EndSplineSet
EndChar

StartChar: six
Encoding: 54 54 31
Width: 700
VWidth: 0
Flags: W
LayerCount: 2
Fore
SplineSet
349.685546875 800 m 5,0,-1
 540.374023438 800 l 6,1,2
 586.123046875 800.012695312 586.123046875 800.012695312 586.123046875 754.892578125 c 132,-1,3
 586.123046875 709.758789062 586.123046875 709.758789062 541.001953125 709.758789062 c 4,4,-1
 349.66015625 709.772460938 l 6,5,6
 303.165039062 709.772460938 303.165039062 709.772460938 253.268554688 664.390625 c 4,7,8
 204.091796875 619.649414062 204.091796875 619.649414062 204.091796875 577.0546875 c 6,9,-1
 204.091796875 481.893554688 l 5,10,-1
 349.3984375 482.770507812 l 5,11,-1
 349.685546875 482.770507812 l 6,12,13
 421.501953125 482.692382812 421.501953125 482.692382812 465.287109375 469.645507812 c 4,14,15
 517.225585938 454.177734375 517.225585938 454.177734375 545.477539062 417.118164062 c 4,16,17
 584.5390625 365.88671875 584.5390625 365.88671875 585.494140625 221.758789062 c 4,18,-1
 585.494140625 221.497070312 l 6,19,20
 585.494140625 117.803710938 585.494140625 117.803710938 524.775390625 58.8251953125 c 4,21,22
 463.180664062 -1.0166015625 463.180664062 -1.0166015625 350.837890625 -1.3701171875 c 4,23,24
 233.45703125 -5.962890625 233.45703125 -5.962890625 171.141601562 58.119140625 c 4,25,26
 114.086914062 116.76953125 114.086914062 116.76953125 113.876953125 221.313476562 c 4,27,-1
 113.876953125 221.405273438 l 5,28,-1
 113.876953125 577.0546875 l 6,29,30
 113.876953125 659.522460938 113.876953125 659.522460938 192.549804688 731.088867188 c 4,31,32
 268.3046875 800 268.3046875 800 349.685546875 800 c 5,0,-1
349.581054688 392.530273438 m 6,33,-1
 204.091796875 391.561523438 l 5,34,-1
 204.091796875 221.405273438 l 6,35,36
 204.288085938 153.462890625 204.288085938 153.462890625 235.837890625 121.036132812 c 4,37,38
 270.372070312 85.5078125 270.372070312 85.5078125 347.828125 88.7001953125 c 4,39,-1
 349.685546875 88.7001953125 l 6,40,41
 426.133789062 88.7001953125 426.133789062 88.7001953125 461.9375 123.49609375 c 4,42,43
 495.188476562 155.818359375 495.188476562 155.818359375 495.25390625 221.235351562 c 4,44,45
 494.495117188 335.213867188 494.495117188 335.213867188 473.740234375 362.392578125 c 4,46,47
 463.28515625 376.1328125 463.28515625 376.1328125 439.560546875 383.19921875 c 4,48,49
 408.416015625 392.477539062 408.416015625 392.477539062 349.581054688 392.530273438 c 6,33,-1
EndSplineSet
Validated: 33
EndChar

StartChar: five
Encoding: 53 53 32
Width: 700
VWidth: 0
Flags: W
LayerCount: 2
Fore
SplineSet
159.265625 800 m 1,0,-1
 540.734375 800 l 2,1,2
 586.49609375 800 586.49609375 800 586.49609375 754.879882812 c 128,-1,3
 586.49609375 709.759765625 586.49609375 709.759765625 541.375 709.759765625 c 0,4,-1
 204.373046875 709.759765625 l 1,5,-1
 204.373046875 554.495117188 l 1,6,-1
 204.373046875 553.788085938 l 2,7,8
 204.01953125 531.057617188 204.01953125 531.057617188 210.458984375 524.790039062 c 0,9,10
 220.037109375 515.51171875 220.037109375 515.51171875 255.1328125 515.106445312 c 0,11,-1
 255.408203125 515.106445312 l 2,12,13
 287.53515625 514.569335938 287.53515625 514.569335938 322.998046875 513.509765625 c 128,-1,14
 358.447265625 512.450195312 358.447265625 512.450195312 389.263671875 511.926757812 c 0,15,16
 474.099609375 511.926757812 474.099609375 511.926757812 527.87109375 453.065429688 c 0,17,18
 585.853515625 389.573242188 585.853515625 389.573242188 585.853515625 275.672851562 c 0,19,20
 585.853515625 155.87109375 585.853515625 155.87109375 541.703125 83.8330078125 c 0,21,22
 488.12890625 -3.5810546875 488.12890625 -3.5810546875 386.974609375 -1.4609375 c 2,23,-1
 159.265625 -1.4609375 l 2,24,25
 113.50390625 -1.4609375 113.50390625 -1.4609375 113.50390625 43.6591796875 c 128,-1,26
 113.50390625 88.779296875 113.50390625 88.779296875 158.625 88.779296875 c 0,27,-1
 387.943359375 88.779296875 l 1,28,-1
 388.91015625 88.779296875 l 2,29,30
 438.271484375 87.732421875 438.271484375 87.732421875 464.783203125 130.981445312 c 0,31,32
 495.626953125 181.3359375 495.626953125 181.3359375 495.626953125 275.672851562 c 0,33,34
 495.626953125 354.515625 495.626953125 354.515625 461.25 392.176757812 c 0,35,36
 434.279296875 421.69921875 434.279296875 421.69921875 389.263671875 421.69921875 c 0,37,-1
 388.466796875 421.69921875 l 2,38,39
 356.326171875 422.235351562 356.326171875 422.235351562 320.837890625 423.282226562 c 128,-1,40
 285.3359375 424.341796875 285.3359375 424.341796875 253.904296875 424.865234375 c 0,41,42
 182.912109375 425.729492188 182.912109375 425.729492188 147.541015625 460.119140625 c 0,43,44
 113.203125 493.514648438 113.203125 493.514648438 114.146484375 555.201171875 c 2,45,-1
 114.146484375 754.879882812 l 2,46,47
 114.146484375 799.973632812 114.146484375 799.973632812 159.265625 800 c 1,0,-1
EndSplineSet
Validated: 33
EndChar

StartChar: seven
Encoding: 55 55 33
Width: 700
VWidth: 0
Flags: W
LayerCount: 2
Fore
SplineSet
160.400390625 800 m 2,0,-1
 540.322265625 800 l 2,1,2
 586.384765625 799.93359375 586.384765625 799.93359375 586.384765625 753.870117188 c 0,3,4
 586.384765625 743.688476562 586.384765625 743.688476562 582.130859375 734.497070312 c 2,5,-1
 251.671875 20.8662109375 l 2,6,7
 239.255859375 -5.8515625 239.255859375 -5.8515625 209.822265625 -5.8515625 c 0,8,9
 163.6796875 -5.8515625 163.6796875 -5.8515625 163.6796875 40.279296875 c 0,10,11
 163.6796875 50.447265625 163.6796875 50.447265625 167.97265625 59.69140625 c 2,12,-1
 468.076171875 707.739257812 l 1,13,-1
 160.400390625 707.739257812 l 2,14,15
 113.615234375 707.739257812 113.615234375 707.739257812 113.615234375 753.870117188 c 128,-1,16
 113.615234375 800 113.615234375 800 160.400390625 800 c 2,0,-1
EndSplineSet
Validated: 1
EndChar

StartChar: eight
Encoding: 56 56 34
Width: 700
VWidth: 0
Flags: W
LayerCount: 2
Fore
SplineSet
350 800 m 132,-1,1
 445.338867188 800 445.338867188 800 513.852539062 736.15234375 c 132,-1,2
 582.353515625 672.305664062 582.353515625 672.305664062 582.2890625 583.772460938 c 4,3,4
 582.172851562 471.765625 582.172851562 471.765625 475.954101562 402.427734375 c 5,5,6
 513.762695312 374.428710938 513.762695312 374.428710938 516.495117188 371.438476562 c 4,7,8
 582.2890625 299.328125 582.2890625 299.328125 582.2890625 217.626953125 c 4,9,10
 582.2890625 136.26171875 582.2890625 136.26171875 514.587890625 67.708984375 c 4,11,12
 443.49609375 -4.2587890625 443.49609375 -4.2587890625 350 -4.2587890625 c 132,-1,13
 256.50390625 -4.2587890625 256.50390625 -4.2587890625 185.412109375 67.708984375 c 4,14,15
 117.7109375 136.26171875 117.7109375 136.26171875 117.7109375 217.626953125 c 4,16,17
 117.7109375 299.211914062 117.7109375 299.211914062 183.943359375 371.528320312 c 4,18,19
 186.45703125 374.274414062 186.45703125 374.274414062 224.135742188 402.259765625 c 5,20,21
 117.7109375 471.546875 117.7109375 471.546875 117.7109375 583.849609375 c 4,22,23
 117.7109375 672.370117188 117.7109375 672.370117188 186.19921875 736.19140625 c 132,-1,0
 254.673828125 800 254.673828125 800 350 800 c 132,-1,1
350 711.106445312 m 132,-1,25
 290.921875 711.106445312 290.921875 711.106445312 248.756835938 671.892578125 c 132,-1,26
 206.591796875 632.6796875 206.591796875 632.6796875 206.591796875 583.849609375 c 4,27,28
 206.591796875 533.912109375 206.591796875 533.912109375 248.833984375 491.862304688 c 132,-1,29
 291.08984375 449.826171875 291.08984375 449.826171875 350 449.826171875 c 4,30,31
 408.072265625 449.826171875 408.072265625 449.826171875 450.727539062 492.068359375 c 132,-1,32
 493.369140625 534.298828125 493.369140625 534.298828125 493.408203125 583.849609375 c 4,33,34
 493.43359375 632.640625 493.43359375 632.640625 451.255859375 671.879882812 c 132,-1,24
 409.064453125 711.106445312 409.064453125 711.106445312 350 711.106445312 c 132,-1,25
350 360.932617188 m 4,35,36
 294.802734375 360.932617188 294.802734375 360.932617188 249.478515625 311.458007812 c 4,37,38
 206.591796875 264.639648438 206.591796875 264.639648438 206.591796875 217.626953125 c 4,39,40
 206.591796875 172.729492188 206.591796875 172.729492188 248.692382812 130.125976562 c 4,41,42
 293.62890625 84.634765625 293.62890625 84.634765625 350 84.634765625 c 132,-1,43
 406.448242188 84.634765625 406.448242188 84.634765625 451.384765625 130.125976562 c 4,44,45
 493.408203125 172.65234375 493.408203125 172.65234375 493.408203125 217.626953125 c 4,46,47
 493.408203125 264.922851562 493.408203125 264.922851562 450.869140625 311.548828125 c 4,48,49
 405.81640625 360.932617188 405.81640625 360.932617188 350 360.932617188 c 4,35,36
EndSplineSet
Validated: 33
EndChar

StartChar: nine
Encoding: 57 57 35
Width: 700
VWidth: 0
Flags: W
LayerCount: 2
Fore
SplineSet
349.521484375 800 m 0,0,1
 466.484375 804.461914062 466.484375 804.461914062 528.759765625 740.432617188 c 0,2,3
 585.90625 681.6640625 585.90625 681.6640625 586.12890625 577.31640625 c 0,4,-1
 586.12890625 577.146484375 l 1,5,-1
 586.12890625 219.376953125 l 2,6,7
 586.12890625 137.275390625 586.12890625 137.275390625 516.341796875 67.802734375 c 0,8,9
 446.830078125 -1.3701171875 446.830078125 -1.3701171875 365.212890625 -1.3701171875 c 2,10,-1
 159.619140625 -1.3701171875 l 2,11,12
 113.87109375 -1.3828125 113.87109375 -1.3828125 113.87109375 43.75 c 128,-1,13
 113.87109375 88.87109375 113.87109375 88.87109375 158.990234375 88.87109375 c 0,14,-1
 365.212890625 88.857421875 l 2,15,16
 409.49609375 88.857421875 409.49609375 88.857421875 452.626953125 131.779296875 c 128,-1,17
 495.888671875 174.83203125 495.888671875 174.83203125 495.888671875 219.376953125 c 2,18,-1
 495.888671875 343.797851562 l 1,19,-1
 350.58203125 342.920898438 l 1,20,-1
 350.216796875 342.920898438 l 2,21,22
 211.623046875 343.051757812 211.623046875 343.051757812 153.01171875 427.862304688 c 0,23,24
 115.11328125 482.705078125 115.11328125 482.705078125 114.498046875 576.79296875 c 0,25,-1
 114.498046875 577.0546875 l 2,26,27
 114.498046875 680.826171875 114.498046875 680.826171875 175.216796875 739.817382812 c 0,28,29
 236.892578125 799.750976562 236.892578125 799.750976562 349.521484375 800 c 0,0,1
352.166015625 709.942382812 m 0,30,31
 273.767578125 709.850585938 273.767578125 709.850585938 238.04296875 675.133789062 c 0,32,33
 204.791015625 642.82421875 204.791015625 642.82421875 204.740234375 577.224609375 c 0,34,35
 205.197265625 510.983398438 205.197265625 510.983398438 227.208984375 479.159179688 c 0,36,37
 258.916015625 433.252929688 258.916015625 433.252929688 350.306640625 433.1484375 c 2,38,-1
 495.888671875 434.1171875 l 1,39,-1
 495.888671875 577.0546875 l 2,40,41
 495.71875 644.997070312 495.71875 644.997070312 464.076171875 677.515625 c 0,42,43
 429.42578125 713.135742188 429.42578125 713.135742188 352.166015625 709.942382812 c 0,30,31
EndSplineSet
Validated: 33
EndChar

StartChar: colon
Encoding: 58 58 36
Width: 394
VWidth: 77
Flags: W
LayerCount: 2
Fore
SplineSet
196.981445312 608.401367188 m 128,-1,1
 260.685546875 608.401367188 260.685546875 608.401367188 260.685546875 544.734375 c 128,-1,2
 260.647460938 481.048828125 260.647460938 481.048828125 197 481.048828125 c 128,-1,3
 133.314453125 481.048828125 133.314453125 481.048828125 133.314453125 544.715820312 c 128,-1,0
 133.314453125 608.401367188 133.314453125 608.401367188 196.981445312 608.401367188 c 128,-1,1
196.981445312 292.037109375 m 128,-1,5
 260.647460938 292.037109375 260.647460938 292.037109375 260.685546875 228.37109375 c 128,-1,6
 260.647460938 164.704101562 260.647460938 164.704101562 197 164.704101562 c 128,-1,7
 133.314453125 164.704101562 133.314453125 164.704101562 133.314453125 228.37109375 c 128,-1,4
 133.314453125 292.037109375 133.314453125 292.037109375 196.981445312 292.037109375 c 128,-1,5
EndSplineSet
Validated: 1
EndChar

StartChar: equal
Encoding: 61 61 37
Width: 700
VWidth: 0
Flags: W
LayerCount: 2
Fore
SplineSet
148.602539062 538.45703125 m 6,0,-1
 544.823242188 538.45703125 l 6,1,2
 590.92578125 538.469726562 590.92578125 538.469726562 590.92578125 493 c 132,-1,3
 590.92578125 447.54296875 590.92578125 447.54296875 545.46875 447.54296875 c 4,4,-1
 148.602539062 447.555664062 l 6,5,6
 102.5 447.54296875 102.5 447.54296875 102.5 493 c 132,-1,7
 102.5 538.469726562 102.5 538.469726562 148.602539062 538.45703125 c 6,0,-1
148.602539062 308.244140625 m 6,8,-1
 544.823242188 308.244140625 l 6,9,10
 590.92578125 308.244140625 590.92578125 308.244140625 590.92578125 262.787109375 c 132,-1,11
 590.92578125 217.330078125 590.92578125 217.330078125 545.46875 217.330078125 c 4,12,-1
 148.602539062 217.330078125 l 6,13,14
 102.5 217.330078125 102.5 217.330078125 102.5 262.787109375 c 132,-1,15
 102.5 308.244140625 102.5 308.244140625 148.602539062 308.244140625 c 6,8,-1
EndSplineSet
Validated: 33
EndChar

StartChar: percent
Encoding: 37 37 38
Width: 700
VWidth: 0
Flags: W
LayerCount: 2
Fore
SplineSet
562.0625 803 m 0,0,1
 612.274414062 803.013671875 612.274414062 803.013671875 612.274414062 754.189453125 c 0,2,3
 612.274414062 741.7578125 612.274414062 741.7578125 606.3125 730.811523438 c 2,4,-1
 181.990234375 -71.6875 l 2,5,6
 168.211914062 -97.69921875 168.211914062 -97.69921875 138.80078125 -97.69921875 c 0,7,8
 89.9345703125 -97.69921875 89.9345703125 -97.69921875 89.9345703125 -48.8466796875 c 0,9,10
 89.9345703125 -36.7109375 89.9345703125 -36.7109375 95.5986328125 -26.0205078125 c 2,11,-1
 520.021484375 776.392578125 l 2,12,13
 533.162109375 802.150390625 533.162109375 802.150390625 562.0625 803 c 0,0,1
210.494140625 763.421875 m 128,-1,15
 345.80859375 763.421875 345.80859375 763.421875 345.80859375 628.122070312 c 128,-1,16
 345.80859375 492.90625 345.80859375 492.90625 210.494140625 492.90625 c 128,-1,17
 75.279296875 492.90625 75.279296875 492.90625 75.279296875 628.122070312 c 128,-1,14
 75.279296875 763.421875 75.279296875 763.421875 210.494140625 763.421875 c 128,-1,15
210.494140625 699.9140625 m 128,-1,19
 138.702148438 699.9140625 138.702148438 699.9140625 138.702148438 628.122070312 c 128,-1,20
 138.702148438 556.415039062 138.702148438 556.415039062 210.494140625 556.415039062 c 128,-1,21
 282.30078125 556.415039062 282.30078125 556.415039062 282.30078125 628.122070312 c 128,-1,18
 282.30078125 699.9140625 282.30078125 699.9140625 210.494140625 699.9140625 c 128,-1,19
489.505859375 212.365234375 m 128,-1,23
 624.720703125 212.365234375 624.720703125 212.365234375 624.720703125 77.1640625 c 128,-1,24
 624.720703125 -58.05078125 624.720703125 -58.05078125 489.505859375 -58.05078125 c 128,-1,25
 354.19140625 -58.05078125 354.19140625 -58.05078125 354.19140625 77.1640625 c 128,-1,22
 354.19140625 212.365234375 354.19140625 212.365234375 489.505859375 212.365234375 c 128,-1,23
489.505859375 148.95703125 m 128,-1,27
 417.69921875 148.95703125 417.69921875 148.95703125 417.69921875 77.1640625 c 128,-1,28
 417.69921875 5.3583984375 417.69921875 5.3583984375 489.505859375 5.3583984375 c 128,-1,29
 561.212890625 5.3583984375 561.212890625 5.3583984375 561.212890625 77.1640625 c 128,-1,26
 561.212890625 148.95703125 561.212890625 148.95703125 489.505859375 148.95703125 c 128,-1,27
EndSplineSet
Validated: 33
EndChar

StartChar: question
Encoding: 63 63 39
Width: 1000
VWidth: 0
LayerCount: 2
Fore
SplineSet
634.400390625 473.349609375 m 128,-1,1
 637.767578125 473.351377856 637.767578125 473.351377856 637.767578125 469.984375 c 128,-1,2
 637.767578125 466.616395582 637.767578125 466.616395582 634.400390625 466.618164062 c 128,-1,3
 631.03515625 466.618164062 631.03515625 466.618164062 631.03515625 469.984375 c 128,-1,0
 631.03515625 473.349609375 631.03515625 473.349609375 634.400390625 473.349609375 c 128,-1,1
592.584960938 473.359375 m 128,-1,5
 593.955080825 473.362503128 593.955080825 473.362503128 595.0625 472.428710938 c 0,6,7
 597.462706259 470.030273438 597.462706259 470.030273438 595.0625 467.631835938 c 2,8,-1
 588.364257812 461.125976562 l 2,9,10
 585.965912821 458.727631571 585.965912821 458.727631571 583.568359375 461.126953125 c 128,-1,11
 581.171689331 463.525390625 581.171689331 463.525390625 583.568359375 465.923828125 c 2,12,-1
 590.266601562 472.428710938 l 2,13,4
 591.223553274 473.356263211 591.223553274 473.356263211 592.584960938 473.359375 c 128,-1,5
EndSplineSet
Validated: 1
EndChar

StartChar: a
Encoding: 97 97 40
Width: 394
VWidth: 0
Flags: W
LayerCount: 2
Fore
SplineSet
146.288085938 499.555664062 m 0,0,1
 212.4375 499.443359375 212.4375 499.443359375 244.883789062 492.015625 c 0,2,3
 276.266601562 484.83203125 276.266601562 484.83203125 307.302734375 456.801757812 c 0,4,-1
 307.310546875 456.793945312 l 2,5,6
 344.62890625 423.069335938 344.62890625 423.069335938 344.590820312 350.701171875 c 2,7,-1
 344.421875 29.6904296875 l 1,8,-1
 344.423828125 29.2978515625 l 2,9,10
 344.423828125 22.1162109375 344.423828125 22.1162109375 340.904296875 15.6298828125 c 128,-1,11
 337.385742188 9.1435546875 337.385742188 9.1435546875 331.330078125 4.9267578125 c 128,-1,12
 325.2734375 0.708984375 325.2734375 0.708984375 318.13671875 -0.0869140625 c 0,13,14
 314.403320312 -1.08203125 314.403320312 -1.08203125 310.533203125 -1.08203125 c 0,15,16
 287.904296875 -1.080078125 287.904296875 -1.080078125 245.524414062 -1.8740234375 c 128,-1,17
 203.145507812 -2.66796875 203.145507812 -2.66796875 184.88671875 -2.4296875 c 128,-1,18
 166.626953125 -2.1923828125 166.626953125 -2.1923828125 141.573242188 0.921875 c 128,-1,19
 116.51953125 4.037109375 116.51953125 4.037109375 98.3046875 10.953125 c 0,20,21
 56.888671875 26.677734375 56.888671875 26.677734375 39.67578125 67.4521484375 c 0,22,23
 25 102.219726562 25 102.219726562 25 167.486328125 c 0,24,25
 25 227.40625 25 227.40625 68.001953125 260.305664062 c 0,26,27
 103.373046875 287.368164062 103.373046875 287.368164062 156.840820312 287.436523438 c 0,28,-1
 285.432617188 287.57421875 l 1,29,-1
 285.466796875 350.73046875 l 2,30,31
 285.4765625 368.551757812 285.4765625 368.551757812 280.997070312 384.055664062 c 128,-1,32
 276.518554688 399.559570312 276.518554688 399.559570312 272.979492188 405.440429688 c 128,-1,33
 269.440429688 411.322265625 269.440429688 411.322265625 267.668945312 412.921875 c 0,34,35
 265.614257812 414.778320312 265.614257812 414.778320312 261.353515625 418.744140625 c 128,-1,36
 257.092773438 422.7109375 257.092773438 422.7109375 255.931640625 423.645507812 c 128,-1,37
 254.770507812 424.579101562 254.770507812 424.579101562 251.705078125 426.86328125 c 128,-1,38
 248.639648438 429.147460938 248.639648438 429.147460938 246.374023438 429.94921875 c 128,-1,39
 244.108398438 430.75 244.108398438 430.75 240.412109375 431.987304688 c 128,-1,40
 236.716796875 433.224609375 236.716796875 433.224609375 231.694335938 434.374023438 c 0,41,42
 198.213867188 442.036132812 198.213867188 442.036132812 95.2607421875 439.834960938 c 0,43,44
 94.720703125 439.81640625 94.720703125 439.81640625 94.23046875 439.81640625 c 0,45,46
 81.9892578125 439.81640625 81.9892578125 439.81640625 73.326171875 448.48046875 c 128,-1,47
 64.6630859375 457.143554688 64.6630859375 457.143554688 64.6630859375 469.384765625 c 128,-1,48
 64.6630859375 481.529296875 64.6630859375 481.529296875 73.2578125 490.192382812 c 128,-1,49
 81.8525390625 498.85546875 81.8525390625 498.85546875 93.9970703125 498.951171875 c 0,50,51
 123.995117188 499.59375 123.995117188 499.59375 146.288085938 499.555664062 c 0,0,1
285.399414062 228.444335938 m 1,52,-1
 156.916015625 228.30859375 l 2,53,54
 123.434570312 228.265625 123.434570312 228.265625 103.935546875 213.346679688 c 0,55,56
 84.1357421875 198.198242188 84.1357421875 198.198242188 84.1357421875 167.490234375 c 0,57,58
 84.1357421875 114.1875 84.1357421875 114.1875 94.1552734375 90.4521484375 c 0,59,60
 98.58984375 79.947265625 98.58984375 79.947265625 103.71875 75.076171875 c 128,-1,61
 108.84765625 70.2041015625 108.84765625 70.2041015625 119.298828125 66.236328125 c 0,62,63
 142.390625 57.46875 142.390625 57.46875 265.56640625 57.9404296875 c 0,64,65
 278.543945312 57.990234375 278.543945312 57.990234375 285.309570312 58.0107421875 c 1,66,-1
 285.399414062 228.444335938 l 1,52,-1
EndSplineSet
EndChar

StartChar: backslash
Encoding: 92 92 41
Width: 700
VWidth: 79
Flags: W
LayerCount: 2
Fore
SplineSet
169.231445312 799.982421875 m 2,0,1
 202.604492188 799.0625 202.604492188 799.0625 217.837890625 769.321289062 c 2,2,-1
 581.603515625 83.5322265625 l 2,3,4
 588.700195312 70.79296875 588.700195312 70.79296875 588.700195312 56.1884765625 c 0,5,6
 588.700195312 -0.1806640625 588.700195312 -0.1806640625 532.318359375 -0.1806640625 c 0,7,8
 497.709960938 -0.1806640625 497.709960938 -0.1806640625 482.041015625 30.6982421875 c 2,9,-1
 118.275390625 716.48828125 l 2,10,11
 111.299804688 729.166992188 111.299804688 729.166992188 111.299804688 743.637695312 c 0,12,13
 111.299804688 800.006835938 111.299804688 800.006835938 167.681640625 800.006835938 c 2,14,-1
 169.231445312 799.982421875 l 2,0,1
EndSplineSet
EndChar

StartChar: Utilde
Encoding: 360 360 42
Width: 395
VWidth: 0
Flags: W
LayerCount: 2
Fore
SplineSet
54.4501953125 502.107421875 m 1,0,-1
 54.8984375 502.110351562 l 2,1,2
 67.2783203125 502.110351562 67.2783203125 502.110351562 76.041015625 493.348632812 c 128,-1,3
 84.802734375 484.5859375 84.802734375 484.5859375 84.802734375 472.206054688 c 0,4,-1
 84.7998046875 152.551757812 l 2,5,6
 85.0517578125 106.645507812 85.0517578125 106.645507812 105.793945312 84.041015625 c 0,7,8
 129.53125 58.1708984375 129.53125 58.1708984375 185.001953125 58.1708984375 c 128,-1,9
 240.650390625 58.1708984375 240.650390625 58.1708984375 264.7890625 84.353515625 c 0,10,11
 285.861328125 107.208007812 285.861328125 107.208007812 285.206054688 151.951171875 c 0,12,-1
 285.203125 471.784179688 l 2,13,14
 285.200195312 484.610351562 285.200195312 484.610351562 293.961914062 493.373046875 c 128,-1,15
 302.724609375 502.134765625 302.724609375 502.134765625 315.104492188 502.134765625 c 128,-1,16
 327.485351562 502.134765625 327.485351562 502.134765625 336.247070312 493.373046875 c 128,-1,17
 345.009765625 484.610351562 345.009765625 484.610351562 345.009765625 472.23046875 c 0,18,-1
 345.005859375 152.389648438 l 1,19,-1
 345.005859375 152.828125 l 2,20,21
 346.012695312 84.2236328125 346.012695312 84.2236328125 308.7578125 43.8154296875 c 0,22,23
 266.858398438 -1.6318359375 266.858398438 -1.6318359375 185.00390625 -1.6318359375 c 128,-1,24
 103.244140625 -1.6318359375 103.244140625 -1.6318359375 61.7314453125 43.6064453125 c 0,25,26
 25.3779296875 83.2236328125 25.3779296875 83.2236328125 25 152.224609375 c 0,27,-1
 25 471.784179688 l 2,28,29
 24.99609375 484.401367188 24.99609375 484.401367188 33.6259765625 493.162109375 c 128,-1,30
 42.2568359375 501.923828125 42.2568359375 501.923828125 54.4501953125 502.107421875 c 1,0,-1
EndSplineSet
EndChar

StartChar: b
Encoding: 98 98 43
Width: 394
VWidth: 0
Flags: W
LayerCount: 2
Fore
SplineSet
55.029296875 701.877929688 m 1,0,1
 67.091796875 701.697265625 67.091796875 701.697265625 75.62890625 693.032226562 c 128,-1,2
 84.1650390625 684.366210938 84.1650390625 684.366210938 84.162109375 671.87890625 c 2,3,-1
 84.162109375 499.779296875 l 1,4,5
 170.165039062 500.369140625 170.165039062 500.369140625 189.55859375 498.848632812 c 0,6,7
 243.728515625 494.599609375 243.728515625 494.599609375 282.025390625 468.079101562 c 0,8,9
 325.94140625 437.66796875 325.94140625 437.66796875 338.78125 352.834960938 c 0,10,11
 344.833984375 312.849609375 344.833984375 312.849609375 344.94140625 234.6015625 c 0,12,13
 345.034179688 174.779296875 345.034179688 174.779296875 332.782226562 120.545898438 c 0,14,15
 324.36328125 83.2783203125 324.36328125 83.2783203125 312.973632812 59.6376953125 c 128,-1,16
 301.583984375 35.998046875 301.583984375 35.998046875 277.565429688 22.4970703125 c 0,17,18
 267.001953125 16.55859375 267.001953125 16.55859375 256.361328125 12.349609375 c 128,-1,19
 245.720703125 8.140625 245.720703125 8.140625 230.805664062 5.541015625 c 128,-1,20
 215.891601562 2.94140625 215.891601562 2.94140625 205.955078125 1.4365234375 c 128,-1,21
 196.018554688 -0.068359375 196.018554688 -0.068359375 174.220703125 -0.6318359375 c 128,-1,22
 152.422851562 -1.1943359375 152.422851562 -1.1943359375 141.5 -1.2958984375 c 128,-1,23
 130.576171875 -1.396484375 130.576171875 -1.396484375 100.204101562 -1.224609375 c 128,-1,24
 69.83203125 -1.052734375 69.83203125 -1.052734375 55.3876953125 -1.052734375 c 0,25,26
 52.6728515625 -1.0478515625 52.6728515625 -1.0478515625 49.3076171875 -0.23046875 c 128,-1,27
 45.94140625 0.587890625 45.94140625 0.587890625 42.7744140625 1.990234375 c 128,-1,28
 39.607421875 3.3935546875 39.607421875 3.3935546875 37.4521484375 5.0439453125 c 0,29,30
 36.875 5.466796875 36.875 5.466796875 36.3291015625 5.91015625 c 0,31,32
 25.0263671875 14.7734375 25.0263671875 14.7734375 25.0029296875 29.138671875 c 2,33,-1
 25 672.297851562 l 0,34,35
 25 684.54296875 25 684.54296875 33.6669921875 693.208984375 c 128,-1,36
 42.3330078125 701.875 42.3330078125 701.875 54.578125 701.875 c 2,37,-1
 55.029296875 701.877929688 l 1,0,1
135.529296875 440.93359375 m 0,38,39
 133.0703125 440.918945312 133.0703125 440.918945312 114.057617188 440.793945312 c 128,-1,40
 95.0458984375 440.668945312 95.0458984375 440.668945312 84.1630859375 440.612304688 c 1,41,-1
 84.1630859375 58.201171875 l 1,42,43
 161.388671875 58.3203125 161.388671875 58.3203125 196.045898438 61.1552734375 c 128,-1,44
 230.704101562 63.990234375 230.704101562 63.990234375 248.595703125 74.0517578125 c 0,45,46
 250.650390625 75.20703125 250.650390625 75.20703125 255.225585938 82.5712890625 c 128,-1,47
 259.80078125 89.9345703125 259.80078125 89.9345703125 265.71875 104.161132812 c 128,-1,48
 271.63671875 118.388671875 271.63671875 118.388671875 275.065429688 133.567382812 c 0,49,50
 285.869140625 181.3984375 285.869140625 181.3984375 285.78125 234.50390625 c 0,51,52
 285.66015625 308.483398438 285.66015625 308.483398438 280.294921875 343.974609375 c 0,53,54
 271.276367188 403.551757812 271.276367188 403.551757812 248.338867188 419.436523438 c 0,55,56
 223.208007812 436.840820312 223.208007812 436.840820312 184.94140625 439.842773438 c 0,57,58
 168.475585938 441.133789062 168.475585938 441.133789062 135.529296875 440.93359375 c 0,38,39
EndSplineSet
EndChar

StartChar: c
Encoding: 99 99 44
Width: 391
VWidth: 0
Flags: W
LayerCount: 2
Fore
SplineSet
211.478515625 500.77734375 m 0,0,1
 225.389648438 500.924804688 225.389648438 500.924804688 257.926757812 500.352539062 c 128,-1,2
 290.46484375 499.780273438 290.46484375 499.780273438 310.1640625 499.80859375 c 0,3,4
 323.219726562 499.8125 323.219726562 499.8125 332.112304688 490.919921875 c 128,-1,5
 341.004882812 482.02734375 341.004882812 482.02734375 341.004882812 469.461914062 c 128,-1,6
 341.004882812 456.897460938 341.004882812 456.897460938 332.112304688 448.004882812 c 128,-1,7
 323.219726562 439.112304688 323.219726562 439.112304688 310.654296875 439.112304688 c 0,8,9
 289.756835938 439.0859375 289.756835938 439.0859375 260.813476562 439.53515625 c 128,-1,10
 231.87109375 439.984375 231.87109375 439.984375 220.7109375 440.047851562 c 128,-1,11
 209.549804688 440.110351562 209.549804688 440.110351562 188.784179688 439.297851562 c 0,12,13
 149.419921875 436.7421875 149.419921875 436.7421875 124.123046875 419.224609375 c 0,14,15
 100.43359375 402.817382812 100.43359375 402.817382812 91.3046875 344.96875 c 0,16,17
 85.8056640625 310.116210938 85.8056640625 310.116210938 85.701171875 236.190429688 c 0,18,-1
 85.701171875 236.184570312 l 2,19,20
 85.599609375 174.783203125 85.599609375 174.783203125 93.5498046875 134.83984375 c 0,21,22
 98.1044921875 111.961914062 98.1044921875 111.961914062 106.250976562 95.7490234375 c 128,-1,23
 114.3984375 79.537109375 114.3984375 79.537109375 121.6796875 75.54296875 c 0,24,25
 146.350585938 62.01171875 146.350585938 62.01171875 187.567382812 59.693359375 c 0,26,27
 198.350585938 59.0869140625 198.350585938 59.0869140625 310.022460938 59.7890625 c 0,28,29
 310.313476562 59.7958984375 310.313476562 59.7958984375 310.62109375 59.7958984375 c 0,30,31
 323.186523438 59.7958984375 323.186523438 59.7958984375 332.079101562 50.9033203125 c 128,-1,32
 340.971679688 42.009765625 340.971679688 42.009765625 340.971679688 29.4453125 c 128,-1,33
 340.971679688 16.880859375 340.971679688 16.880859375 332.079101562 7.98828125 c 128,-1,34
 323.186523438 -0.904296875 323.186523438 -0.904296875 310.62109375 -0.904296875 c 0,35,36
 196.844726562 -1.6181640625 196.844726562 -1.6181640625 184.150390625 -0.904296875 c 0,37,38
 129.20703125 2.1875 129.20703125 2.1875 92.4833984375 22.3291015625 c 0,39,40
 49.34375 45.9921875 49.34375 45.9921875 34.015625 122.993164062 c 0,41,42
 24.8896484375 168.834960938 24.8896484375 168.834960938 25.0009765625 236.270507812 c 0,43,44
 25.111328125 314.913085938 25.111328125 314.913085938 31.345703125 354.42578125 c 0,45,46
 44.5224609375 437.922851562 44.5224609375 437.922851562 89.5625 469.115234375 c 0,47,48
 128.694335938 496.213867188 128.694335938 496.213867188 184.846679688 499.859375 c 0,49,50
 196.703125 500.62890625 196.703125 500.62890625 211.478515625 500.77734375 c 0,0,1
EndSplineSet
EndChar

StartChar: d
Encoding: 100 100 45
Width: 394
VWidth: 0
Flags: W
LayerCount: 2
Fore
SplineSet
314.913085938 701.877929688 m 1,0,-1
 315.364257812 701.875 l 2,1,2
 327.609375 701.875 327.609375 701.875 336.275390625 693.208984375 c 128,-1,3
 344.942382812 684.54296875 344.942382812 684.54296875 344.942382812 672.297851562 c 0,4,-1
 344.939453125 29.138671875 l 2,5,6
 344.916015625 14.7734375 344.916015625 14.7734375 333.61328125 5.91015625 c 0,7,8
 333.067382812 5.466796875 333.067382812 5.466796875 332.490234375 5.0439453125 c 0,9,10
 330.334960938 3.3935546875 330.334960938 3.3935546875 327.16796875 1.990234375 c 128,-1,11
 324.000976562 0.587890625 324.000976562 0.587890625 320.634765625 -0.23046875 c 128,-1,12
 317.26953125 -1.0478515625 317.26953125 -1.0478515625 314.5546875 -1.052734375 c 0,13,14
 300.110351562 -1.052734375 300.110351562 -1.052734375 269.73828125 -1.224609375 c 128,-1,15
 239.366210938 -1.396484375 239.366210938 -1.396484375 228.442382812 -1.2958984375 c 128,-1,16
 217.51953125 -1.1943359375 217.51953125 -1.1943359375 195.721679688 -0.6318359375 c 128,-1,17
 173.923828125 -0.068359375 173.923828125 -0.068359375 163.987304688 1.4365234375 c 128,-1,18
 154.05078125 2.94140625 154.05078125 2.94140625 139.13671875 5.541015625 c 128,-1,19
 124.221679688 8.140625 124.221679688 8.140625 113.581054688 12.349609375 c 128,-1,20
 102.940429688 16.55859375 102.940429688 16.55859375 92.376953125 22.4970703125 c 0,21,22
 68.3583984375 35.998046875 68.3583984375 35.998046875 56.96875 59.6376953125 c 128,-1,23
 45.5791015625 83.2783203125 45.5791015625 83.2783203125 37.16015625 120.545898438 c 0,24,25
 24.908203125 174.779296875 24.908203125 174.779296875 25.0009765625 234.6015625 c 0,26,27
 25.1083984375 312.849609375 25.1083984375 312.849609375 31.1611328125 352.834960938 c 0,28,29
 44.0009765625 437.66796875 44.0009765625 437.66796875 87.9169921875 468.079101562 c 0,30,31
 126.213867188 494.599609375 126.213867188 494.599609375 180.383789062 498.848632812 c 0,32,33
 199.77734375 500.369140625 199.77734375 500.369140625 285.780273438 499.779296875 c 1,34,-1
 285.780273438 671.87890625 l 2,35,36
 285.77734375 684.366210938 285.77734375 684.366210938 294.313476562 693.032226562 c 128,-1,37
 302.850585938 701.697265625 302.850585938 701.697265625 314.913085938 701.877929688 c 1,0,-1
234.413085938 440.93359375 m 0,38,39
 201.466796875 441.133789062 201.466796875 441.133789062 185.000976562 439.842773438 c 0,40,41
 146.734375 436.840820312 146.734375 436.840820312 121.603515625 419.436523438 c 0,42,43
 98.666015625 403.551757812 98.666015625 403.551757812 89.6474609375 343.974609375 c 0,44,45
 84.2822265625 308.483398438 84.2822265625 308.483398438 84.1611328125 234.50390625 c 0,46,47
 84.0732421875 181.3984375 84.0732421875 181.3984375 94.876953125 133.567382812 c 0,48,49
 98.3056640625 118.388671875 98.3056640625 118.388671875 104.223632812 104.161132812 c 128,-1,50
 110.141601562 89.9345703125 110.141601562 89.9345703125 114.716796875 82.5712890625 c 128,-1,51
 119.291992188 75.20703125 119.291992188 75.20703125 121.346679688 74.0517578125 c 0,52,53
 139.23828125 63.990234375 139.23828125 63.990234375 173.896484375 61.1552734375 c 128,-1,54
 208.553710938 58.3203125 208.553710938 58.3203125 285.779296875 58.201171875 c 1,55,-1
 285.779296875 440.612304688 l 1,56,57
 274.896484375 440.668945312 274.896484375 440.668945312 255.884765625 440.793945312 c 128,-1,58
 236.872070312 440.918945312 236.872070312 440.918945312 234.413085938 440.93359375 c 0,38,39
EndSplineSet
EndChar

StartChar: e
Encoding: 101 101 46
Width: 392
VWidth: 0
Flags: W
LayerCount: 2
Fore
SplineSet
188.017578125 499.588867188 m 4,0,1
 271.530273438 499.604492188 271.530273438 499.604492188 309.811523438 456.448242188 c 4,2,3
 342.686523438 419.392578125 342.686523438 419.392578125 342.686523438 347.10546875 c 4,4,5
 342.686523438 310.840820312 342.686523438 310.840820312 328.43359375 283.380859375 c 132,-1,6
 314.180664062 255.920898438 314.180664062 255.920898438 290.413085938 241.991210938 c 4,7,8
 257.487304688 222.692382812 257.487304688 222.692382812 197.452148438 222.616210938 c 6,9,-1
 87.17578125 222.478515625 l 5,10,11
 87.33984375 107.904296875 87.33984375 107.904296875 107.475585938 79.4228515625 c 4,12,13
 114.233398438 69.8642578125 114.233398438 69.8642578125 118.647460938 67.439453125 c 132,-1,14
 123.060546875 65.0146484375 123.060546875 65.0146484375 140.9375 62.3935546875 c 4,15,16
 172.921875 57.7021484375 172.921875 57.7021484375 291.137695312 60.2314453125 c 4,17,18
 291.653320312 60.2490234375 291.653320312 60.2490234375 292.174804688 60.2490234375 c 4,19,20
 304.685546875 60.2490234375 304.685546875 60.2490234375 313.540039062 51.39453125 c 132,-1,21
 322.393554688 42.541015625 322.393554688 42.541015625 322.393554688 30.0302734375 c 4,22,23
 322.393554688 21.8955078125 322.393554688 21.8955078125 318.3828125 14.9580078125 c 132,-1,24
 314.37109375 8.021484375 314.37109375 8.021484375 307.467773438 3.951171875 c 132,-1,25
 300.565429688 -0.119140625 300.565429688 -0.119140625 292.4296875 -0.1875 c 4,26,27
 169.166015625 -2.82421875 169.166015625 -2.82421875 132.174804688 2.5986328125 c 4,28,29
 82.6484375 9.8623046875 82.6484375 9.8623046875 58.1337890625 44.5380859375 c 4,30,31
 45.62109375 62.2392578125 45.62109375 62.2392578125 38.05078125 83.1142578125 c 132,-1,32
 30.48046875 103.990234375 30.48046875 103.990234375 28.044921875 129.352539062 c 132,-1,33
 25.609375 154.715820312 25.609375 154.715820312 25.1455078125 172.127929688 c 132,-1,34
 24.6806640625 189.5390625 24.6806640625 189.5390625 25.7041015625 219.583007812 c 132,-1,35
 26.7265625 249.626953125 26.7265625 249.626953125 26.748046875 260.59375 c 4,36,37
 26.875 324.6953125 26.875 324.6953125 32.9697265625 365.774414062 c 132,-1,38
 39.0654296875 406.852539062 39.0654296875 406.852539062 56.5400390625 436.848632812 c 4,39,40
 93.0986328125 499.588867188 93.0986328125 499.588867188 188.017578125 499.588867188 c 4,0,1
188.017578125 439.155273438 m 4,41,42
 152.938476562 439.159179688 152.938476562 439.159179688 136.189453125 431.958984375 c 132,-1,43
 119.44140625 424.759765625 119.44140625 424.759765625 108.763671875 406.431640625 c 4,44,45
 89.7763671875 373.833007812 89.7763671875 373.833007812 87.5234375 282.909179688 c 5,46,-1
 197.385742188 283.046875 l 6,47,48
 241.052734375 283.100585938 241.052734375 283.100585938 259.862304688 294.125976562 c 4,49,50
 271.404296875 300.889648438 271.404296875 300.889648438 276.833984375 311.759765625 c 132,-1,51
 282.262695312 322.62890625 282.262695312 322.62890625 282.262695312 347.102539062 c 4,52,53
 282.262695312 396.446289062 282.262695312 396.446289062 264.61328125 416.338867188 c 4,54,55
 244.37109375 439.155273438 244.37109375 439.155273438 188.017578125 439.155273438 c 4,41,42
EndSplineSet
EndChar

StartChar: f
Encoding: 102 102 47
Width: 351
VWidth: 0
Flags: W
HStem: -1.3252 21G<126.375 138.641> 440.336 59.252<33.9528 102.884 162.136 254.446> 642.966 59.252<184.253 342.783>
VStem: 102.884 59.249<7.62765 440.336 499.588 627.576>
LayerCount: 2
Fore
SplineSet
321.744140625 702.217773438 m 1,0,-1
 322.107421875 702.21875 l 2,1,2
 334.373046875 702.21875 334.373046875 702.21875 343.0546875 693.538085938 c 128,-1,3
 351.735351562 684.857421875 351.735351562 684.857421875 351.735351562 672.591796875 c 128,-1,4
 351.735351562 660.326171875 351.735351562 660.326171875 343.0546875 651.64453125 c 128,-1,5
 334.373046875 642.963867188 334.373046875 642.963867188 322.107421875 642.963867188 c 2,6,-1
 321.744140625 642.965820312 l 2,7,8
 249.599609375 642.965820312 249.599609375 642.965820312 225.622070312 640.400390625 c 0,9,10
 195.288085938 637.15625 195.288085938 637.15625 183.892578125 627.859375 c 0,11,12
 172.938476562 618.926757812 172.938476562 618.926757812 167.90234375 593.458984375 c 0,13,14
 162.169921875 564.475585938 162.169921875 564.475585938 162.135742188 499.587890625 c 1,15,-1
 233.408203125 499.587890625 l 2,16,17
 246.037109375 499.58984375 246.037109375 499.58984375 254.717773438 490.909179688 c 128,-1,18
 263.3984375 482.227539062 263.3984375 482.227539062 263.3984375 469.961914062 c 128,-1,19
 263.3984375 457.696289062 263.3984375 457.696289062 254.717773438 449.014648438 c 128,-1,20
 246.037109375 440.333984375 246.037109375 440.333984375 233.771484375 440.333984375 c 0,21,-1
 162.1328125 440.3359375 l 1,22,-1
 162.1328125 28.7470703125 l 1,23,-1
 162.135742188 28.302734375 l 2,24,25
 162.135742188 16.037109375 162.135742188 16.037109375 153.455078125 7.35546875 c 128,-1,26
 144.7734375 -1.3251953125 144.7734375 -1.3251953125 132.5078125 -1.3251953125 c 128,-1,27
 120.2421875 -1.3251953125 120.2421875 -1.3251953125 111.561523438 7.35546875 c 128,-1,28
 102.880859375 16.037109375 102.880859375 16.037109375 102.880859375 28.302734375 c 2,29,-1
 102.883789062 28.7470703125 l 1,30,-1
 102.883789062 440.3359375 l 1,31,-1
 54.990234375 440.3359375 l 1,32,-1
 54.6279296875 440.333984375 l 2,33,34
 42.3623046875 440.333984375 42.3623046875 440.333984375 33.6806640625 449.014648438 c 128,-1,35
 25 457.696289062 25 457.696289062 25 469.961914062 c 128,-1,36
 25 482.227539062 25 482.227539062 33.6806640625 490.909179688 c 128,-1,37
 42.3623046875 499.58984375 42.3623046875 499.58984375 54.6279296875 499.58984375 c 2,38,-1
 54.990234375 499.587890625 l 1,39,-1
 102.88671875 499.587890625 l 1,40,41
 102.915039062 570.237304688 102.915039062 570.237304688 109.779296875 604.952148438 c 0,42,43
 118.955078125 651.3515625 118.955078125 651.3515625 146.439453125 673.771484375 c 0,44,45
 171.478515625 694.197265625 171.478515625 694.197265625 219.319335938 699.314453125 c 0,46,47
 246.459960938 702.217773438 246.459960938 702.217773438 321.744140625 702.217773438 c 1,0,-1
EndSplineSet
EndChar

StartChar: g
Encoding: 103 103 48
Width: 394
VWidth: 0
Flags: W
LayerCount: 2
Fore
SplineSet
222.874023438 500.833007812 m 0,0,1
 233.151367188 500.807617188 233.151367188 500.807617188 262.595703125 500.298828125 c 128,-1,2
 292.040039062 499.7890625 292.040039062 499.7890625 311.240234375 499.815429688 c 0,3,4
 312.158203125 499.905273438 312.158203125 499.905273438 313.129882812 499.939453125 c 0,5,6
 326.293945312 499.942382812 326.293945312 499.942382812 335.283203125 490.953125 c 128,-1,7
 344.272460938 481.963867188 344.272460938 481.963867188 344.272460938 469.26171875 c 0,8,-1
 344.26953125 2.8603515625 l 2,9,10
 344.26953125 -69.322265625 344.26953125 -69.322265625 330.936523438 -110.583984375 c 0,11,12
 315.686523438 -157.771484375 315.686523438 -157.771484375 279.091796875 -180.616210938 c 0,13,14
 271.138671875 -185.581054688 271.138671875 -185.581054688 262.995117188 -189.514648438 c 128,-1,15
 254.8515625 -193.448242188 254.8515625 -193.448242188 244.204101562 -196.254882812 c 128,-1,16
 233.555664062 -199.061523438 233.555664062 -199.061523438 226.475585938 -201.112304688 c 128,-1,17
 219.396484375 -203.163085938 219.396484375 -203.163085938 205.314453125 -204.413085938 c 128,-1,18
 191.232421875 -205.663085938 191.232421875 -205.663085938 185.02734375 -206.430664062 c 128,-1,19
 178.823242188 -207.198242188 178.823242188 -207.198242188 161.119140625 -207.490234375 c 128,-1,20
 143.415039062 -207.782226562 143.415039062 -207.782226562 137.897460938 -207.865234375 c 128,-1,21
 132.37890625 -207.948242188 132.37890625 -207.948242188 110.864257812 -207.880859375 c 128,-1,22
 89.3505859375 -207.814453125 89.3505859375 -207.814453125 83.779296875 -207.814453125 c 0,23,24
 70.697265625 -207.817382812 70.697265625 -207.817382812 61.7080078125 -198.828125 c 128,-1,25
 52.71875 -189.838867188 52.71875 -189.838867188 52.71875 -177.13671875 c 128,-1,26
 52.71875 -164.434570312 52.71875 -164.434570312 61.7080078125 -155.4453125 c 128,-1,27
 70.697265625 -146.456054688 70.697265625 -146.456054688 83.3984375 -146.456054688 c 0,28,29
 217.947265625 -146.458007812 217.947265625 -146.458007812 246.602539062 -128.5703125 c 0,30,31
 264.192382812 -117.58984375 264.192382812 -117.58984375 272.552734375 -91.716796875 c 0,32,33
 282.379882812 -61.310546875 282.379882812 -61.310546875 282.8828125 -3.298828125 c 1,34,35
 207.720703125 -4.2890625 207.720703125 -4.2890625 184.821289062 -3.0009765625 c 0,36,37
 129.643554688 0.1025390625 129.643554688 0.1025390625 92.7705078125 20.328125 c 0,38,39
 49.4501953125 44.0888671875 49.4501953125 44.0888671875 34.056640625 121.415039062 c 0,40,41
 24.8916015625 167.46484375 24.8916015625 167.46484375 25.0009765625 235.173828125 c 0,42,43
 25.1142578125 314.140625 25.1142578125 314.140625 31.375 353.82421875 c 0,44,45
 44.6064453125 437.6796875 44.6064453125 437.6796875 89.833984375 469 c 0,46,47
 129.1328125 496.2109375 129.1328125 496.2109375 185.517578125 499.872070312 c 0,48,49
 197.46875 500.647460938 197.46875 500.647460938 212.259765625 500.796875 c 0,50,51
 217.323242188 500.84765625 217.323242188 500.84765625 222.874023438 500.833007812 c 0,0,1
212.787109375 439.78515625 m 0,52,53
 199.26171875 439.685546875 199.26171875 439.685546875 189.466796875 439.049804688 c 0,54,55
 149.936523438 436.483398438 149.936523438 436.483398438 124.534179688 418.893554688 c 0,56,57
 100.745117188 402.418945312 100.745117188 402.418945312 91.5791015625 344.325195312 c 0,58,59
 86.0576171875 309.3359375 86.0576171875 309.3359375 85.951171875 235.086914062 c 0,60,-1
 85.951171875 235.080078125 l 2,61,62
 85.8515625 173.4140625 85.8515625 173.4140625 93.8330078125 133.311523438 c 0,63,64
 98.40625 110.337890625 98.40625 110.337890625 106.587890625 94.0576171875 c 128,-1,65
 114.768554688 77.7783203125 114.768554688 77.7783203125 122.080078125 73.767578125 c 0,66,67
 146.852539062 60.1796875 146.852539062 60.1796875 188.243164062 57.8515625 c 0,68,69
 207.6328125 56.7607421875 207.6328125 56.7607421875 282.915039062 57.673828125 c 1,70,-1
 282.915039062 439.01953125 l 1,71,72
 272.997070312 439.124023438 272.997070312 439.124023438 257.926757812 439.366210938 c 128,-1,73
 242.857421875 439.608398438 242.857421875 439.608398438 232.079101562 439.728515625 c 128,-1,74
 221.30078125 439.848632812 221.30078125 439.848632812 212.787109375 439.78515625 c 0,52,53
EndSplineSet
EndChar

StartChar: i
Encoding: 105 105 49
Width: 155
VWidth: 0
Flags: W
LayerCount: 2
Fore
SplineSet
65.2861328125 688.844726562 m 128,-1,1
 77.82421875 688.844726562 77.82421875 688.844726562 86.6982421875 679.971679688 c 128,-1,2
 95.5712890625 671.09765625 95.5712890625 671.09765625 95.5712890625 658.559570312 c 128,-1,3
 95.5712890625 646.021484375 95.5712890625 646.021484375 86.6982421875 637.1484375 c 128,-1,4
 77.82421875 628.275390625 77.82421875 628.275390625 65.2861328125 628.275390625 c 128,-1,5
 52.74609375 628.275390625 52.74609375 628.275390625 43.873046875 637.1484375 c 128,-1,6
 35 646.021484375 35 646.021484375 35 658.559570312 c 128,-1,7
 35 671.09765625 35 671.09765625 43.873046875 679.971679688 c 128,-1,0
 52.74609375 688.844726562 52.74609375 688.844726562 65.2861328125 688.844726562 c 128,-1,1
64.884765625 501.489257812 m 0,8,9
 77.875 501.4921875 77.875 501.4921875 86.7470703125 492.620117188 c 128,-1,10
 95.619140625 483.748046875 95.619140625 483.748046875 95.619140625 471.211914062 c 0,11,-1
 95.6162109375 29.794921875 l 1,12,-1
 95.619140625 29.3447265625 l 2,13,14
 95.619140625 16.8095703125 95.619140625 16.8095703125 86.7470703125 7.9375 c 128,-1,15
 77.875 -0.9345703125 77.875 -0.9345703125 65.33984375 -0.9345703125 c 128,-1,16
 52.8037109375 -0.9345703125 52.8037109375 -0.9345703125 43.931640625 7.9375 c 128,-1,17
 35.0595703125 16.8095703125 35.0595703125 16.8095703125 35.0595703125 29.3447265625 c 2,18,-1
 35.0625 29.794921875 l 1,19,-1
 35.0625 470.783203125 l 2,20,21
 35.0595703125 483.561523438 35.0595703125 483.561523438 43.798828125 492.431640625 c 128,-1,22
 52.537109375 501.302734375 52.537109375 501.302734375 64.884765625 501.489257812 c 0,8,9
EndSplineSet
EndChar

StartChar: j
Encoding: 106 106 50
Width: 191
VWidth: 0
Flags: W
LayerCount: 2
Fore
SplineSet
120.610351562 688.166992188 m 128,-1,1
 133.17578125 688.165039062 133.17578125 688.165039062 142.069335938 679.272460938 c 128,-1,2
 150.962890625 670.37890625 150.962890625 670.37890625 150.963867188 657.813476562 c 128,-1,3
 150.963867188 645.247070312 150.963867188 645.247070312 142.0703125 636.352539062 c 128,-1,4
 133.176757812 627.458984375 133.176757812 627.458984375 120.610351562 627.458007812 c 128,-1,5
 108.04296875 627.458007812 108.04296875 627.458007812 99.1494140625 636.3515625 c 128,-1,6
 90.2548828125 645.24609375 90.2548828125 645.24609375 90.2548828125 657.813476562 c 128,-1,7
 90.2568359375 670.379882812 90.2568359375 670.379882812 99.150390625 679.2734375 c 128,-1,0
 108.043945312 688.166992188 108.043945312 688.166992188 120.610351562 688.166992188 c 128,-1,1
120.157226562 500.14453125 m 1,8,-1
 120.614257812 500.146484375 l 2,9,10
 133.1796875 500.146484375 133.1796875 500.146484375 142.072265625 491.25390625 c 128,-1,11
 150.965820312 482.360351562 150.965820312 482.360351562 150.965820312 469.794921875 c 2,12,-1
 150.962890625 469.366210938 l 1,13,-1
 150.962890625 8.3994140625 l 2,14,15
 150.962890625 -64.658203125 150.962890625 -64.658203125 143.899414062 -100.380859375 c 0,16,17
 134.499023438 -147.912109375 134.499023438 -147.912109375 106.342773438 -170.87890625 c 0,18,19
 80.69140625 -191.802734375 80.69140625 -191.802734375 31.685546875 -197.04296875 c 0,20,21
 3.8955078125 -200.013671875 3.8955078125 -200.013671875 -73.23828125 -200.013671875 c 0,22,23
 -86.21484375 -200.016601562 -86.21484375 -200.016601562 -95.107421875 -191.124023438 c 128,-1,24
 -104 -182.23046875 -104 -182.23046875 -104 -169.665039062 c 128,-1,25
 -104 -157.099609375 -104 -157.099609375 -95.107421875 -148.20703125 c 128,-1,26
 -86.21484375 -139.314453125 -86.21484375 -139.314453125 -73.6494140625 -139.314453125 c 0,27,28
 0.6591796875 -139.31640625 0.6591796875 -139.31640625 25.2314453125 -136.688476562 c 0,29,30
 56.306640625 -133.366210938 56.306640625 -133.366210938 67.9794921875 -123.845703125 c 0,31,32
 79.1982421875 -114.694335938 79.1982421875 -114.694335938 84.3564453125 -88.6064453125 c 0,33,34
 90.2685546875 -58.7138671875 90.2685546875 -58.7138671875 90.2685546875 8.4013671875 c 2,35,-1
 90.2685546875 469.368164062 l 1,36,-1
 90.265625 469.796875 l 2,37,38
 90.265625 482.172851562 90.265625 482.172851562 99.0234375 491.065429688 c 128,-1,39
 107.782226562 499.95703125 107.782226562 499.95703125 120.157226562 500.14453125 c 1,8,-1
EndSplineSet
EndChar

StartChar: p
Encoding: 112 112 51
Width: 398
Flags: W
LayerCount: 2
Fore
SplineSet
132.583984375 498.888671875 m 0,0,1
 189.108398438 498.848632812 189.108398438 498.848632812 221.633789062 494.262695312 c 128,-1,2
 254.158203125 489.67578125 254.158203125 489.67578125 280.694335938 474.759765625 c 0,3,4
 305.009765625 461.091796875 305.009765625 461.091796875 316.53515625 437.170898438 c 128,-1,5
 328.059570312 413.249023438 328.059570312 413.249023438 336.583007812 375.51953125 c 0,6,7
 349 320.545898438 349 320.545898438 348.901367188 260.03125 c 0,8,9
 348.791015625 180.782226562 348.791015625 180.782226562 342.668945312 140.331054688 c 0,10,11
 329.669921875 54.458984375 329.669921875 54.458984375 285.203125 23.6640625 c 0,12,13
 246.452148438 -3.1708984375 246.452148438 -3.1708984375 191.598632812 -7.47265625 c 0,14,15
 173.8203125 -8.8662109375 173.8203125 -8.8662109375 84.88671875 -8.3271484375 c 1,16,-1
 84.88671875 -174.171875 l 2,17,18
 85.0595703125 -186.6953125 85.0595703125 -186.6953125 76.2646484375 -195.612304688 c 128,-1,19
 67.4697265625 -204.530273438 67.4697265625 -204.530273438 54.9453125 -204.530273438 c 128,-1,20
 42.419921875 -204.530273438 42.419921875 -204.530273438 33.625 -195.612304688 c 128,-1,21
 24.830078125 -186.6953125 24.830078125 -186.6953125 25.00390625 -174.171875 c 2,22,-1
 25.00390625 468.05078125 l 2,23,24
 24.7763671875 485.711914062 24.7763671875 485.711914062 39.13671875 493.782226562 c 0,25,26
 47.87890625 498.696289062 47.87890625 498.696289062 55.7529296875 498.618164062 c 0,27,28
 70.669921875 498.618164062 70.669921875 498.618164062 96.1923828125 498.756835938 c 128,-1,29
 121.713867188 498.895507812 121.713867188 498.895507812 132.583984375 498.888671875 c 0,0,1
84.884765625 438.704101562 m 1,30,-1
 84.8857421875 51.57421875 l 1,31,32
 173.153320312 51.15625 173.153320312 51.15625 186.916015625 52.2353515625 c 0,33,34
 225.654296875 55.2724609375 225.654296875 55.2724609375 251.109375 72.900390625 c 0,35,36
 274.326171875 88.978515625 274.326171875 88.978515625 283.45703125 149.294921875 c 0,37,38
 288.909179688 185.3125 288.909179688 185.3125 289.013671875 260.122070312 c 0,39,-1
 289.013671875 260.12890625 l 2,40,41
 289.100585938 313.9296875 289.100585938 313.9296875 278.168945312 362.327148438 c 0,42,43
 274.697265625 377.693359375 274.697265625 377.693359375 268.700195312 392.091796875 c 128,-1,44
 262.704101562 406.490234375 262.704101562 406.490234375 258.068359375 413.938476562 c 128,-1,45
 253.43359375 421.387695312 253.43359375 421.387695312 251.3515625 422.557617188 c 0,46,47
 233.045898438 432.846679688 233.045898438 432.846679688 198.395507812 435.720703125 c 128,-1,48
 163.744140625 438.595703125 163.744140625 438.595703125 84.884765625 438.704101562 c 1,30,-1
EndSplineSet
EndChar

StartChar: q
Encoding: 113 113 52
Width: 398
Flags: W
LayerCount: 2
Fore
SplineSet
241.31640625 500.444335938 m 0,0,1
 252.158203125 500.463867188 252.158203125 500.463867188 277.680664062 500.323242188 c 128,-1,2
 303.203125 500.18359375 303.203125 500.18359375 318.145507812 500.18359375 c 0,3,4
 328.620117188 500.319335938 328.620117188 500.319335938 336.680664062 494.491210938 c 0,5,6
 349.099609375 485.51171875 349.099609375 485.51171875 348.89453125 469.618164062 c 2,7,-1
 348.89453125 -172.603515625 l 2,8,9
 349.068359375 -185.126953125 349.068359375 -185.126953125 340.2734375 -194.044921875 c 128,-1,10
 331.478515625 -202.961914062 331.478515625 -202.961914062 318.955078125 -202.961914062 c 128,-1,11
 306.4296875 -202.961914062 306.4296875 -202.961914062 297.635742188 -194.044921875 c 128,-1,12
 288.840820312 -185.126953125 288.840820312 -185.126953125 289.013671875 -172.603515625 c 2,13,-1
 289.013671875 -6.759765625 l 1,14,15
 200.091796875 -7.296875 200.091796875 -7.296875 182.303710938 -5.90234375 c 0,16,17
 127.442382812 -1.599609375 127.442382812 -1.599609375 88.697265625 25.232421875 c 0,18,19
 44.2294921875 56.0263671875 44.2294921875 56.0263671875 31.2314453125 141.8984375 c 0,20,21
 25.1103515625 182.330078125 25.1103515625 182.330078125 25.0009765625 261.598632812 c 0,22,23
 24.9013671875 322.110351562 24.9013671875 322.110351562 37.3173828125 377.077148438 c 0,24,25
 45.83984375 414.807617188 45.83984375 414.807617188 57.365234375 438.729492188 c 128,-1,26
 68.8896484375 462.651367188 68.8896484375 462.651367188 93.205078125 476.319335938 c 0,27,28
 119.743164062 491.235351562 119.743164062 491.235351562 152.267578125 495.822265625 c 128,-1,29
 184.79296875 500.408203125 184.79296875 500.408203125 241.31640625 500.444335938 c 0,0,1
289.014648438 440.259765625 m 1,30,31
 210.154296875 440.147460938 210.154296875 440.147460938 175.504882812 437.2734375 c 128,-1,32
 140.854492188 434.3984375 140.854492188 434.3984375 122.55078125 424.110351562 c 0,33,34
 120.46875 422.939453125 120.46875 422.939453125 115.833984375 415.490234375 c 128,-1,35
 111.198242188 408.041015625 111.198242188 408.041015625 105.202148438 393.641601562 c 128,-1,36
 99.205078125 379.2421875 99.205078125 379.2421875 95.734375 363.876953125 c 0,37,38
 84.7998046875 315.466796875 84.7998046875 315.466796875 84.88671875 261.680664062 c 0,39,-1
 84.88671875 261.671875 l 2,40,41
 84.9912109375 186.87109375 84.9912109375 186.87109375 90.4443359375 150.846679688 c 0,42,43
 99.57421875 90.53125 99.57421875 90.53125 122.791992188 74.4521484375 c 0,44,45
 148.248046875 56.8232421875 148.248046875 56.8232421875 186.985351562 53.78515625 c 0,46,47
 200.735351562 52.70703125 200.735351562 52.70703125 289.014648438 53.126953125 c 1,48,-1
 289.014648438 440.259765625 l 1,30,31
EndSplineSet
EndChar

StartChar: r
Encoding: 114 114 53
Width: 267
Flags: W
LayerCount: 2
Fore
SplineSet
187.161132812 501.900390625 m 5,0,-1
 187.525390625 501.90234375 l 6,1,2
 200.141601562 501.90234375 200.141601562 501.90234375 209.069335938 492.973632812 c 132,-1,3
 217.998046875 484.044921875 217.998046875 484.044921875 217.998046875 471.428710938 c 132,-1,4
 217.998046875 458.8125 217.998046875 458.8125 209.069335938 449.883789062 c 132,-1,5
 200.141601562 440.955078125 200.141601562 440.955078125 187.525390625 440.955078125 c 6,6,-1
 187.157226562 440.958007812 l 6,7,8
 114.436523438 440.958007812 114.436523438 440.958007812 97.22265625 421.897460938 c 4,9,10
 85.9443359375 409.409179688 85.9443359375 409.409179688 85.9443359375 357.314453125 c 6,11,-1
 85.9443359375 22.1806640625 l 6,12,13
 85.947265625 9.197265625 85.947265625 9.197265625 77.0185546875 0.2685546875 c 132,-1,14
 68.08984375 -8.66015625 68.08984375 -8.66015625 55.4736328125 -8.66015625 c 132,-1,15
 42.857421875 -8.66015625 42.857421875 -8.66015625 33.9287109375 0.2685546875 c 132,-1,16
 25 9.197265625 25 9.197265625 25 21.8134765625 c 4,17,-1
 25.0029296875 357.314453125 l 6,18,19
 25.0029296875 382.368164062 25.0029296875 382.368164062 25.9677734375 396.279296875 c 132,-1,20
 26.931640625 410.190429688 26.931640625 410.190429688 33.2216796875 429.557617188 c 132,-1,21
 39.5107421875 448.924804688 39.5107421875 448.924804688 51.9951171875 462.747070312 c 4,22,23
 87.3623046875 501.900390625 87.3623046875 501.900390625 187.161132812 501.900390625 c 5,0,-1
EndSplineSet
EndChar

StartChar: s
Encoding: 115 115 54
Width: 357
VWidth: 0
Flags: W
LayerCount: 2
Fore
SplineSet
191.287109375 499.698242188 m 2,0,-1
 191.295898438 499.698242188 l 1,1,-1
 276.956054688 499.6484375 l 1,2,-1
 277.385742188 499.651367188 l 2,3,4
 289.766601562 499.651367188 289.766601562 499.651367188 298.528320312 490.889648438 c 128,-1,5
 307.291015625 482.126953125 307.291015625 482.126953125 307.291015625 469.747070312 c 128,-1,6
 307.291015625 457.366210938 307.291015625 457.366210938 298.528320312 448.604492188 c 128,-1,7
 289.766601562 439.842773438 289.766601562 439.842773438 277.385742188 439.842773438 c 2,8,-1
 276.920898438 439.845703125 l 1,9,-1
 191.270507812 439.895507812 l 2,10,11
 131.873046875 439.895507812 131.873046875 439.895507812 115.178710938 434.275390625 c 0,12,13
 100.171875 429.223632812 100.171875 429.223632812 92.021484375 403.23828125 c 0,14,15
 84.8837890625 380.487304688 84.8837890625 380.487304688 84.802734375 348.504882812 c 2,16,-1
 84.802734375 348.498046875 l 2,17,18
 84.7314453125 324.735351562 84.7314453125 324.735351562 98.4033203125 307.6796875 c 0,19,20
 118.752929688 282.293945312 118.752929688 282.293945312 168.106445312 279.02734375 c 0,21,22
 243.71875 274.025390625 243.71875 274.025390625 280.526367188 228.104492188 c 0,23,24
 307.400390625 194.576171875 307.400390625 194.576171875 307.266601562 149.71484375 c 0,25,26
 307.16015625 108.65625 307.16015625 108.65625 297.305664062 77.2431640625 c 0,27,28
 280.036132812 22.19921875 280.036132812 22.19921875 236.170898438 7.4296875 c 0,29,30
 210.185546875 -1.318359375 210.185546875 -1.318359375 140.977539062 -1.318359375 c 0,31,-1
 55.30859375 -1.2685546875 l 1,32,-1
 54.9580078125 -1.2705078125 l 2,33,34
 42.5771484375 -1.2705078125 42.5771484375 -1.2705078125 33.8154296875 7.4912109375 c 128,-1,35
 25.0537109375 16.25390625 25.0537109375 16.25390625 25.0537109375 28.634765625 c 128,-1,36
 25.0537109375 41.0146484375 25.0537109375 41.0146484375 33.8154296875 49.77734375 c 128,-1,37
 42.5771484375 58.5390625 42.5771484375 58.5390625 54.9580078125 58.5390625 c 2,38,-1
 55.34375 58.5361328125 l 1,39,-1
 140.994140625 58.486328125 l 2,40,41
 200.393554688 58.4873046875 200.393554688 58.4873046875 217.087890625 64.107421875 c 0,42,43
 232.091796875 69.158203125 232.091796875 69.158203125 240.244140625 95.142578125 c 0,44,45
 247.379882812 117.89453125 247.379882812 117.89453125 247.461914062 149.875976562 c 0,46,-1
 247.461914062 149.891601562 l 2,47,48
 247.532226562 173.645507812 247.532226562 173.645507812 233.861328125 190.700195312 c 0,49,50
 213.509765625 216.08984375 213.509765625 216.08984375 164.158203125 219.35546875 c 0,51,52
 88.546875 224.357421875 88.546875 224.357421875 51.7412109375 270.27734375 c 0,53,54
 24.8681640625 303.801757812 24.8681640625 303.801757812 25.0009765625 348.65625 c 0,55,-1
 25.0009765625 348.671875 l 2,56,57
 25.1044921875 389.725585938 25.1044921875 389.725585938 34.958984375 421.13671875 c 0,58,59
 52.2265625 476.180664062 52.2265625 476.180664062 96.0966796875 490.950195312 c 0,60,61
 122.081054688 499.698242188 122.081054688 499.698242188 191.287109375 499.698242188 c 2,0,-1
EndSplineSet
EndChar

StartChar: t
Encoding: 116 116 55
Width: 339
VWidth: 0
Flags: W
HStem: -0.946289 59.4619<186.856 285.757> 440.192 59.8086<34.514 104.565 164.384 258.016>
VStem: 104.565 59.8184<72.39 440.204 499.989 697.636>
LayerCount: 2
Fore
SplineSet
134.474609375 705.77734375 m 128,-1,1
 146.625 705.77734375 146.625 705.77734375 155.50390625 697.883789062 c 128,-1,2
 164.383789062 689.990234375 164.383789062 689.990234375 164.383789062 675.866210938 c 2,3,-1
 164.383789062 499.989257812 l 1,4,-1
 236.299804688 499.989257812 l 2,5,6
 236.701171875 500.000976562 236.701171875 500.000976562 237.1484375 500.000976562 c 0,7,8
 249.528320312 500.000976562 249.528320312 500.000976562 258.291015625 491.239257812 c 128,-1,9
 267.052734375 482.4765625 267.052734375 482.4765625 267.052734375 470.096679688 c 128,-1,10
 267.052734375 457.715820312 267.052734375 457.715820312 258.291015625 448.954101562 c 128,-1,11
 249.528320312 440.192382812 249.528320312 440.192382812 237.1484375 440.192382812 c 0,12,13
 236.701171875 440.192382812 236.701171875 440.192382812 236.299804688 440.204101562 c 2,14,-1
 164.383789062 440.204101562 l 1,15,-1
 164.383789062 201.475585938 l 2,16,17
 164.383789062 135.265625 164.383789062 135.265625 170.188476562 105.909179688 c 0,18,19
 175.272460938 80.1982421875 175.272460938 80.1982421875 186.345703125 71.16796875 c 0,20,21
 202.59765625 57.91015625 202.59765625 57.91015625 228.450195312 58.515625 c 2,22,-1
 258.673828125 59.22265625 l 2,23,24
 278.02734375 59.67578125 278.02734375 59.67578125 286.008789062 44.802734375 c 128,-1,25
 293.990234375 29.9287109375 293.990234375 29.9287109375 286.010742188 14.78515625 c 128,-1,26
 278.03125 -0.359375 278.03125 -0.359375 258.673828125 -0.5625 c 2,27,-1
 222.091796875 -0.9462890625 l 2,28,29
 180.66796875 -1.3798828125 180.66796875 -1.3798828125 148.51953125 24.84375 c 0,30,31
 120.80078125 47.4541015625 120.80078125 47.4541015625 111.538085938 94.296875 c 0,32,33
 104.565429688 129.559570312 104.565429688 129.559570312 104.565429688 201.475585938 c 2,34,-1
 104.565429688 440.204101562 l 1,35,-1
 56.23046875 440.204101562 l 2,36,37
 55.8291015625 440.192382812 55.8291015625 440.192382812 55.3818359375 440.192382812 c 0,38,39
 43.001953125 440.192382812 43.001953125 440.192382812 34.2392578125 448.954101562 c 128,-1,40
 25.4775390625 457.715820312 25.4775390625 457.715820312 25.4775390625 470.096679688 c 128,-1,41
 25.4775390625 482.4765625 25.4775390625 482.4765625 34.2392578125 491.239257812 c 128,-1,42
 43.001953125 500.000976562 43.001953125 500.000976562 55.3818359375 500.000976562 c 0,43,44
 55.8291015625 500.000976562 55.8291015625 500.000976562 56.23046875 499.989257812 c 2,45,-1
 104.565429688 499.989257812 l 1,46,-1
 104.565429688 675.866210938 l 2,47,48
 104.565429688 689.990234375 104.565429688 689.990234375 113.4453125 697.883789062 c 128,-1,0
 122.32421875 705.77734375 122.32421875 705.77734375 134.474609375 705.77734375 c 128,-1,1
EndSplineSet
EndChar

StartChar: u
Encoding: 117 117 56
Width: 395
VWidth: 0
Flags: W
LayerCount: 2
Fore
SplineSet
54.4501953125 502.107421875 m 1,0,-1
 54.8984375 502.110351562 l 2,1,2
 67.2783203125 502.110351562 67.2783203125 502.110351562 76.041015625 493.348632812 c 128,-1,3
 84.802734375 484.5859375 84.802734375 484.5859375 84.802734375 472.206054688 c 0,4,-1
 84.7998046875 152.551757812 l 2,5,6
 85.0517578125 106.645507812 85.0517578125 106.645507812 105.793945312 84.041015625 c 0,7,8
 129.53125 58.1708984375 129.53125 58.1708984375 185.001953125 58.1708984375 c 128,-1,9
 240.650390625 58.1708984375 240.650390625 58.1708984375 264.7890625 84.353515625 c 0,10,11
 285.861328125 107.208007812 285.861328125 107.208007812 285.206054688 151.951171875 c 0,12,-1
 285.203125 471.784179688 l 2,13,14
 285.200195312 484.610351562 285.200195312 484.610351562 293.961914062 493.373046875 c 128,-1,15
 302.724609375 502.134765625 302.724609375 502.134765625 315.104492188 502.134765625 c 128,-1,16
 327.485351562 502.134765625 327.485351562 502.134765625 336.247070312 493.373046875 c 128,-1,17
 345.009765625 484.610351562 345.009765625 484.610351562 345.009765625 472.23046875 c 0,18,-1
 345.005859375 152.389648438 l 1,19,-1
 345.005859375 152.828125 l 2,20,21
 346.012695312 84.2236328125 346.012695312 84.2236328125 308.7578125 43.8154296875 c 0,22,23
 266.858398438 -1.6318359375 266.858398438 -1.6318359375 185.00390625 -1.6318359375 c 128,-1,24
 103.244140625 -1.6318359375 103.244140625 -1.6318359375 61.7314453125 43.6064453125 c 0,25,26
 25.3779296875 83.2236328125 25.3779296875 83.2236328125 25 152.224609375 c 0,27,-1
 25 471.784179688 l 2,28,29
 24.99609375 484.401367188 24.99609375 484.401367188 33.6259765625 493.162109375 c 128,-1,30
 42.2568359375 501.923828125 42.2568359375 501.923828125 54.4501953125 502.107421875 c 1,0,-1
EndSplineSet
EndChar

StartChar: v
Encoding: 118 118 57
Width: 399
VWidth: 0
Flags: W
LayerCount: 2
Fore
SplineSet
320.424804688 499.373046875 m 4,0,1
 332.390625 498.82421875 332.390625 498.82421875 340.859375 489.958984375 c 132,-1,2
 349.328125 481.094726562 349.328125 481.094726562 349.328125 469.116210938 c 4,3,4
 349.328125 464.92578125 349.328125 464.92578125 348.190429688 460.891601562 c 6,5,-1
 230.694335938 20.6923828125 l 6,6,7
 228.209960938 11.3876953125 228.209960938 11.3876953125 219.63671875 4.8017578125 c 132,-1,8
 211.0625 -1.783203125 211.0625 -1.783203125 201.432617188 -1.7841796875 c 6,9,-1
 160.965820312 -1.7841796875 l 6,10,11
 151.080078125 -1.783203125 151.080078125 -1.783203125 142.450195312 5.0205078125 c 132,-1,12
 133.821289062 11.8251953125 133.821289062 11.8251953125 131.514648438 21.4384765625 c 6,13,-1
 25.9287109375 461.638671875 l 6,14,15
 25 465.30078125 25 465.30078125 25 469.080078125 c 4,16,17
 25 481.620117188 25 481.620117188 33.875 490.494140625 c 132,-1,18
 42.7490234375 499.369140625 42.7490234375 499.369140625 55.2890625 499.369140625 c 4,19,20
 65.3076171875 499.369140625 65.3076171875 499.369140625 73.9638671875 492.453125 c 132,-1,21
 82.619140625 485.538085938 82.619140625 485.538085938 84.8310546875 475.765625 c 6,22,-1
 181.686523438 71.9599609375 l 5,23,-1
 289.66796875 476.512695312 l 6,24,25
 292.053710938 485.990234375 292.053710938 485.990234375 300.66015625 492.697265625 c 132,-1,26
 309.265625 499.404296875 309.265625 499.404296875 319.0390625 499.404296875 c 4,27,28
 319.74609375 499.404296875 319.74609375 499.404296875 320.424804688 499.373046875 c 4,0,1
EndSplineSet
EndChar

StartChar: w
Encoding: 119 119 58
Width: 653
VWidth: 0
Flags: W
LayerCount: 2
Fore
SplineSet
54.357421875 499.987304688 m 0,0,1
 66.9580078125 500.177734375 66.9580078125 500.177734375 75.8740234375 491.270507812 c 128,-1,2
 84.7900390625 482.36328125 84.7900390625 482.36328125 84.611328125 469.76171875 c 2,3,-1
 84.611328125 151.51953125 l 2,4,5
 84.8779296875 105.806640625 84.8779296875 105.806640625 105.536132812 83.2939453125 c 0,6,7
 129.194335938 57.5107421875 129.194335938 57.5107421875 184.483398438 57.5107421875 c 128,-1,8
 239.9453125 57.5107421875 239.9453125 57.5107421875 264.005859375 83.6064453125 c 0,9,10
 285.010742188 106.390625 285.010742188 106.390625 284.357421875 150.98046875 c 0,11,-1
 284.353515625 378.712890625 l 2,12,13
 284.188476562 391.173828125 284.188476562 391.173828125 292.94140625 400.04296875 c 128,-1,14
 301.6953125 408.912109375 301.6953125 408.912109375 314.157226562 408.912109375 c 128,-1,15
 326.618164062 408.912109375 326.618164062 408.912109375 335.37109375 400.04296875 c 128,-1,16
 344.125 391.173828125 344.125 391.173828125 343.9609375 378.712890625 c 2,17,-1
 343.995117188 151.44921875 l 2,18,19
 344.2421875 106.493164062 344.2421875 106.493164062 365.529296875 83.2939453125 c 0,20,21
 389.189453125 57.5107421875 389.189453125 57.5107421875 444.4765625 57.5107421875 c 128,-1,22
 499.939453125 57.5107421875 499.939453125 57.5107421875 524 83.6064453125 c 0,23,24
 545.004882812 106.390625 545.004882812 106.390625 544.3515625 150.98046875 c 0,25,-1
 544.348632812 469.76171875 l 2,26,27
 544.172851562 482.098632812 544.172851562 482.098632812 552.768554688 490.94921875 c 128,-1,28
 561.364257812 499.80078125 561.364257812 499.80078125 573.702148438 499.987304688 c 0,29,30
 586.302734375 500.176757812 586.302734375 500.176757812 595.217773438 491.26953125 c 128,-1,31
 604.1328125 482.362304688 604.1328125 482.362304688 603.954101562 469.76171875 c 2,32,-1
 603.954101562 151.516601562 l 1,33,-1
 603.954101562 151.418945312 l 2,34,35
 604.82421875 83.3369140625 604.82421875 83.3369140625 567.823242188 43.203125 c 0,36,37
 526.061523438 -2.09375 526.061523438 -2.09375 444.4765625 -2.09375 c 128,-1,38
 362.982421875 -2.09375 362.982421875 -2.09375 321.610351562 42.9951171875 c 0,39,40
 317.97265625 46.9599609375 317.97265625 46.9599609375 314.65234375 51.291015625 c 1,41,42
 311.3671875 47.0419921875 311.3671875 47.0419921875 307.830078125 43.203125 c 0,43,44
 266.068359375 -2.09375 266.068359375 -2.09375 184.483398438 -2.09375 c 128,-1,45
 102.989257812 -2.09375 102.989257812 -2.09375 61.6171875 42.9951171875 c 0,46,47
 42.4697265625 63.8603515625 42.4697265625 63.8603515625 33.8251953125 91.5087890625 c 128,-1,48
 25.1806640625 119.157226562 25.1806640625 119.157226562 25.00390625 151.25390625 c 0,49,-1
 25.00390625 469.76171875 l 2,50,51
 24.828125 482.098632812 24.828125 482.098632812 33.423828125 490.94921875 c 128,-1,52
 42.01953125 499.80078125 42.01953125 499.80078125 54.357421875 499.987304688 c 0,0,1
EndSplineSet
EndChar

StartChar: x
Encoding: 120 120 59
Width: 399
VWidth: 0
Flags: W
LayerCount: 2
Fore
SplineSet
53.68359375 499.844726562 m 0,0,1
 54.4228515625 499.8828125 54.4228515625 499.8828125 55.1962890625 499.8828125 c 128,-1,2
 55.9697265625 499.8828125 55.9697265625 499.8828125 56.708984375 499.844726562 c 0,3,4
 73.2646484375 499.094726562 73.2646484375 499.094726562 81.5712890625 484.75 c 2,5,-1
 187.431640625 307.887695312 l 1,6,-1
 293.29296875 484.75 l 2,7,8
 302.055664062 499.854492188 302.055664062 499.854492188 319.516601562 499.854492188 c 0,9,10
 319.91796875 499.854492188 319.91796875 499.854492188 320.259765625 499.844726562 c 0,11,12
 332.506835938 499.547851562 332.506835938 499.547851562 341.173828125 490.66796875 c 128,-1,13
 349.841796875 481.788085938 349.841796875 481.788085938 349.841796875 469.537109375 c 0,14,15
 349.841796875 460.930664062 349.841796875 460.930664062 345.319335938 453.607421875 c 2,16,-1
 222.751953125 248.856445312 l 1,17,-1
 345.319335938 44.138671875 l 2,18,19
 349.624023438 36.9482421875 349.624023438 36.9482421875 349.624023438 28.5673828125 c 0,20,21
 349.624023438 16.015625 349.624023438 16.015625 340.741210938 7.1328125 c 128,-1,22
 331.858398438 -1.75 331.858398438 -1.75 319.306640625 -1.75 c 0,23,24
 302.12109375 -1.75 302.12109375 -1.75 293.29296875 12.99609375 c 2,25,-1
 187.431640625 189.858398438 l 1,26,-1
 81.5712890625 12.99609375 l 2,27,28
 72.7412109375 -1.7373046875 72.7412109375 -1.7373046875 55.5654296875 -1.7373046875 c 0,29,30
 43.013671875 -1.7373046875 43.013671875 -1.7373046875 34.130859375 7.146484375 c 128,-1,31
 25.248046875 16.029296875 25.248046875 16.029296875 25.248046875 28.5810546875 c 0,32,33
 25.248046875 36.955078125 25.248046875 36.955078125 29.544921875 44.138671875 c 2,34,-1
 152.112304688 248.856445312 l 1,35,-1
 29.544921875 453.607421875 l 2,36,37
 25 460.942382812 25 460.942382812 25 469.572265625 c 0,38,39
 25 481.46484375 25 481.46484375 33.404296875 490.333984375 c 128,-1,40
 41.80859375 499.204101562 41.80859375 499.204101562 53.68359375 499.844726562 c 0,0,1
EndSplineSet
EndChar

StartChar: y
Encoding: 121 121 60
Width: 382
VWidth: 0
Flags: W
LayerCount: 2
Fore
SplineSet
54.390625 501.171875 m 0,0,-1
 54.8388671875 501.174804688 l 2,1,2
 67.1787109375 501.174804688 67.1787109375 501.174804688 75.912109375 492.44140625 c 128,-1,3
 84.6455078125 483.708984375 84.6455078125 483.708984375 84.6455078125 471.369140625 c 0,4,-1
 84.6318359375 198.828125 l 2,5,6
 83.958984375 103.538085938 83.958984375 103.538085938 104.497070312 80.919921875 c 0,7,8
 125.291992188 58.0185546875 125.291992188 58.0185546875 215.118164062 58.0185546875 c 2,9,-1
 272.057617188 58.1337890625 l 1,10,-1
 272.057617188 470.3125 l 1,11,-1
 272.0546875 470.737304688 l 2,12,13
 272.0546875 482.973632812 272.0546875 482.973632812 280.713867188 491.763671875 c 128,-1,14
 289.373046875 500.5546875 289.373046875 500.5546875 301.608398438 500.73828125 c 0,15,16
 314.482421875 500.741210938 314.482421875 500.741210938 323.2734375 491.950195312 c 128,-1,17
 332.065429688 483.158203125 332.065429688 483.158203125 332.065429688 470.737304688 c 2,18,-1
 332.0625 470.3125 l 1,19,-1
 332.0625 14.61328125 l 2,20,21
 332.0625 -57.60546875 332.0625 -57.60546875 325.079101562 -92.9228515625 c 0,22,23
 315.786132812 -139.911132812 315.786132812 -139.911132812 287.950195312 -162.6171875 c 0,24,25
 262.58984375 -183.301757812 262.58984375 -183.301757812 214.145507812 -188.48046875 c 0,26,27
 186.684570312 -191.416992188 186.684570312 -191.416992188 110.421875 -191.416992188 c 2,28,-1
 109.9765625 -191.419921875 l 2,29,30
 97.5546875 -191.419921875 97.5546875 -191.419921875 88.763671875 -182.62890625 c 128,-1,31
 79.97265625 -173.837890625 79.97265625 -173.837890625 79.97265625 -161.416015625 c 128,-1,32
 79.97265625 -148.994140625 79.97265625 -148.994140625 88.763671875 -140.202148438 c 128,-1,33
 97.5546875 -131.411132812 97.5546875 -131.411132812 109.9765625 -131.411132812 c 2,34,-1
 110.421875 -131.415039062 l 2,35,36
 183.469726562 -131.415039062 183.469726562 -131.415039062 207.765625 -128.817382812 c 0,37,38
 238.481445312 -125.533203125 238.481445312 -125.533203125 250.024414062 -116.120117188 c 0,39,40
 261.116210938 -107.072265625 261.116210938 -107.072265625 266.215820312 -81.28515625 c 0,41,42
 271.372070312 -55.208984375 271.372070312 -55.208984375 271.970703125 -1.4716796875 c 1,43,-1
 215.1484375 -1.5888671875 l 2,44,45
 155.6015625 -1.5888671875 155.6015625 -1.5888671875 119.40234375 7.05859375 c 128,-1,46
 83.2021484375 15.705078125 83.2021484375 15.705078125 60.369140625 40.8505859375 c 0,47,48
 37.8740234375 65.6240234375 37.8740234375 65.6240234375 31.2353515625 101.451171875 c 128,-1,49
 24.5966796875 137.278320312 24.5966796875 137.278320312 25.0263671875 198.934570312 c 0,50,-1
 25.0263671875 199.14453125 l 1,51,-1
 25.037109375 470.948242188 l 2,52,53
 25.0341796875 483.5234375 25.0341796875 483.5234375 33.6357421875 492.255859375 c 128,-1,54
 42.2373046875 500.989257812 42.2373046875 500.989257812 54.390625 501.171875 c 0,0,-1
EndSplineSet
EndChar

StartChar: z
Encoding: 122 122 61
Width: 457
VWidth: 0
Flags: W
LayerCount: 2
Fore
SplineSet
377.834960938 501.77734375 m 6,0,1
 390.275390625 501.77734375 390.275390625 501.77734375 399.078125 492.974609375 c 132,-1,2
 407.880859375 484.171875 407.880859375 484.171875 407.880859375 471.734375 c 4,3,4
 407.880859375 461.956054688 407.880859375 461.956054688 402.125976562 454.051757812 c 6,5,-1
 114.0859375 58.5283203125 l 5,6,-1
 376.76953125 58.5703125 l 5,7,-1
 377.127929688 58.572265625 l 6,8,9
 389.565429688 58.572265625 389.565429688 58.572265625 398.368164062 49.76953125 c 132,-1,10
 407.170898438 40.966796875 407.170898438 40.966796875 407.170898438 28.5283203125 c 132,-1,11
 407.170898438 16.08984375 407.170898438 16.08984375 398.368164062 7.2880859375 c 132,-1,12
 389.56640625 -1.5146484375 389.56640625 -1.5146484375 377.127929688 -1.5146484375 c 6,13,-1
 376.78125 -1.5126953125 l 5,14,-1
 55.04296875 -1.5625 l 6,15,16
 42.60546875 -1.5625 42.60546875 -1.5625 33.802734375 7.240234375 c 132,-1,17
 25 16.04296875 25 16.04296875 25 28.48046875 c 4,18,19
 25 38.2587890625 25 38.2587890625 30.7548828125 46.1630859375 c 6,20,-1
 318.794921875 441.686523438 l 5,21,-1
 56.1103515625 441.64453125 l 5,22,-1
 55.669921875 441.641601562 l 6,23,24
 43.232421875 441.641601562 43.232421875 441.641601562 34.4287109375 450.444335938 c 132,-1,25
 25.6259765625 459.247070312 25.6259765625 459.247070312 25.6259765625 471.684570312 c 132,-1,26
 25.6259765625 484.123046875 25.6259765625 484.123046875 34.4287109375 492.92578125 c 132,-1,27
 43.232421875 501.728515625 43.232421875 501.728515625 55.669921875 501.728515625 c 6,28,-1
 56.099609375 501.725585938 l 5,29,-1
 377.834960938 501.77734375 l 6,0,1
EndSplineSet
EndChar

StartChar: h
Encoding: 104 104 62
Width: 391
VWidth: 0
Flags: W
LayerCount: 2
Fore
SplineSet
55.0185546875 704.645507812 m 4,0,1
 67.9033203125 704.83984375 67.9033203125 704.83984375 77.0205078125 695.732421875 c 132,-1,2
 86.13671875 686.624023438 86.13671875 686.624023438 85.9541015625 673.73828125 c 6,3,-1
 85.9541015625 501.631835938 l 5,4,-1
 146.7421875 501.755859375 l 6,5,6
 207.599609375 501.755859375 207.599609375 501.755859375 244.614257812 492.9140625 c 132,-1,7
 281.629882812 484.073242188 281.629882812 484.073242188 304.977539062 458.361328125 c 4,8,9
 327.999023438 433.0078125 327.999023438 433.0078125 334.780273438 396.338867188 c 132,-1,10
 341.560546875 359.669921875 341.560546875 359.669921875 341.114257812 296.5 c 6,11,-1
 341.116210938 296.71484375 l 5,12,-1
 341.103515625 24.92578125 l 6,13,14
 341.30078125 12.1630859375 341.30078125 12.1630859375 332.345703125 3.0693359375 c 132,-1,15
 323.390625 -6.025390625 323.390625 -6.025390625 310.626953125 -6.0244140625 c 132,-1,16
 297.86328125 -6.0234375 297.86328125 -6.0234375 288.909179688 3.072265625 c 132,-1,17
 279.955078125 12.16796875 279.955078125 12.16796875 280.155273438 24.9296875 c 6,18,-1
 280.166015625 296.823242188 l 6,19,20
 280.856445312 394.2578125 280.856445312 394.2578125 259.853515625 417.38671875 c 4,21,22
 238.58984375 440.8046875 238.58984375 440.8046875 146.7421875 440.8046875 c 6,23,-1
 85.9541015625 440.681640625 l 5,24,-1
 85.9541015625 23.77734375 l 6,25,26
 86.0634765625 15.4248046875 86.0634765625 15.4248046875 82.0107421875 8.3076171875 c 132,-1,27
 77.9580078125 1.19140625 77.9580078125 1.19140625 70.8955078125 -2.953125 c 132,-1,28
 63.83203125 -7.0986328125 63.83203125 -7.0986328125 55.478515625 -7.0986328125 c 4,29,30
 42.7373046875 -7.0986328125 42.7373046875 -7.0986328125 33.787109375 1.9697265625 c 132,-1,31
 24.8369140625 11.037109375 24.8369140625 11.037109375 25.00390625 23.77734375 c 6,32,-1
 25.00390625 673.73828125 l 6,33,34
 24.82421875 686.353515625 24.82421875 686.353515625 33.61328125 695.404296875 c 132,-1,35
 42.4033203125 704.455078125 42.4033203125 704.455078125 55.0185546875 704.645507812 c 4,0,1
EndSplineSet
EndChar

StartChar: ecircumflex
Encoding: 234 234 64
Width: 392
VWidth: 0
Flags: W
LayerCount: 2
Fore
SplineSet
188.017578125 499.588867188 m 4,0,1
 271.530273438 499.604492188 271.530273438 499.604492188 309.811523438 456.448242188 c 4,2,3
 342.686523438 419.392578125 342.686523438 419.392578125 342.686523438 347.10546875 c 4,4,5
 342.686523438 310.840820312 342.686523438 310.840820312 328.43359375 283.380859375 c 132,-1,6
 314.180664062 255.920898438 314.180664062 255.920898438 290.413085938 241.991210938 c 4,7,8
 257.487304688 222.692382812 257.487304688 222.692382812 197.452148438 222.616210938 c 6,9,-1
 87.17578125 222.478515625 l 5,10,11
 87.33984375 107.904296875 87.33984375 107.904296875 107.475585938 79.4228515625 c 4,12,13
 114.233398438 69.8642578125 114.233398438 69.8642578125 118.647460938 67.439453125 c 132,-1,14
 123.060546875 65.0146484375 123.060546875 65.0146484375 140.9375 62.3935546875 c 4,15,16
 172.921875 57.7021484375 172.921875 57.7021484375 291.137695312 60.2314453125 c 4,17,18
 291.653320312 60.2490234375 291.653320312 60.2490234375 292.174804688 60.2490234375 c 4,19,20
 304.685546875 60.2490234375 304.685546875 60.2490234375 313.540039062 51.39453125 c 132,-1,21
 322.393554688 42.541015625 322.393554688 42.541015625 322.393554688 30.0302734375 c 4,22,23
 322.393554688 21.8955078125 322.393554688 21.8955078125 318.3828125 14.9580078125 c 132,-1,24
 314.37109375 8.021484375 314.37109375 8.021484375 307.467773438 3.951171875 c 132,-1,25
 300.565429688 -0.119140625 300.565429688 -0.119140625 292.4296875 -0.1875 c 4,26,27
 169.166015625 -2.82421875 169.166015625 -2.82421875 132.174804688 2.5986328125 c 4,28,29
 82.6484375 9.8623046875 82.6484375 9.8623046875 58.1337890625 44.5380859375 c 4,30,31
 45.62109375 62.2392578125 45.62109375 62.2392578125 38.05078125 83.1142578125 c 132,-1,32
 30.48046875 103.990234375 30.48046875 103.990234375 28.044921875 129.352539062 c 132,-1,33
 25.609375 154.715820312 25.609375 154.715820312 25.1455078125 172.127929688 c 132,-1,34
 24.6806640625 189.5390625 24.6806640625 189.5390625 25.7041015625 219.583007812 c 132,-1,35
 26.7265625 249.626953125 26.7265625 249.626953125 26.748046875 260.59375 c 4,36,37
 26.875 324.6953125 26.875 324.6953125 32.9697265625 365.774414062 c 132,-1,38
 39.0654296875 406.852539062 39.0654296875 406.852539062 56.5400390625 436.848632812 c 4,39,40
 93.0986328125 499.588867188 93.0986328125 499.588867188 188.017578125 499.588867188 c 4,0,1
188.017578125 439.155273438 m 4,41,42
 152.938476562 439.159179688 152.938476562 439.159179688 136.189453125 431.958984375 c 132,-1,43
 119.44140625 424.759765625 119.44140625 424.759765625 108.763671875 406.431640625 c 4,44,45
 89.7763671875 373.833007812 89.7763671875 373.833007812 87.5234375 282.909179688 c 5,46,-1
 197.385742188 283.046875 l 6,47,48
 241.052734375 283.100585938 241.052734375 283.100585938 259.862304688 294.125976562 c 4,49,50
 271.404296875 300.889648438 271.404296875 300.889648438 276.833984375 311.759765625 c 132,-1,51
 282.262695312 322.62890625 282.262695312 322.62890625 282.262695312 347.102539062 c 4,52,53
 282.262695312 396.446289062 282.262695312 396.446289062 264.61328125 416.338867188 c 4,54,55
 244.37109375 439.155273438 244.37109375 439.155273438 188.017578125 439.155273438 c 4,41,42
EndSplineSet
EndChar

StartChar: edieresis
Encoding: 235 235 65
Width: 392
VWidth: 0
Flags: W
LayerCount: 2
Fore
SplineSet
188.017578125 499.588867188 m 4,0,1
 271.530273438 499.604492188 271.530273438 499.604492188 309.811523438 456.448242188 c 4,2,3
 342.686523438 419.392578125 342.686523438 419.392578125 342.686523438 347.10546875 c 4,4,5
 342.686523438 310.840820312 342.686523438 310.840820312 328.43359375 283.380859375 c 132,-1,6
 314.180664062 255.920898438 314.180664062 255.920898438 290.413085938 241.991210938 c 4,7,8
 257.487304688 222.692382812 257.487304688 222.692382812 197.452148438 222.616210938 c 6,9,-1
 87.17578125 222.478515625 l 5,10,11
 87.33984375 107.904296875 87.33984375 107.904296875 107.475585938 79.4228515625 c 4,12,13
 114.233398438 69.8642578125 114.233398438 69.8642578125 118.647460938 67.439453125 c 132,-1,14
 123.060546875 65.0146484375 123.060546875 65.0146484375 140.9375 62.3935546875 c 4,15,16
 172.921875 57.7021484375 172.921875 57.7021484375 291.137695312 60.2314453125 c 4,17,18
 291.653320312 60.2490234375 291.653320312 60.2490234375 292.174804688 60.2490234375 c 4,19,20
 304.685546875 60.2490234375 304.685546875 60.2490234375 313.540039062 51.39453125 c 132,-1,21
 322.393554688 42.541015625 322.393554688 42.541015625 322.393554688 30.0302734375 c 4,22,23
 322.393554688 21.8955078125 322.393554688 21.8955078125 318.3828125 14.9580078125 c 132,-1,24
 314.37109375 8.021484375 314.37109375 8.021484375 307.467773438 3.951171875 c 132,-1,25
 300.565429688 -0.119140625 300.565429688 -0.119140625 292.4296875 -0.1875 c 4,26,27
 169.166015625 -2.82421875 169.166015625 -2.82421875 132.174804688 2.5986328125 c 4,28,29
 82.6484375 9.8623046875 82.6484375 9.8623046875 58.1337890625 44.5380859375 c 4,30,31
 45.62109375 62.2392578125 45.62109375 62.2392578125 38.05078125 83.1142578125 c 132,-1,32
 30.48046875 103.990234375 30.48046875 103.990234375 28.044921875 129.352539062 c 132,-1,33
 25.609375 154.715820312 25.609375 154.715820312 25.1455078125 172.127929688 c 132,-1,34
 24.6806640625 189.5390625 24.6806640625 189.5390625 25.7041015625 219.583007812 c 132,-1,35
 26.7265625 249.626953125 26.7265625 249.626953125 26.748046875 260.59375 c 4,36,37
 26.875 324.6953125 26.875 324.6953125 32.9697265625 365.774414062 c 132,-1,38
 39.0654296875 406.852539062 39.0654296875 406.852539062 56.5400390625 436.848632812 c 4,39,40
 93.0986328125 499.588867188 93.0986328125 499.588867188 188.017578125 499.588867188 c 4,0,1
188.017578125 439.155273438 m 4,41,42
 152.938476562 439.159179688 152.938476562 439.159179688 136.189453125 431.958984375 c 132,-1,43
 119.44140625 424.759765625 119.44140625 424.759765625 108.763671875 406.431640625 c 4,44,45
 89.7763671875 373.833007812 89.7763671875 373.833007812 87.5234375 282.909179688 c 5,46,-1
 197.385742188 283.046875 l 6,47,48
 241.052734375 283.100585938 241.052734375 283.100585938 259.862304688 294.125976562 c 4,49,50
 271.404296875 300.889648438 271.404296875 300.889648438 276.833984375 311.759765625 c 132,-1,51
 282.262695312 322.62890625 282.262695312 322.62890625 282.262695312 347.102539062 c 4,52,53
 282.262695312 396.446289062 282.262695312 396.446289062 264.61328125 416.338867188 c 4,54,55
 244.37109375 439.155273438 244.37109375 439.155273438 188.017578125 439.155273438 c 4,41,42
EndSplineSet
EndChar

StartChar: egrave
Encoding: 232 232 66
Width: 392
VWidth: 0
Flags: W
LayerCount: 2
Fore
SplineSet
188.017578125 499.588867188 m 4,0,1
 271.530273438 499.604492188 271.530273438 499.604492188 309.811523438 456.448242188 c 4,2,3
 342.686523438 419.392578125 342.686523438 419.392578125 342.686523438 347.10546875 c 4,4,5
 342.686523438 310.840820312 342.686523438 310.840820312 328.43359375 283.380859375 c 132,-1,6
 314.180664062 255.920898438 314.180664062 255.920898438 290.413085938 241.991210938 c 4,7,8
 257.487304688 222.692382812 257.487304688 222.692382812 197.452148438 222.616210938 c 6,9,-1
 87.17578125 222.478515625 l 5,10,11
 87.33984375 107.904296875 87.33984375 107.904296875 107.475585938 79.4228515625 c 4,12,13
 114.233398438 69.8642578125 114.233398438 69.8642578125 118.647460938 67.439453125 c 132,-1,14
 123.060546875 65.0146484375 123.060546875 65.0146484375 140.9375 62.3935546875 c 4,15,16
 172.921875 57.7021484375 172.921875 57.7021484375 291.137695312 60.2314453125 c 4,17,18
 291.653320312 60.2490234375 291.653320312 60.2490234375 292.174804688 60.2490234375 c 4,19,20
 304.685546875 60.2490234375 304.685546875 60.2490234375 313.540039062 51.39453125 c 132,-1,21
 322.393554688 42.541015625 322.393554688 42.541015625 322.393554688 30.0302734375 c 4,22,23
 322.393554688 21.8955078125 322.393554688 21.8955078125 318.3828125 14.9580078125 c 132,-1,24
 314.37109375 8.021484375 314.37109375 8.021484375 307.467773438 3.951171875 c 132,-1,25
 300.565429688 -0.119140625 300.565429688 -0.119140625 292.4296875 -0.1875 c 4,26,27
 169.166015625 -2.82421875 169.166015625 -2.82421875 132.174804688 2.5986328125 c 4,28,29
 82.6484375 9.8623046875 82.6484375 9.8623046875 58.1337890625 44.5380859375 c 4,30,31
 45.62109375 62.2392578125 45.62109375 62.2392578125 38.05078125 83.1142578125 c 132,-1,32
 30.48046875 103.990234375 30.48046875 103.990234375 28.044921875 129.352539062 c 132,-1,33
 25.609375 154.715820312 25.609375 154.715820312 25.1455078125 172.127929688 c 132,-1,34
 24.6806640625 189.5390625 24.6806640625 189.5390625 25.7041015625 219.583007812 c 132,-1,35
 26.7265625 249.626953125 26.7265625 249.626953125 26.748046875 260.59375 c 4,36,37
 26.875 324.6953125 26.875 324.6953125 32.9697265625 365.774414062 c 132,-1,38
 39.0654296875 406.852539062 39.0654296875 406.852539062 56.5400390625 436.848632812 c 4,39,40
 93.0986328125 499.588867188 93.0986328125 499.588867188 188.017578125 499.588867188 c 4,0,1
188.017578125 439.155273438 m 4,41,42
 152.938476562 439.159179688 152.938476562 439.159179688 136.189453125 431.958984375 c 132,-1,43
 119.44140625 424.759765625 119.44140625 424.759765625 108.763671875 406.431640625 c 4,44,45
 89.7763671875 373.833007812 89.7763671875 373.833007812 87.5234375 282.909179688 c 5,46,-1
 197.385742188 283.046875 l 6,47,48
 241.052734375 283.100585938 241.052734375 283.100585938 259.862304688 294.125976562 c 4,49,50
 271.404296875 300.889648438 271.404296875 300.889648438 276.833984375 311.759765625 c 132,-1,51
 282.262695312 322.62890625 282.262695312 322.62890625 282.262695312 347.102539062 c 4,52,53
 282.262695312 396.446289062 282.262695312 396.446289062 264.61328125 416.338867188 c 4,54,55
 244.37109375 439.155273438 244.37109375 439.155273438 188.017578125 439.155273438 c 4,41,42
EndSplineSet
EndChar

StartChar: eacute
Encoding: 233 233 67
Width: 392
VWidth: 0
Flags: W
LayerCount: 2
Fore
SplineSet
188.017578125 499.588867188 m 4,0,1
 271.530273438 499.604492188 271.530273438 499.604492188 309.811523438 456.448242188 c 4,2,3
 342.686523438 419.392578125 342.686523438 419.392578125 342.686523438 347.10546875 c 4,4,5
 342.686523438 310.840820312 342.686523438 310.840820312 328.43359375 283.380859375 c 132,-1,6
 314.180664062 255.920898438 314.180664062 255.920898438 290.413085938 241.991210938 c 4,7,8
 257.487304688 222.692382812 257.487304688 222.692382812 197.452148438 222.616210938 c 6,9,-1
 87.17578125 222.478515625 l 5,10,11
 87.33984375 107.904296875 87.33984375 107.904296875 107.475585938 79.4228515625 c 4,12,13
 114.233398438 69.8642578125 114.233398438 69.8642578125 118.647460938 67.439453125 c 132,-1,14
 123.060546875 65.0146484375 123.060546875 65.0146484375 140.9375 62.3935546875 c 4,15,16
 172.921875 57.7021484375 172.921875 57.7021484375 291.137695312 60.2314453125 c 4,17,18
 291.653320312 60.2490234375 291.653320312 60.2490234375 292.174804688 60.2490234375 c 4,19,20
 304.685546875 60.2490234375 304.685546875 60.2490234375 313.540039062 51.39453125 c 132,-1,21
 322.393554688 42.541015625 322.393554688 42.541015625 322.393554688 30.0302734375 c 4,22,23
 322.393554688 21.8955078125 322.393554688 21.8955078125 318.3828125 14.9580078125 c 132,-1,24
 314.37109375 8.021484375 314.37109375 8.021484375 307.467773438 3.951171875 c 132,-1,25
 300.565429688 -0.119140625 300.565429688 -0.119140625 292.4296875 -0.1875 c 4,26,27
 169.166015625 -2.82421875 169.166015625 -2.82421875 132.174804688 2.5986328125 c 4,28,29
 82.6484375 9.8623046875 82.6484375 9.8623046875 58.1337890625 44.5380859375 c 4,30,31
 45.62109375 62.2392578125 45.62109375 62.2392578125 38.05078125 83.1142578125 c 132,-1,32
 30.48046875 103.990234375 30.48046875 103.990234375 28.044921875 129.352539062 c 132,-1,33
 25.609375 154.715820312 25.609375 154.715820312 25.1455078125 172.127929688 c 132,-1,34
 24.6806640625 189.5390625 24.6806640625 189.5390625 25.7041015625 219.583007812 c 132,-1,35
 26.7265625 249.626953125 26.7265625 249.626953125 26.748046875 260.59375 c 4,36,37
 26.875 324.6953125 26.875 324.6953125 32.9697265625 365.774414062 c 132,-1,38
 39.0654296875 406.852539062 39.0654296875 406.852539062 56.5400390625 436.848632812 c 4,39,40
 93.0986328125 499.588867188 93.0986328125 499.588867188 188.017578125 499.588867188 c 4,0,1
188.017578125 439.155273438 m 4,41,42
 152.938476562 439.159179688 152.938476562 439.159179688 136.189453125 431.958984375 c 132,-1,43
 119.44140625 424.759765625 119.44140625 424.759765625 108.763671875 406.431640625 c 4,44,45
 89.7763671875 373.833007812 89.7763671875 373.833007812 87.5234375 282.909179688 c 5,46,-1
 197.385742188 283.046875 l 6,47,48
 241.052734375 283.100585938 241.052734375 283.100585938 259.862304688 294.125976562 c 4,49,50
 271.404296875 300.889648438 271.404296875 300.889648438 276.833984375 311.759765625 c 132,-1,51
 282.262695312 322.62890625 282.262695312 322.62890625 282.262695312 347.102539062 c 4,52,53
 282.262695312 396.446289062 282.262695312 396.446289062 264.61328125 416.338867188 c 4,54,55
 244.37109375 439.155273438 244.37109375 439.155273438 188.017578125 439.155273438 c 4,41,42
EndSplineSet
EndChar

StartChar: ccedilla
Encoding: 231 231 68
Width: 391
VWidth: 0
Flags: W
LayerCount: 2
Fore
SplineSet
211.478515625 500.77734375 m 0,0,1
 225.389648438 500.924804688 225.389648438 500.924804688 257.926757812 500.352539062 c 128,-1,2
 290.46484375 499.780273438 290.46484375 499.780273438 310.1640625 499.80859375 c 0,3,4
 323.219726562 499.8125 323.219726562 499.8125 332.112304688 490.919921875 c 128,-1,5
 341.004882812 482.02734375 341.004882812 482.02734375 341.004882812 469.461914062 c 128,-1,6
 341.004882812 456.897460938 341.004882812 456.897460938 332.112304688 448.004882812 c 128,-1,7
 323.219726562 439.112304688 323.219726562 439.112304688 310.654296875 439.112304688 c 0,8,9
 289.756835938 439.0859375 289.756835938 439.0859375 260.813476562 439.53515625 c 128,-1,10
 231.87109375 439.984375 231.87109375 439.984375 220.7109375 440.047851562 c 128,-1,11
 209.549804688 440.110351562 209.549804688 440.110351562 188.784179688 439.297851562 c 0,12,13
 149.419921875 436.7421875 149.419921875 436.7421875 124.123046875 419.224609375 c 0,14,15
 100.43359375 402.817382812 100.43359375 402.817382812 91.3046875 344.96875 c 0,16,17
 85.8056640625 310.116210938 85.8056640625 310.116210938 85.701171875 236.190429688 c 0,18,-1
 85.701171875 236.184570312 l 2,19,20
 85.599609375 174.783203125 85.599609375 174.783203125 93.5498046875 134.83984375 c 0,21,22
 98.1044921875 111.961914062 98.1044921875 111.961914062 106.250976562 95.7490234375 c 128,-1,23
 114.3984375 79.537109375 114.3984375 79.537109375 121.6796875 75.54296875 c 0,24,25
 146.350585938 62.01171875 146.350585938 62.01171875 187.567382812 59.693359375 c 0,26,27
 198.350585938 59.0869140625 198.350585938 59.0869140625 310.022460938 59.7890625 c 0,28,29
 310.313476562 59.7958984375 310.313476562 59.7958984375 310.62109375 59.7958984375 c 0,30,31
 323.186523438 59.7958984375 323.186523438 59.7958984375 332.079101562 50.9033203125 c 128,-1,32
 340.971679688 42.009765625 340.971679688 42.009765625 340.971679688 29.4453125 c 128,-1,33
 340.971679688 16.880859375 340.971679688 16.880859375 332.079101562 7.98828125 c 128,-1,34
 323.186523438 -0.904296875 323.186523438 -0.904296875 310.62109375 -0.904296875 c 0,35,36
 196.844726562 -1.6181640625 196.844726562 -1.6181640625 184.150390625 -0.904296875 c 0,37,38
 129.20703125 2.1875 129.20703125 2.1875 92.4833984375 22.3291015625 c 0,39,40
 49.34375 45.9921875 49.34375 45.9921875 34.015625 122.993164062 c 0,41,42
 24.8896484375 168.834960938 24.8896484375 168.834960938 25.0009765625 236.270507812 c 0,43,44
 25.111328125 314.913085938 25.111328125 314.913085938 31.345703125 354.42578125 c 0,45,46
 44.5224609375 437.922851562 44.5224609375 437.922851562 89.5625 469.115234375 c 0,47,48
 128.694335938 496.213867188 128.694335938 496.213867188 184.846679688 499.859375 c 0,49,50
 196.703125 500.62890625 196.703125 500.62890625 211.478515625 500.77734375 c 0,0,1
EndSplineSet
EndChar

StartChar: aacute
Encoding: 225 225 69
Width: 394
VWidth: 0
Flags: W
LayerCount: 2
Fore
SplineSet
146.288085938 499.555664062 m 0,0,1
 212.4375 499.443359375 212.4375 499.443359375 244.883789062 492.015625 c 0,2,3
 276.266601562 484.83203125 276.266601562 484.83203125 307.302734375 456.801757812 c 0,4,-1
 307.310546875 456.793945312 l 2,5,6
 344.62890625 423.069335938 344.62890625 423.069335938 344.590820312 350.701171875 c 2,7,-1
 344.421875 29.6904296875 l 1,8,-1
 344.423828125 29.2978515625 l 2,9,10
 344.423828125 22.1162109375 344.423828125 22.1162109375 340.904296875 15.6298828125 c 128,-1,11
 337.385742188 9.1435546875 337.385742188 9.1435546875 331.330078125 4.9267578125 c 128,-1,12
 325.2734375 0.708984375 325.2734375 0.708984375 318.13671875 -0.0869140625 c 0,13,14
 314.403320312 -1.08203125 314.403320312 -1.08203125 310.533203125 -1.08203125 c 0,15,16
 287.904296875 -1.080078125 287.904296875 -1.080078125 245.524414062 -1.8740234375 c 128,-1,17
 203.145507812 -2.66796875 203.145507812 -2.66796875 184.88671875 -2.4296875 c 128,-1,18
 166.626953125 -2.1923828125 166.626953125 -2.1923828125 141.573242188 0.921875 c 128,-1,19
 116.51953125 4.037109375 116.51953125 4.037109375 98.3046875 10.953125 c 0,20,21
 56.888671875 26.677734375 56.888671875 26.677734375 39.67578125 67.4521484375 c 0,22,23
 25 102.219726562 25 102.219726562 25 167.486328125 c 0,24,25
 25 227.40625 25 227.40625 68.001953125 260.305664062 c 0,26,27
 103.373046875 287.368164062 103.373046875 287.368164062 156.840820312 287.436523438 c 0,28,-1
 285.432617188 287.57421875 l 1,29,-1
 285.466796875 350.73046875 l 2,30,31
 285.4765625 368.551757812 285.4765625 368.551757812 280.997070312 384.055664062 c 128,-1,32
 276.518554688 399.559570312 276.518554688 399.559570312 272.979492188 405.440429688 c 128,-1,33
 269.440429688 411.322265625 269.440429688 411.322265625 267.668945312 412.921875 c 0,34,35
 265.614257812 414.778320312 265.614257812 414.778320312 261.353515625 418.744140625 c 128,-1,36
 257.092773438 422.7109375 257.092773438 422.7109375 255.931640625 423.645507812 c 128,-1,37
 254.770507812 424.579101562 254.770507812 424.579101562 251.705078125 426.86328125 c 128,-1,38
 248.639648438 429.147460938 248.639648438 429.147460938 246.374023438 429.94921875 c 128,-1,39
 244.108398438 430.75 244.108398438 430.75 240.412109375 431.987304688 c 128,-1,40
 236.716796875 433.224609375 236.716796875 433.224609375 231.694335938 434.374023438 c 0,41,42
 198.213867188 442.036132812 198.213867188 442.036132812 95.2607421875 439.834960938 c 0,43,44
 94.720703125 439.81640625 94.720703125 439.81640625 94.23046875 439.81640625 c 0,45,46
 81.9892578125 439.81640625 81.9892578125 439.81640625 73.326171875 448.48046875 c 128,-1,47
 64.6630859375 457.143554688 64.6630859375 457.143554688 64.6630859375 469.384765625 c 128,-1,48
 64.6630859375 481.529296875 64.6630859375 481.529296875 73.2578125 490.192382812 c 128,-1,49
 81.8525390625 498.85546875 81.8525390625 498.85546875 93.9970703125 498.951171875 c 0,50,51
 123.995117188 499.59375 123.995117188 499.59375 146.288085938 499.555664062 c 0,0,1
285.399414062 228.444335938 m 1,52,-1
 156.916015625 228.30859375 l 2,53,54
 123.434570312 228.265625 123.434570312 228.265625 103.935546875 213.346679688 c 0,55,56
 84.1357421875 198.198242188 84.1357421875 198.198242188 84.1357421875 167.490234375 c 0,57,58
 84.1357421875 114.1875 84.1357421875 114.1875 94.1552734375 90.4521484375 c 0,59,60
 98.58984375 79.947265625 98.58984375 79.947265625 103.71875 75.076171875 c 128,-1,61
 108.84765625 70.2041015625 108.84765625 70.2041015625 119.298828125 66.236328125 c 0,62,63
 142.390625 57.46875 142.390625 57.46875 265.56640625 57.9404296875 c 0,64,65
 278.543945312 57.990234375 278.543945312 57.990234375 285.309570312 58.0107421875 c 1,66,-1
 285.399414062 228.444335938 l 1,52,-1
EndSplineSet
EndChar

StartChar: acircumflex
Encoding: 226 226 70
Width: 394
VWidth: 0
Flags: W
LayerCount: 2
Fore
SplineSet
146.288085938 499.555664062 m 0,0,1
 212.4375 499.443359375 212.4375 499.443359375 244.883789062 492.015625 c 0,2,3
 276.266601562 484.83203125 276.266601562 484.83203125 307.302734375 456.801757812 c 0,4,-1
 307.310546875 456.793945312 l 2,5,6
 344.62890625 423.069335938 344.62890625 423.069335938 344.590820312 350.701171875 c 2,7,-1
 344.421875 29.6904296875 l 1,8,-1
 344.423828125 29.2978515625 l 2,9,10
 344.423828125 22.1162109375 344.423828125 22.1162109375 340.904296875 15.6298828125 c 128,-1,11
 337.385742188 9.1435546875 337.385742188 9.1435546875 331.330078125 4.9267578125 c 128,-1,12
 325.2734375 0.708984375 325.2734375 0.708984375 318.13671875 -0.0869140625 c 0,13,14
 314.403320312 -1.08203125 314.403320312 -1.08203125 310.533203125 -1.08203125 c 0,15,16
 287.904296875 -1.080078125 287.904296875 -1.080078125 245.524414062 -1.8740234375 c 128,-1,17
 203.145507812 -2.66796875 203.145507812 -2.66796875 184.88671875 -2.4296875 c 128,-1,18
 166.626953125 -2.1923828125 166.626953125 -2.1923828125 141.573242188 0.921875 c 128,-1,19
 116.51953125 4.037109375 116.51953125 4.037109375 98.3046875 10.953125 c 0,20,21
 56.888671875 26.677734375 56.888671875 26.677734375 39.67578125 67.4521484375 c 0,22,23
 25 102.219726562 25 102.219726562 25 167.486328125 c 0,24,25
 25 227.40625 25 227.40625 68.001953125 260.305664062 c 0,26,27
 103.373046875 287.368164062 103.373046875 287.368164062 156.840820312 287.436523438 c 0,28,-1
 285.432617188 287.57421875 l 1,29,-1
 285.466796875 350.73046875 l 2,30,31
 285.4765625 368.551757812 285.4765625 368.551757812 280.997070312 384.055664062 c 128,-1,32
 276.518554688 399.559570312 276.518554688 399.559570312 272.979492188 405.440429688 c 128,-1,33
 269.440429688 411.322265625 269.440429688 411.322265625 267.668945312 412.921875 c 0,34,35
 265.614257812 414.778320312 265.614257812 414.778320312 261.353515625 418.744140625 c 128,-1,36
 257.092773438 422.7109375 257.092773438 422.7109375 255.931640625 423.645507812 c 128,-1,37
 254.770507812 424.579101562 254.770507812 424.579101562 251.705078125 426.86328125 c 128,-1,38
 248.639648438 429.147460938 248.639648438 429.147460938 246.374023438 429.94921875 c 128,-1,39
 244.108398438 430.75 244.108398438 430.75 240.412109375 431.987304688 c 128,-1,40
 236.716796875 433.224609375 236.716796875 433.224609375 231.694335938 434.374023438 c 0,41,42
 198.213867188 442.036132812 198.213867188 442.036132812 95.2607421875 439.834960938 c 0,43,44
 94.720703125 439.81640625 94.720703125 439.81640625 94.23046875 439.81640625 c 0,45,46
 81.9892578125 439.81640625 81.9892578125 439.81640625 73.326171875 448.48046875 c 128,-1,47
 64.6630859375 457.143554688 64.6630859375 457.143554688 64.6630859375 469.384765625 c 128,-1,48
 64.6630859375 481.529296875 64.6630859375 481.529296875 73.2578125 490.192382812 c 128,-1,49
 81.8525390625 498.85546875 81.8525390625 498.85546875 93.9970703125 498.951171875 c 0,50,51
 123.995117188 499.59375 123.995117188 499.59375 146.288085938 499.555664062 c 0,0,1
285.399414062 228.444335938 m 1,52,-1
 156.916015625 228.30859375 l 2,53,54
 123.434570312 228.265625 123.434570312 228.265625 103.935546875 213.346679688 c 0,55,56
 84.1357421875 198.198242188 84.1357421875 198.198242188 84.1357421875 167.490234375 c 0,57,58
 84.1357421875 114.1875 84.1357421875 114.1875 94.1552734375 90.4521484375 c 0,59,60
 98.58984375 79.947265625 98.58984375 79.947265625 103.71875 75.076171875 c 128,-1,61
 108.84765625 70.2041015625 108.84765625 70.2041015625 119.298828125 66.236328125 c 0,62,63
 142.390625 57.46875 142.390625 57.46875 265.56640625 57.9404296875 c 0,64,65
 278.543945312 57.990234375 278.543945312 57.990234375 285.309570312 58.0107421875 c 1,66,-1
 285.399414062 228.444335938 l 1,52,-1
EndSplineSet
EndChar

StartChar: atilde
Encoding: 227 227 71
Width: 394
VWidth: 0
Flags: W
LayerCount: 2
Fore
SplineSet
146.288085938 499.555664062 m 0,0,1
 212.4375 499.443359375 212.4375 499.443359375 244.883789062 492.015625 c 0,2,3
 276.266601562 484.83203125 276.266601562 484.83203125 307.302734375 456.801757812 c 0,4,-1
 307.310546875 456.793945312 l 2,5,6
 344.62890625 423.069335938 344.62890625 423.069335938 344.590820312 350.701171875 c 2,7,-1
 344.421875 29.6904296875 l 1,8,-1
 344.423828125 29.2978515625 l 2,9,10
 344.423828125 22.1162109375 344.423828125 22.1162109375 340.904296875 15.6298828125 c 128,-1,11
 337.385742188 9.1435546875 337.385742188 9.1435546875 331.330078125 4.9267578125 c 128,-1,12
 325.2734375 0.708984375 325.2734375 0.708984375 318.13671875 -0.0869140625 c 0,13,14
 314.403320312 -1.08203125 314.403320312 -1.08203125 310.533203125 -1.08203125 c 0,15,16
 287.904296875 -1.080078125 287.904296875 -1.080078125 245.524414062 -1.8740234375 c 128,-1,17
 203.145507812 -2.66796875 203.145507812 -2.66796875 184.88671875 -2.4296875 c 128,-1,18
 166.626953125 -2.1923828125 166.626953125 -2.1923828125 141.573242188 0.921875 c 128,-1,19
 116.51953125 4.037109375 116.51953125 4.037109375 98.3046875 10.953125 c 0,20,21
 56.888671875 26.677734375 56.888671875 26.677734375 39.67578125 67.4521484375 c 0,22,23
 25 102.219726562 25 102.219726562 25 167.486328125 c 0,24,25
 25 227.40625 25 227.40625 68.001953125 260.305664062 c 0,26,27
 103.373046875 287.368164062 103.373046875 287.368164062 156.840820312 287.436523438 c 0,28,-1
 285.432617188 287.57421875 l 1,29,-1
 285.466796875 350.73046875 l 2,30,31
 285.4765625 368.551757812 285.4765625 368.551757812 280.997070312 384.055664062 c 128,-1,32
 276.518554688 399.559570312 276.518554688 399.559570312 272.979492188 405.440429688 c 128,-1,33
 269.440429688 411.322265625 269.440429688 411.322265625 267.668945312 412.921875 c 0,34,35
 265.614257812 414.778320312 265.614257812 414.778320312 261.353515625 418.744140625 c 128,-1,36
 257.092773438 422.7109375 257.092773438 422.7109375 255.931640625 423.645507812 c 128,-1,37
 254.770507812 424.579101562 254.770507812 424.579101562 251.705078125 426.86328125 c 128,-1,38
 248.639648438 429.147460938 248.639648438 429.147460938 246.374023438 429.94921875 c 128,-1,39
 244.108398438 430.75 244.108398438 430.75 240.412109375 431.987304688 c 128,-1,40
 236.716796875 433.224609375 236.716796875 433.224609375 231.694335938 434.374023438 c 0,41,42
 198.213867188 442.036132812 198.213867188 442.036132812 95.2607421875 439.834960938 c 0,43,44
 94.720703125 439.81640625 94.720703125 439.81640625 94.23046875 439.81640625 c 0,45,46
 81.9892578125 439.81640625 81.9892578125 439.81640625 73.326171875 448.48046875 c 128,-1,47
 64.6630859375 457.143554688 64.6630859375 457.143554688 64.6630859375 469.384765625 c 128,-1,48
 64.6630859375 481.529296875 64.6630859375 481.529296875 73.2578125 490.192382812 c 128,-1,49
 81.8525390625 498.85546875 81.8525390625 498.85546875 93.9970703125 498.951171875 c 0,50,51
 123.995117188 499.59375 123.995117188 499.59375 146.288085938 499.555664062 c 0,0,1
285.399414062 228.444335938 m 1,52,-1
 156.916015625 228.30859375 l 2,53,54
 123.434570312 228.265625 123.434570312 228.265625 103.935546875 213.346679688 c 0,55,56
 84.1357421875 198.198242188 84.1357421875 198.198242188 84.1357421875 167.490234375 c 0,57,58
 84.1357421875 114.1875 84.1357421875 114.1875 94.1552734375 90.4521484375 c 0,59,60
 98.58984375 79.947265625 98.58984375 79.947265625 103.71875 75.076171875 c 128,-1,61
 108.84765625 70.2041015625 108.84765625 70.2041015625 119.298828125 66.236328125 c 0,62,63
 142.390625 57.46875 142.390625 57.46875 265.56640625 57.9404296875 c 0,64,65
 278.543945312 57.990234375 278.543945312 57.990234375 285.309570312 58.0107421875 c 1,66,-1
 285.399414062 228.444335938 l 1,52,-1
EndSplineSet
EndChar

StartChar: adieresis
Encoding: 228 228 72
Width: 394
VWidth: 0
Flags: W
LayerCount: 2
Fore
SplineSet
146.288085938 499.555664062 m 0,0,1
 212.4375 499.443359375 212.4375 499.443359375 244.883789062 492.015625 c 0,2,3
 276.266601562 484.83203125 276.266601562 484.83203125 307.302734375 456.801757812 c 0,4,-1
 307.310546875 456.793945312 l 2,5,6
 344.62890625 423.069335938 344.62890625 423.069335938 344.590820312 350.701171875 c 2,7,-1
 344.421875 29.6904296875 l 1,8,-1
 344.423828125 29.2978515625 l 2,9,10
 344.423828125 22.1162109375 344.423828125 22.1162109375 340.904296875 15.6298828125 c 128,-1,11
 337.385742188 9.1435546875 337.385742188 9.1435546875 331.330078125 4.9267578125 c 128,-1,12
 325.2734375 0.708984375 325.2734375 0.708984375 318.13671875 -0.0869140625 c 0,13,14
 314.403320312 -1.08203125 314.403320312 -1.08203125 310.533203125 -1.08203125 c 0,15,16
 287.904296875 -1.080078125 287.904296875 -1.080078125 245.524414062 -1.8740234375 c 128,-1,17
 203.145507812 -2.66796875 203.145507812 -2.66796875 184.88671875 -2.4296875 c 128,-1,18
 166.626953125 -2.1923828125 166.626953125 -2.1923828125 141.573242188 0.921875 c 128,-1,19
 116.51953125 4.037109375 116.51953125 4.037109375 98.3046875 10.953125 c 0,20,21
 56.888671875 26.677734375 56.888671875 26.677734375 39.67578125 67.4521484375 c 0,22,23
 25 102.219726562 25 102.219726562 25 167.486328125 c 0,24,25
 25 227.40625 25 227.40625 68.001953125 260.305664062 c 0,26,27
 103.373046875 287.368164062 103.373046875 287.368164062 156.840820312 287.436523438 c 0,28,-1
 285.432617188 287.57421875 l 1,29,-1
 285.466796875 350.73046875 l 2,30,31
 285.4765625 368.551757812 285.4765625 368.551757812 280.997070312 384.055664062 c 128,-1,32
 276.518554688 399.559570312 276.518554688 399.559570312 272.979492188 405.440429688 c 128,-1,33
 269.440429688 411.322265625 269.440429688 411.322265625 267.668945312 412.921875 c 0,34,35
 265.614257812 414.778320312 265.614257812 414.778320312 261.353515625 418.744140625 c 128,-1,36
 257.092773438 422.7109375 257.092773438 422.7109375 255.931640625 423.645507812 c 128,-1,37
 254.770507812 424.579101562 254.770507812 424.579101562 251.705078125 426.86328125 c 128,-1,38
 248.639648438 429.147460938 248.639648438 429.147460938 246.374023438 429.94921875 c 128,-1,39
 244.108398438 430.75 244.108398438 430.75 240.412109375 431.987304688 c 128,-1,40
 236.716796875 433.224609375 236.716796875 433.224609375 231.694335938 434.374023438 c 0,41,42
 198.213867188 442.036132812 198.213867188 442.036132812 95.2607421875 439.834960938 c 0,43,44
 94.720703125 439.81640625 94.720703125 439.81640625 94.23046875 439.81640625 c 0,45,46
 81.9892578125 439.81640625 81.9892578125 439.81640625 73.326171875 448.48046875 c 128,-1,47
 64.6630859375 457.143554688 64.6630859375 457.143554688 64.6630859375 469.384765625 c 128,-1,48
 64.6630859375 481.529296875 64.6630859375 481.529296875 73.2578125 490.192382812 c 128,-1,49
 81.8525390625 498.85546875 81.8525390625 498.85546875 93.9970703125 498.951171875 c 0,50,51
 123.995117188 499.59375 123.995117188 499.59375 146.288085938 499.555664062 c 0,0,1
285.399414062 228.444335938 m 1,52,-1
 156.916015625 228.30859375 l 2,53,54
 123.434570312 228.265625 123.434570312 228.265625 103.935546875 213.346679688 c 0,55,56
 84.1357421875 198.198242188 84.1357421875 198.198242188 84.1357421875 167.490234375 c 0,57,58
 84.1357421875 114.1875 84.1357421875 114.1875 94.1552734375 90.4521484375 c 0,59,60
 98.58984375 79.947265625 98.58984375 79.947265625 103.71875 75.076171875 c 128,-1,61
 108.84765625 70.2041015625 108.84765625 70.2041015625 119.298828125 66.236328125 c 0,62,63
 142.390625 57.46875 142.390625 57.46875 265.56640625 57.9404296875 c 0,64,65
 278.543945312 57.990234375 278.543945312 57.990234375 285.309570312 58.0107421875 c 1,66,-1
 285.399414062 228.444335938 l 1,52,-1
EndSplineSet
EndChar

StartChar: aring
Encoding: 229 229 73
Width: 394
VWidth: 0
Flags: W
LayerCount: 2
Fore
SplineSet
146.288085938 499.555664062 m 0,0,1
 212.4375 499.443359375 212.4375 499.443359375 244.883789062 492.015625 c 0,2,3
 276.266601562 484.83203125 276.266601562 484.83203125 307.302734375 456.801757812 c 0,4,-1
 307.310546875 456.793945312 l 2,5,6
 344.62890625 423.069335938 344.62890625 423.069335938 344.590820312 350.701171875 c 2,7,-1
 344.421875 29.6904296875 l 1,8,-1
 344.423828125 29.2978515625 l 2,9,10
 344.423828125 22.1162109375 344.423828125 22.1162109375 340.904296875 15.6298828125 c 128,-1,11
 337.385742188 9.1435546875 337.385742188 9.1435546875 331.330078125 4.9267578125 c 128,-1,12
 325.2734375 0.708984375 325.2734375 0.708984375 318.13671875 -0.0869140625 c 0,13,14
 314.403320312 -1.08203125 314.403320312 -1.08203125 310.533203125 -1.08203125 c 0,15,16
 287.904296875 -1.080078125 287.904296875 -1.080078125 245.524414062 -1.8740234375 c 128,-1,17
 203.145507812 -2.66796875 203.145507812 -2.66796875 184.88671875 -2.4296875 c 128,-1,18
 166.626953125 -2.1923828125 166.626953125 -2.1923828125 141.573242188 0.921875 c 128,-1,19
 116.51953125 4.037109375 116.51953125 4.037109375 98.3046875 10.953125 c 0,20,21
 56.888671875 26.677734375 56.888671875 26.677734375 39.67578125 67.4521484375 c 0,22,23
 25 102.219726562 25 102.219726562 25 167.486328125 c 0,24,25
 25 227.40625 25 227.40625 68.001953125 260.305664062 c 0,26,27
 103.373046875 287.368164062 103.373046875 287.368164062 156.840820312 287.436523438 c 0,28,-1
 285.432617188 287.57421875 l 1,29,-1
 285.466796875 350.73046875 l 2,30,31
 285.4765625 368.551757812 285.4765625 368.551757812 280.997070312 384.055664062 c 128,-1,32
 276.518554688 399.559570312 276.518554688 399.559570312 272.979492188 405.440429688 c 128,-1,33
 269.440429688 411.322265625 269.440429688 411.322265625 267.668945312 412.921875 c 0,34,35
 265.614257812 414.778320312 265.614257812 414.778320312 261.353515625 418.744140625 c 128,-1,36
 257.092773438 422.7109375 257.092773438 422.7109375 255.931640625 423.645507812 c 128,-1,37
 254.770507812 424.579101562 254.770507812 424.579101562 251.705078125 426.86328125 c 128,-1,38
 248.639648438 429.147460938 248.639648438 429.147460938 246.374023438 429.94921875 c 128,-1,39
 244.108398438 430.75 244.108398438 430.75 240.412109375 431.987304688 c 128,-1,40
 236.716796875 433.224609375 236.716796875 433.224609375 231.694335938 434.374023438 c 0,41,42
 198.213867188 442.036132812 198.213867188 442.036132812 95.2607421875 439.834960938 c 0,43,44
 94.720703125 439.81640625 94.720703125 439.81640625 94.23046875 439.81640625 c 0,45,46
 81.9892578125 439.81640625 81.9892578125 439.81640625 73.326171875 448.48046875 c 128,-1,47
 64.6630859375 457.143554688 64.6630859375 457.143554688 64.6630859375 469.384765625 c 128,-1,48
 64.6630859375 481.529296875 64.6630859375 481.529296875 73.2578125 490.192382812 c 128,-1,49
 81.8525390625 498.85546875 81.8525390625 498.85546875 93.9970703125 498.951171875 c 0,50,51
 123.995117188 499.59375 123.995117188 499.59375 146.288085938 499.555664062 c 0,0,1
285.399414062 228.444335938 m 1,52,-1
 156.916015625 228.30859375 l 2,53,54
 123.434570312 228.265625 123.434570312 228.265625 103.935546875 213.346679688 c 0,55,56
 84.1357421875 198.198242188 84.1357421875 198.198242188 84.1357421875 167.490234375 c 0,57,58
 84.1357421875 114.1875 84.1357421875 114.1875 94.1552734375 90.4521484375 c 0,59,60
 98.58984375 79.947265625 98.58984375 79.947265625 103.71875 75.076171875 c 128,-1,61
 108.84765625 70.2041015625 108.84765625 70.2041015625 119.298828125 66.236328125 c 0,62,63
 142.390625 57.46875 142.390625 57.46875 265.56640625 57.9404296875 c 0,64,65
 278.543945312 57.990234375 278.543945312 57.990234375 285.309570312 58.0107421875 c 1,66,-1
 285.399414062 228.444335938 l 1,52,-1
EndSplineSet
EndChar

StartChar: igrave
Encoding: 236 236 74
Width: 155
VWidth: 0
Flags: W
LayerCount: 2
Fore
SplineSet
65.2861328125 688.844726562 m 128,-1,1
 77.82421875 688.844726562 77.82421875 688.844726562 86.6982421875 679.971679688 c 128,-1,2
 95.5712890625 671.09765625 95.5712890625 671.09765625 95.5712890625 658.559570312 c 128,-1,3
 95.5712890625 646.021484375 95.5712890625 646.021484375 86.6982421875 637.1484375 c 128,-1,4
 77.82421875 628.275390625 77.82421875 628.275390625 65.2861328125 628.275390625 c 128,-1,5
 52.74609375 628.275390625 52.74609375 628.275390625 43.873046875 637.1484375 c 128,-1,6
 35 646.021484375 35 646.021484375 35 658.559570312 c 128,-1,7
 35 671.09765625 35 671.09765625 43.873046875 679.971679688 c 128,-1,0
 52.74609375 688.844726562 52.74609375 688.844726562 65.2861328125 688.844726562 c 128,-1,1
64.884765625 501.489257812 m 0,8,9
 77.875 501.4921875 77.875 501.4921875 86.7470703125 492.620117188 c 128,-1,10
 95.619140625 483.748046875 95.619140625 483.748046875 95.619140625 471.211914062 c 0,11,-1
 95.6162109375 29.794921875 l 1,12,-1
 95.619140625 29.3447265625 l 2,13,14
 95.619140625 16.8095703125 95.619140625 16.8095703125 86.7470703125 7.9375 c 128,-1,15
 77.875 -0.9345703125 77.875 -0.9345703125 65.33984375 -0.9345703125 c 128,-1,16
 52.8037109375 -0.9345703125 52.8037109375 -0.9345703125 43.931640625 7.9375 c 128,-1,17
 35.0595703125 16.8095703125 35.0595703125 16.8095703125 35.0595703125 29.3447265625 c 2,18,-1
 35.0625 29.794921875 l 1,19,-1
 35.0625 470.783203125 l 2,20,21
 35.0595703125 483.561523438 35.0595703125 483.561523438 43.798828125 492.431640625 c 128,-1,22
 52.537109375 501.302734375 52.537109375 501.302734375 64.884765625 501.489257812 c 0,8,9
EndSplineSet
EndChar

StartChar: iacute
Encoding: 237 237 75
Width: 155
VWidth: 0
Flags: W
LayerCount: 2
Fore
SplineSet
65.2861328125 688.844726562 m 128,-1,1
 77.82421875 688.844726562 77.82421875 688.844726562 86.6982421875 679.971679688 c 128,-1,2
 95.5712890625 671.09765625 95.5712890625 671.09765625 95.5712890625 658.559570312 c 128,-1,3
 95.5712890625 646.021484375 95.5712890625 646.021484375 86.6982421875 637.1484375 c 128,-1,4
 77.82421875 628.275390625 77.82421875 628.275390625 65.2861328125 628.275390625 c 128,-1,5
 52.74609375 628.275390625 52.74609375 628.275390625 43.873046875 637.1484375 c 128,-1,6
 35 646.021484375 35 646.021484375 35 658.559570312 c 128,-1,7
 35 671.09765625 35 671.09765625 43.873046875 679.971679688 c 128,-1,0
 52.74609375 688.844726562 52.74609375 688.844726562 65.2861328125 688.844726562 c 128,-1,1
64.884765625 501.489257812 m 0,8,9
 77.875 501.4921875 77.875 501.4921875 86.7470703125 492.620117188 c 128,-1,10
 95.619140625 483.748046875 95.619140625 483.748046875 95.619140625 471.211914062 c 0,11,-1
 95.6162109375 29.794921875 l 1,12,-1
 95.619140625 29.3447265625 l 2,13,14
 95.619140625 16.8095703125 95.619140625 16.8095703125 86.7470703125 7.9375 c 128,-1,15
 77.875 -0.9345703125 77.875 -0.9345703125 65.33984375 -0.9345703125 c 128,-1,16
 52.8037109375 -0.9345703125 52.8037109375 -0.9345703125 43.931640625 7.9375 c 128,-1,17
 35.0595703125 16.8095703125 35.0595703125 16.8095703125 35.0595703125 29.3447265625 c 2,18,-1
 35.0625 29.794921875 l 1,19,-1
 35.0625 470.783203125 l 2,20,21
 35.0595703125 483.561523438 35.0595703125 483.561523438 43.798828125 492.431640625 c 128,-1,22
 52.537109375 501.302734375 52.537109375 501.302734375 64.884765625 501.489257812 c 0,8,9
EndSplineSet
EndChar

StartChar: icircumflex
Encoding: 238 238 76
Width: 155
VWidth: 0
Flags: W
LayerCount: 2
Fore
SplineSet
65.2861328125 688.844726562 m 128,-1,1
 77.82421875 688.844726562 77.82421875 688.844726562 86.6982421875 679.971679688 c 128,-1,2
 95.5712890625 671.09765625 95.5712890625 671.09765625 95.5712890625 658.559570312 c 128,-1,3
 95.5712890625 646.021484375 95.5712890625 646.021484375 86.6982421875 637.1484375 c 128,-1,4
 77.82421875 628.275390625 77.82421875 628.275390625 65.2861328125 628.275390625 c 128,-1,5
 52.74609375 628.275390625 52.74609375 628.275390625 43.873046875 637.1484375 c 128,-1,6
 35 646.021484375 35 646.021484375 35 658.559570312 c 128,-1,7
 35 671.09765625 35 671.09765625 43.873046875 679.971679688 c 128,-1,0
 52.74609375 688.844726562 52.74609375 688.844726562 65.2861328125 688.844726562 c 128,-1,1
64.884765625 501.489257812 m 0,8,9
 77.875 501.4921875 77.875 501.4921875 86.7470703125 492.620117188 c 128,-1,10
 95.619140625 483.748046875 95.619140625 483.748046875 95.619140625 471.211914062 c 0,11,-1
 95.6162109375 29.794921875 l 1,12,-1
 95.619140625 29.3447265625 l 2,13,14
 95.619140625 16.8095703125 95.619140625 16.8095703125 86.7470703125 7.9375 c 128,-1,15
 77.875 -0.9345703125 77.875 -0.9345703125 65.33984375 -0.9345703125 c 128,-1,16
 52.8037109375 -0.9345703125 52.8037109375 -0.9345703125 43.931640625 7.9375 c 128,-1,17
 35.0595703125 16.8095703125 35.0595703125 16.8095703125 35.0595703125 29.3447265625 c 2,18,-1
 35.0625 29.794921875 l 1,19,-1
 35.0625 470.783203125 l 2,20,21
 35.0595703125 483.561523438 35.0595703125 483.561523438 43.798828125 492.431640625 c 128,-1,22
 52.537109375 501.302734375 52.537109375 501.302734375 64.884765625 501.489257812 c 0,8,9
EndSplineSet
EndChar

StartChar: idieresis
Encoding: 239 239 77
Width: 155
VWidth: 0
Flags: W
LayerCount: 2
Fore
SplineSet
65.2861328125 688.844726562 m 128,-1,1
 77.82421875 688.844726562 77.82421875 688.844726562 86.6982421875 679.971679688 c 128,-1,2
 95.5712890625 671.09765625 95.5712890625 671.09765625 95.5712890625 658.559570312 c 128,-1,3
 95.5712890625 646.021484375 95.5712890625 646.021484375 86.6982421875 637.1484375 c 128,-1,4
 77.82421875 628.275390625 77.82421875 628.275390625 65.2861328125 628.275390625 c 128,-1,5
 52.74609375 628.275390625 52.74609375 628.275390625 43.873046875 637.1484375 c 128,-1,6
 35 646.021484375 35 646.021484375 35 658.559570312 c 128,-1,7
 35 671.09765625 35 671.09765625 43.873046875 679.971679688 c 128,-1,0
 52.74609375 688.844726562 52.74609375 688.844726562 65.2861328125 688.844726562 c 128,-1,1
64.884765625 501.489257812 m 0,8,9
 77.875 501.4921875 77.875 501.4921875 86.7470703125 492.620117188 c 128,-1,10
 95.619140625 483.748046875 95.619140625 483.748046875 95.619140625 471.211914062 c 0,11,-1
 95.6162109375 29.794921875 l 1,12,-1
 95.619140625 29.3447265625 l 2,13,14
 95.619140625 16.8095703125 95.619140625 16.8095703125 86.7470703125 7.9375 c 128,-1,15
 77.875 -0.9345703125 77.875 -0.9345703125 65.33984375 -0.9345703125 c 128,-1,16
 52.8037109375 -0.9345703125 52.8037109375 -0.9345703125 43.931640625 7.9375 c 128,-1,17
 35.0595703125 16.8095703125 35.0595703125 16.8095703125 35.0595703125 29.3447265625 c 2,18,-1
 35.0625 29.794921875 l 1,19,-1
 35.0625 470.783203125 l 2,20,21
 35.0595703125 483.561523438 35.0595703125 483.561523438 43.798828125 492.431640625 c 128,-1,22
 52.537109375 501.302734375 52.537109375 501.302734375 64.884765625 501.489257812 c 0,8,9
EndSplineSet
EndChar

StartChar: eth
Encoding: 240 240 78
Width: 413
Flags: W
LayerCount: 2
Fore
SplineSet
194.299804688 501.611328125 m 1,0,1
 258.836914062 501.532226562 258.836914062 501.532226562 293.208007812 478.114257812 c 0,2,3
 337.66015625 453.670898438 337.66015625 453.670898438 351.444335938 379.204101562 c 0,4,5
 372.546875 267.763671875 372.546875 267.763671875 357.934570312 162.571289062 c 0,6,7
 357.35546875 159.47265625 357.35546875 159.47265625 355.140625 147.280273438 c 128,-1,8
 352.92578125 135.086914062 352.92578125 135.086914062 352.08984375 130.858398438 c 128,-1,9
 351.25390625 126.629882812 351.25390625 126.629882812 348.869140625 115.723632812 c 128,-1,10
 346.484375 104.817382812 346.484375 104.817382812 344.78125 99.5 c 128,-1,11
 343.078125 94.1826171875 343.078125 94.1826171875 339.96484375 84.9228515625 c 128,-1,12
 336.8515625 75.6640625 336.8515625 75.6640625 333.72265625 69.6171875 c 128,-1,13
 330.59375 63.5703125 330.59375 63.5703125 326.194335938 56.318359375 c 128,-1,14
 321.794921875 49.06640625 321.794921875 49.06640625 316.735351562 42.970703125 c 0,15,16
 285.641601562 11.2451171875 285.641601562 11.2451171875 237.868164062 0.6123046875 c 128,-1,17
 190.094726562 -10.0205078125 190.094726562 -10.0205078125 147.5234375 1.1923828125 c 0,18,19
 74.1044921875 20.20703125 74.1044921875 20.20703125 53.5400390625 72.453125 c 0,20,21
 12.6494140625 180.227539062 12.6494140625 180.227539062 30.3447265625 337.930664062 c 0,22,23
 35.708984375 372.8046875 35.708984375 372.8046875 38.515625 387.385742188 c 128,-1,24
 41.322265625 401.967773438 41.322265625 401.967773438 52.4130859375 427.494140625 c 128,-1,25
 63.50390625 453.020507812 63.50390625 453.020507812 80.7548828125 467.841796875 c 0,26,27
 121.776367188 502.983398438 121.776367188 502.983398438 194.299804688 501.611328125 c 1,0,1
194.299804688 440.668945312 m 1,28,29
 127.466796875 439.965820312 127.466796875 439.965820312 112.501953125 408.875976562 c 0,30,31
 100.999023438 385.625 100.999023438 385.625 94.9189453125 353.407226562 c 128,-1,32
 88.837890625 321.189453125 88.837890625 321.189453125 87.978515625 304.82421875 c 128,-1,33
 87.1181640625 288.458984375 87.1181640625 288.458984375 85.814453125 246.309570312 c 0,34,35
 87.009765625 153.450195312 87.009765625 153.450195312 110 100.987304688 c 0,36,37
 120.71875 68.091796875 120.71875 68.091796875 161.088867188 59.203125 c 1,38,39
 210.7734375 53.5615234375 210.7734375 53.5615234375 239.495117188 62.53125 c 0,40,41
 271.645507812 74.951171875 271.645507812 74.951171875 281.62890625 107.935546875 c 0,42,43
 303.458007812 164.896484375 303.458007812 164.896484375 302.6640625 255.546875 c 0,44,45
 302.509765625 259.201171875 302.509765625 259.201171875 302.217773438 266.557617188 c 0,46,47
 300.862304688 300.744140625 300.862304688 300.744140625 299.313476562 319.598632812 c 128,-1,48
 297.764648438 338.452148438 297.764648438 338.452148438 290.989257812 366.610351562 c 128,-1,49
 284.21484375 394.767578125 284.21484375 394.767578125 272.116210938 415.724609375 c 0,50,51
 253.703125 439.944335938 253.703125 439.944335938 194.299804688 440.668945312 c 1,28,29
EndSplineSet
EndChar

StartChar: ograve
Encoding: 242 242 79
Width: 413
Flags: W
LayerCount: 2
Fore
SplineSet
194.299804688 501.611328125 m 1,0,1
 258.836914062 501.532226562 258.836914062 501.532226562 293.208007812 478.114257812 c 0,2,3
 337.66015625 453.670898438 337.66015625 453.670898438 351.444335938 379.204101562 c 0,4,5
 372.546875 267.763671875 372.546875 267.763671875 357.934570312 162.571289062 c 0,6,7
 357.35546875 159.47265625 357.35546875 159.47265625 355.140625 147.280273438 c 128,-1,8
 352.92578125 135.086914062 352.92578125 135.086914062 352.08984375 130.858398438 c 128,-1,9
 351.25390625 126.629882812 351.25390625 126.629882812 348.869140625 115.723632812 c 128,-1,10
 346.484375 104.817382812 346.484375 104.817382812 344.78125 99.5 c 128,-1,11
 343.078125 94.1826171875 343.078125 94.1826171875 339.96484375 84.9228515625 c 128,-1,12
 336.8515625 75.6640625 336.8515625 75.6640625 333.72265625 69.6171875 c 128,-1,13
 330.59375 63.5703125 330.59375 63.5703125 326.194335938 56.318359375 c 128,-1,14
 321.794921875 49.06640625 321.794921875 49.06640625 316.735351562 42.970703125 c 0,15,16
 285.641601562 11.2451171875 285.641601562 11.2451171875 237.868164062 0.6123046875 c 128,-1,17
 190.094726562 -10.0205078125 190.094726562 -10.0205078125 147.5234375 1.1923828125 c 0,18,19
 74.1044921875 20.20703125 74.1044921875 20.20703125 53.5400390625 72.453125 c 0,20,21
 12.6494140625 180.227539062 12.6494140625 180.227539062 30.3447265625 337.930664062 c 0,22,23
 35.708984375 372.8046875 35.708984375 372.8046875 38.515625 387.385742188 c 128,-1,24
 41.322265625 401.967773438 41.322265625 401.967773438 52.4130859375 427.494140625 c 128,-1,25
 63.50390625 453.020507812 63.50390625 453.020507812 80.7548828125 467.841796875 c 0,26,27
 121.776367188 502.983398438 121.776367188 502.983398438 194.299804688 501.611328125 c 1,0,1
194.299804688 440.668945312 m 1,28,29
 127.466796875 439.965820312 127.466796875 439.965820312 112.501953125 408.875976562 c 0,30,31
 100.999023438 385.625 100.999023438 385.625 94.9189453125 353.407226562 c 128,-1,32
 88.837890625 321.189453125 88.837890625 321.189453125 87.978515625 304.82421875 c 128,-1,33
 87.1181640625 288.458984375 87.1181640625 288.458984375 85.814453125 246.309570312 c 0,34,35
 87.009765625 153.450195312 87.009765625 153.450195312 110 100.987304688 c 0,36,37
 120.71875 68.091796875 120.71875 68.091796875 161.088867188 59.203125 c 1,38,39
 210.7734375 53.5615234375 210.7734375 53.5615234375 239.495117188 62.53125 c 0,40,41
 271.645507812 74.951171875 271.645507812 74.951171875 281.62890625 107.935546875 c 0,42,43
 303.458007812 164.896484375 303.458007812 164.896484375 302.6640625 255.546875 c 0,44,45
 302.509765625 259.201171875 302.509765625 259.201171875 302.217773438 266.557617188 c 0,46,47
 300.862304688 300.744140625 300.862304688 300.744140625 299.313476562 319.598632812 c 128,-1,48
 297.764648438 338.452148438 297.764648438 338.452148438 290.989257812 366.610351562 c 128,-1,49
 284.21484375 394.767578125 284.21484375 394.767578125 272.116210938 415.724609375 c 0,50,51
 253.703125 439.944335938 253.703125 439.944335938 194.299804688 440.668945312 c 1,28,29
EndSplineSet
EndChar

StartChar: oacute
Encoding: 243 243 80
Width: 413
Flags: W
LayerCount: 2
Fore
SplineSet
194.299804688 501.611328125 m 1,0,1
 258.836914062 501.532226562 258.836914062 501.532226562 293.208007812 478.114257812 c 0,2,3
 337.66015625 453.670898438 337.66015625 453.670898438 351.444335938 379.204101562 c 0,4,5
 372.546875 267.763671875 372.546875 267.763671875 357.934570312 162.571289062 c 0,6,7
 357.35546875 159.47265625 357.35546875 159.47265625 355.140625 147.280273438 c 128,-1,8
 352.92578125 135.086914062 352.92578125 135.086914062 352.08984375 130.858398438 c 128,-1,9
 351.25390625 126.629882812 351.25390625 126.629882812 348.869140625 115.723632812 c 128,-1,10
 346.484375 104.817382812 346.484375 104.817382812 344.78125 99.5 c 128,-1,11
 343.078125 94.1826171875 343.078125 94.1826171875 339.96484375 84.9228515625 c 128,-1,12
 336.8515625 75.6640625 336.8515625 75.6640625 333.72265625 69.6171875 c 128,-1,13
 330.59375 63.5703125 330.59375 63.5703125 326.194335938 56.318359375 c 128,-1,14
 321.794921875 49.06640625 321.794921875 49.06640625 316.735351562 42.970703125 c 0,15,16
 285.641601562 11.2451171875 285.641601562 11.2451171875 237.868164062 0.6123046875 c 128,-1,17
 190.094726562 -10.0205078125 190.094726562 -10.0205078125 147.5234375 1.1923828125 c 0,18,19
 74.1044921875 20.20703125 74.1044921875 20.20703125 53.5400390625 72.453125 c 0,20,21
 12.6494140625 180.227539062 12.6494140625 180.227539062 30.3447265625 337.930664062 c 0,22,23
 35.708984375 372.8046875 35.708984375 372.8046875 38.515625 387.385742188 c 128,-1,24
 41.322265625 401.967773438 41.322265625 401.967773438 52.4130859375 427.494140625 c 128,-1,25
 63.50390625 453.020507812 63.50390625 453.020507812 80.7548828125 467.841796875 c 0,26,27
 121.776367188 502.983398438 121.776367188 502.983398438 194.299804688 501.611328125 c 1,0,1
194.299804688 440.668945312 m 1,28,29
 127.466796875 439.965820312 127.466796875 439.965820312 112.501953125 408.875976562 c 0,30,31
 100.999023438 385.625 100.999023438 385.625 94.9189453125 353.407226562 c 128,-1,32
 88.837890625 321.189453125 88.837890625 321.189453125 87.978515625 304.82421875 c 128,-1,33
 87.1181640625 288.458984375 87.1181640625 288.458984375 85.814453125 246.309570312 c 0,34,35
 87.009765625 153.450195312 87.009765625 153.450195312 110 100.987304688 c 0,36,37
 120.71875 68.091796875 120.71875 68.091796875 161.088867188 59.203125 c 1,38,39
 210.7734375 53.5615234375 210.7734375 53.5615234375 239.495117188 62.53125 c 0,40,41
 271.645507812 74.951171875 271.645507812 74.951171875 281.62890625 107.935546875 c 0,42,43
 303.458007812 164.896484375 303.458007812 164.896484375 302.6640625 255.546875 c 0,44,45
 302.509765625 259.201171875 302.509765625 259.201171875 302.217773438 266.557617188 c 0,46,47
 300.862304688 300.744140625 300.862304688 300.744140625 299.313476562 319.598632812 c 128,-1,48
 297.764648438 338.452148438 297.764648438 338.452148438 290.989257812 366.610351562 c 128,-1,49
 284.21484375 394.767578125 284.21484375 394.767578125 272.116210938 415.724609375 c 0,50,51
 253.703125 439.944335938 253.703125 439.944335938 194.299804688 440.668945312 c 1,28,29
EndSplineSet
EndChar

StartChar: ocircumflex
Encoding: 244 244 81
Width: 413
Flags: W
LayerCount: 2
Fore
SplineSet
194.299804688 501.611328125 m 1,0,1
 258.836914062 501.532226562 258.836914062 501.532226562 293.208007812 478.114257812 c 0,2,3
 337.66015625 453.670898438 337.66015625 453.670898438 351.444335938 379.204101562 c 0,4,5
 372.546875 267.763671875 372.546875 267.763671875 357.934570312 162.571289062 c 0,6,7
 357.35546875 159.47265625 357.35546875 159.47265625 355.140625 147.280273438 c 128,-1,8
 352.92578125 135.086914062 352.92578125 135.086914062 352.08984375 130.858398438 c 128,-1,9
 351.25390625 126.629882812 351.25390625 126.629882812 348.869140625 115.723632812 c 128,-1,10
 346.484375 104.817382812 346.484375 104.817382812 344.78125 99.5 c 128,-1,11
 343.078125 94.1826171875 343.078125 94.1826171875 339.96484375 84.9228515625 c 128,-1,12
 336.8515625 75.6640625 336.8515625 75.6640625 333.72265625 69.6171875 c 128,-1,13
 330.59375 63.5703125 330.59375 63.5703125 326.194335938 56.318359375 c 128,-1,14
 321.794921875 49.06640625 321.794921875 49.06640625 316.735351562 42.970703125 c 0,15,16
 285.641601562 11.2451171875 285.641601562 11.2451171875 237.868164062 0.6123046875 c 128,-1,17
 190.094726562 -10.0205078125 190.094726562 -10.0205078125 147.5234375 1.1923828125 c 0,18,19
 74.1044921875 20.20703125 74.1044921875 20.20703125 53.5400390625 72.453125 c 0,20,21
 12.6494140625 180.227539062 12.6494140625 180.227539062 30.3447265625 337.930664062 c 0,22,23
 35.708984375 372.8046875 35.708984375 372.8046875 38.515625 387.385742188 c 128,-1,24
 41.322265625 401.967773438 41.322265625 401.967773438 52.4130859375 427.494140625 c 128,-1,25
 63.50390625 453.020507812 63.50390625 453.020507812 80.7548828125 467.841796875 c 0,26,27
 121.776367188 502.983398438 121.776367188 502.983398438 194.299804688 501.611328125 c 1,0,1
194.299804688 440.668945312 m 1,28,29
 127.466796875 439.965820312 127.466796875 439.965820312 112.501953125 408.875976562 c 0,30,31
 100.999023438 385.625 100.999023438 385.625 94.9189453125 353.407226562 c 128,-1,32
 88.837890625 321.189453125 88.837890625 321.189453125 87.978515625 304.82421875 c 128,-1,33
 87.1181640625 288.458984375 87.1181640625 288.458984375 85.814453125 246.309570312 c 0,34,35
 87.009765625 153.450195312 87.009765625 153.450195312 110 100.987304688 c 0,36,37
 120.71875 68.091796875 120.71875 68.091796875 161.088867188 59.203125 c 1,38,39
 210.7734375 53.5615234375 210.7734375 53.5615234375 239.495117188 62.53125 c 0,40,41
 271.645507812 74.951171875 271.645507812 74.951171875 281.62890625 107.935546875 c 0,42,43
 303.458007812 164.896484375 303.458007812 164.896484375 302.6640625 255.546875 c 0,44,45
 302.509765625 259.201171875 302.509765625 259.201171875 302.217773438 266.557617188 c 0,46,47
 300.862304688 300.744140625 300.862304688 300.744140625 299.313476562 319.598632812 c 128,-1,48
 297.764648438 338.452148438 297.764648438 338.452148438 290.989257812 366.610351562 c 128,-1,49
 284.21484375 394.767578125 284.21484375 394.767578125 272.116210938 415.724609375 c 0,50,51
 253.703125 439.944335938 253.703125 439.944335938 194.299804688 440.668945312 c 1,28,29
EndSplineSet
EndChar

StartChar: otilde
Encoding: 245 245 82
Width: 413
Flags: W
LayerCount: 2
Fore
SplineSet
194.299804688 501.611328125 m 1,0,1
 258.836914062 501.532226562 258.836914062 501.532226562 293.208007812 478.114257812 c 0,2,3
 337.66015625 453.670898438 337.66015625 453.670898438 351.444335938 379.204101562 c 0,4,5
 372.546875 267.763671875 372.546875 267.763671875 357.934570312 162.571289062 c 0,6,7
 357.35546875 159.47265625 357.35546875 159.47265625 355.140625 147.280273438 c 128,-1,8
 352.92578125 135.086914062 352.92578125 135.086914062 352.08984375 130.858398438 c 128,-1,9
 351.25390625 126.629882812 351.25390625 126.629882812 348.869140625 115.723632812 c 128,-1,10
 346.484375 104.817382812 346.484375 104.817382812 344.78125 99.5 c 128,-1,11
 343.078125 94.1826171875 343.078125 94.1826171875 339.96484375 84.9228515625 c 128,-1,12
 336.8515625 75.6640625 336.8515625 75.6640625 333.72265625 69.6171875 c 128,-1,13
 330.59375 63.5703125 330.59375 63.5703125 326.194335938 56.318359375 c 128,-1,14
 321.794921875 49.06640625 321.794921875 49.06640625 316.735351562 42.970703125 c 0,15,16
 285.641601562 11.2451171875 285.641601562 11.2451171875 237.868164062 0.6123046875 c 128,-1,17
 190.094726562 -10.0205078125 190.094726562 -10.0205078125 147.5234375 1.1923828125 c 0,18,19
 74.1044921875 20.20703125 74.1044921875 20.20703125 53.5400390625 72.453125 c 0,20,21
 12.6494140625 180.227539062 12.6494140625 180.227539062 30.3447265625 337.930664062 c 0,22,23
 35.708984375 372.8046875 35.708984375 372.8046875 38.515625 387.385742188 c 128,-1,24
 41.322265625 401.967773438 41.322265625 401.967773438 52.4130859375 427.494140625 c 128,-1,25
 63.50390625 453.020507812 63.50390625 453.020507812 80.7548828125 467.841796875 c 0,26,27
 121.776367188 502.983398438 121.776367188 502.983398438 194.299804688 501.611328125 c 1,0,1
194.299804688 440.668945312 m 1,28,29
 127.466796875 439.965820312 127.466796875 439.965820312 112.501953125 408.875976562 c 0,30,31
 100.999023438 385.625 100.999023438 385.625 94.9189453125 353.407226562 c 128,-1,32
 88.837890625 321.189453125 88.837890625 321.189453125 87.978515625 304.82421875 c 128,-1,33
 87.1181640625 288.458984375 87.1181640625 288.458984375 85.814453125 246.309570312 c 0,34,35
 87.009765625 153.450195312 87.009765625 153.450195312 110 100.987304688 c 0,36,37
 120.71875 68.091796875 120.71875 68.091796875 161.088867188 59.203125 c 1,38,39
 210.7734375 53.5615234375 210.7734375 53.5615234375 239.495117188 62.53125 c 0,40,41
 271.645507812 74.951171875 271.645507812 74.951171875 281.62890625 107.935546875 c 0,42,43
 303.458007812 164.896484375 303.458007812 164.896484375 302.6640625 255.546875 c 0,44,45
 302.509765625 259.201171875 302.509765625 259.201171875 302.217773438 266.557617188 c 0,46,47
 300.862304688 300.744140625 300.862304688 300.744140625 299.313476562 319.598632812 c 128,-1,48
 297.764648438 338.452148438 297.764648438 338.452148438 290.989257812 366.610351562 c 128,-1,49
 284.21484375 394.767578125 284.21484375 394.767578125 272.116210938 415.724609375 c 0,50,51
 253.703125 439.944335938 253.703125 439.944335938 194.299804688 440.668945312 c 1,28,29
EndSplineSet
EndChar

StartChar: odieresis
Encoding: 246 246 83
Width: 413
Flags: W
LayerCount: 2
Fore
SplineSet
194.299804688 501.611328125 m 1,0,1
 258.836914062 501.532226562 258.836914062 501.532226562 293.208007812 478.114257812 c 0,2,3
 337.66015625 453.670898438 337.66015625 453.670898438 351.444335938 379.204101562 c 0,4,5
 372.546875 267.763671875 372.546875 267.763671875 357.934570312 162.571289062 c 0,6,7
 357.35546875 159.47265625 357.35546875 159.47265625 355.140625 147.280273438 c 128,-1,8
 352.92578125 135.086914062 352.92578125 135.086914062 352.08984375 130.858398438 c 128,-1,9
 351.25390625 126.629882812 351.25390625 126.629882812 348.869140625 115.723632812 c 128,-1,10
 346.484375 104.817382812 346.484375 104.817382812 344.78125 99.5 c 128,-1,11
 343.078125 94.1826171875 343.078125 94.1826171875 339.96484375 84.9228515625 c 128,-1,12
 336.8515625 75.6640625 336.8515625 75.6640625 333.72265625 69.6171875 c 128,-1,13
 330.59375 63.5703125 330.59375 63.5703125 326.194335938 56.318359375 c 128,-1,14
 321.794921875 49.06640625 321.794921875 49.06640625 316.735351562 42.970703125 c 0,15,16
 285.641601562 11.2451171875 285.641601562 11.2451171875 237.868164062 0.6123046875 c 128,-1,17
 190.094726562 -10.0205078125 190.094726562 -10.0205078125 147.5234375 1.1923828125 c 0,18,19
 74.1044921875 20.20703125 74.1044921875 20.20703125 53.5400390625 72.453125 c 0,20,21
 12.6494140625 180.227539062 12.6494140625 180.227539062 30.3447265625 337.930664062 c 0,22,23
 35.708984375 372.8046875 35.708984375 372.8046875 38.515625 387.385742188 c 128,-1,24
 41.322265625 401.967773438 41.322265625 401.967773438 52.4130859375 427.494140625 c 128,-1,25
 63.50390625 453.020507812 63.50390625 453.020507812 80.7548828125 467.841796875 c 0,26,27
 121.776367188 502.983398438 121.776367188 502.983398438 194.299804688 501.611328125 c 1,0,1
194.299804688 440.668945312 m 1,28,29
 127.466796875 439.965820312 127.466796875 439.965820312 112.501953125 408.875976562 c 0,30,31
 100.999023438 385.625 100.999023438 385.625 94.9189453125 353.407226562 c 128,-1,32
 88.837890625 321.189453125 88.837890625 321.189453125 87.978515625 304.82421875 c 128,-1,33
 87.1181640625 288.458984375 87.1181640625 288.458984375 85.814453125 246.309570312 c 0,34,35
 87.009765625 153.450195312 87.009765625 153.450195312 110 100.987304688 c 0,36,37
 120.71875 68.091796875 120.71875 68.091796875 161.088867188 59.203125 c 1,38,39
 210.7734375 53.5615234375 210.7734375 53.5615234375 239.495117188 62.53125 c 0,40,41
 271.645507812 74.951171875 271.645507812 74.951171875 281.62890625 107.935546875 c 0,42,43
 303.458007812 164.896484375 303.458007812 164.896484375 302.6640625 255.546875 c 0,44,45
 302.509765625 259.201171875 302.509765625 259.201171875 302.217773438 266.557617188 c 0,46,47
 300.862304688 300.744140625 300.862304688 300.744140625 299.313476562 319.598632812 c 128,-1,48
 297.764648438 338.452148438 297.764648438 338.452148438 290.989257812 366.610351562 c 128,-1,49
 284.21484375 394.767578125 284.21484375 394.767578125 272.116210938 415.724609375 c 0,50,51
 253.703125 439.944335938 253.703125 439.944335938 194.299804688 440.668945312 c 1,28,29
EndSplineSet
EndChar

StartChar: ugrave
Encoding: 249 249 84
Width: 395
VWidth: 0
Flags: W
LayerCount: 2
Fore
SplineSet
54.4501953125 502.107421875 m 1,0,-1
 54.8984375 502.110351562 l 2,1,2
 67.2783203125 502.110351562 67.2783203125 502.110351562 76.041015625 493.348632812 c 128,-1,3
 84.802734375 484.5859375 84.802734375 484.5859375 84.802734375 472.206054688 c 0,4,-1
 84.7998046875 152.551757812 l 2,5,6
 85.0517578125 106.645507812 85.0517578125 106.645507812 105.793945312 84.041015625 c 0,7,8
 129.53125 58.1708984375 129.53125 58.1708984375 185.001953125 58.1708984375 c 128,-1,9
 240.650390625 58.1708984375 240.650390625 58.1708984375 264.7890625 84.353515625 c 0,10,11
 285.861328125 107.208007812 285.861328125 107.208007812 285.206054688 151.951171875 c 0,12,-1
 285.203125 471.784179688 l 2,13,14
 285.200195312 484.610351562 285.200195312 484.610351562 293.961914062 493.373046875 c 128,-1,15
 302.724609375 502.134765625 302.724609375 502.134765625 315.104492188 502.134765625 c 128,-1,16
 327.485351562 502.134765625 327.485351562 502.134765625 336.247070312 493.373046875 c 128,-1,17
 345.009765625 484.610351562 345.009765625 484.610351562 345.009765625 472.23046875 c 0,18,-1
 345.005859375 152.389648438 l 1,19,-1
 345.005859375 152.828125 l 2,20,21
 346.012695312 84.2236328125 346.012695312 84.2236328125 308.7578125 43.8154296875 c 0,22,23
 266.858398438 -1.6318359375 266.858398438 -1.6318359375 185.00390625 -1.6318359375 c 128,-1,24
 103.244140625 -1.6318359375 103.244140625 -1.6318359375 61.7314453125 43.6064453125 c 0,25,26
 25.3779296875 83.2236328125 25.3779296875 83.2236328125 25 152.224609375 c 0,27,-1
 25 471.784179688 l 2,28,29
 24.99609375 484.401367188 24.99609375 484.401367188 33.6259765625 493.162109375 c 128,-1,30
 42.2568359375 501.923828125 42.2568359375 501.923828125 54.4501953125 502.107421875 c 1,0,-1
EndSplineSet
EndChar

StartChar: uacute
Encoding: 250 250 85
Width: 395
VWidth: 0
Flags: W
LayerCount: 2
Fore
SplineSet
54.4501953125 502.107421875 m 1,0,-1
 54.8984375 502.110351562 l 2,1,2
 67.2783203125 502.110351562 67.2783203125 502.110351562 76.041015625 493.348632812 c 128,-1,3
 84.802734375 484.5859375 84.802734375 484.5859375 84.802734375 472.206054688 c 0,4,-1
 84.7998046875 152.551757812 l 2,5,6
 85.0517578125 106.645507812 85.0517578125 106.645507812 105.793945312 84.041015625 c 0,7,8
 129.53125 58.1708984375 129.53125 58.1708984375 185.001953125 58.1708984375 c 128,-1,9
 240.650390625 58.1708984375 240.650390625 58.1708984375 264.7890625 84.353515625 c 0,10,11
 285.861328125 107.208007812 285.861328125 107.208007812 285.206054688 151.951171875 c 0,12,-1
 285.203125 471.784179688 l 2,13,14
 285.200195312 484.610351562 285.200195312 484.610351562 293.961914062 493.373046875 c 128,-1,15
 302.724609375 502.134765625 302.724609375 502.134765625 315.104492188 502.134765625 c 128,-1,16
 327.485351562 502.134765625 327.485351562 502.134765625 336.247070312 493.373046875 c 128,-1,17
 345.009765625 484.610351562 345.009765625 484.610351562 345.009765625 472.23046875 c 0,18,-1
 345.005859375 152.389648438 l 1,19,-1
 345.005859375 152.828125 l 2,20,21
 346.012695312 84.2236328125 346.012695312 84.2236328125 308.7578125 43.8154296875 c 0,22,23
 266.858398438 -1.6318359375 266.858398438 -1.6318359375 185.00390625 -1.6318359375 c 128,-1,24
 103.244140625 -1.6318359375 103.244140625 -1.6318359375 61.7314453125 43.6064453125 c 0,25,26
 25.3779296875 83.2236328125 25.3779296875 83.2236328125 25 152.224609375 c 0,27,-1
 25 471.784179688 l 2,28,29
 24.99609375 484.401367188 24.99609375 484.401367188 33.6259765625 493.162109375 c 128,-1,30
 42.2568359375 501.923828125 42.2568359375 501.923828125 54.4501953125 502.107421875 c 1,0,-1
EndSplineSet
EndChar

StartChar: ucircumflex
Encoding: 251 251 86
Width: 395
VWidth: 0
Flags: W
LayerCount: 2
Fore
SplineSet
54.4501953125 502.107421875 m 1,0,-1
 54.8984375 502.110351562 l 2,1,2
 67.2783203125 502.110351562 67.2783203125 502.110351562 76.041015625 493.348632812 c 128,-1,3
 84.802734375 484.5859375 84.802734375 484.5859375 84.802734375 472.206054688 c 0,4,-1
 84.7998046875 152.551757812 l 2,5,6
 85.0517578125 106.645507812 85.0517578125 106.645507812 105.793945312 84.041015625 c 0,7,8
 129.53125 58.1708984375 129.53125 58.1708984375 185.001953125 58.1708984375 c 128,-1,9
 240.650390625 58.1708984375 240.650390625 58.1708984375 264.7890625 84.353515625 c 0,10,11
 285.861328125 107.208007812 285.861328125 107.208007812 285.206054688 151.951171875 c 0,12,-1
 285.203125 471.784179688 l 2,13,14
 285.200195312 484.610351562 285.200195312 484.610351562 293.961914062 493.373046875 c 128,-1,15
 302.724609375 502.134765625 302.724609375 502.134765625 315.104492188 502.134765625 c 128,-1,16
 327.485351562 502.134765625 327.485351562 502.134765625 336.247070312 493.373046875 c 128,-1,17
 345.009765625 484.610351562 345.009765625 484.610351562 345.009765625 472.23046875 c 0,18,-1
 345.005859375 152.389648438 l 1,19,-1
 345.005859375 152.828125 l 2,20,21
 346.012695312 84.2236328125 346.012695312 84.2236328125 308.7578125 43.8154296875 c 0,22,23
 266.858398438 -1.6318359375 266.858398438 -1.6318359375 185.00390625 -1.6318359375 c 128,-1,24
 103.244140625 -1.6318359375 103.244140625 -1.6318359375 61.7314453125 43.6064453125 c 0,25,26
 25.3779296875 83.2236328125 25.3779296875 83.2236328125 25 152.224609375 c 0,27,-1
 25 471.784179688 l 2,28,29
 24.99609375 484.401367188 24.99609375 484.401367188 33.6259765625 493.162109375 c 128,-1,30
 42.2568359375 501.923828125 42.2568359375 501.923828125 54.4501953125 502.107421875 c 1,0,-1
EndSplineSet
EndChar

